%TF.GenerationSoftware,KiCad,Pcbnew,(6.0.9)*%
%TF.CreationDate,2022-11-10T15:00:12+05:30*%
%TF.ProjectId,Gate Driver TLP152,47617465-2044-4726-9976-657220544c50,rev?*%
%TF.SameCoordinates,Original*%
%TF.FileFunction,Copper,L2,Bot*%
%TF.FilePolarity,Positive*%
%FSLAX46Y46*%
G04 Gerber Fmt 4.6, Leading zero omitted, Abs format (unit mm)*
G04 Created by KiCad (PCBNEW (6.0.9)) date 2022-11-10 15:00:12*
%MOMM*%
%LPD*%
G01*
G04 APERTURE LIST*
G04 Aperture macros list*
%AMRoundRect*
0 Rectangle with rounded corners*
0 $1 Rounding radius*
0 $2 $3 $4 $5 $6 $7 $8 $9 X,Y pos of 4 corners*
0 Add a 4 corners polygon primitive as box body*
4,1,4,$2,$3,$4,$5,$6,$7,$8,$9,$2,$3,0*
0 Add four circle primitives for the rounded corners*
1,1,$1+$1,$2,$3*
1,1,$1+$1,$4,$5*
1,1,$1+$1,$6,$7*
1,1,$1+$1,$8,$9*
0 Add four rect primitives between the rounded corners*
20,1,$1+$1,$2,$3,$4,$5,0*
20,1,$1+$1,$4,$5,$6,$7,0*
20,1,$1+$1,$6,$7,$8,$9,0*
20,1,$1+$1,$8,$9,$2,$3,0*%
%AMFreePoly0*
4,1,22,0.500000,-0.750000,0.000000,-0.750000,0.000000,-0.745033,-0.079941,-0.743568,-0.215256,-0.701293,-0.333266,-0.622738,-0.424486,-0.514219,-0.481581,-0.384460,-0.499164,-0.250000,-0.500000,-0.250000,-0.500000,0.250000,-0.499164,0.250000,-0.499963,0.256109,-0.478152,0.396186,-0.417904,0.524511,-0.324060,0.630769,-0.204165,0.706417,-0.067858,0.745374,0.000000,0.744959,0.000000,0.750000,
0.500000,0.750000,0.500000,-0.750000,0.500000,-0.750000,$1*%
%AMFreePoly1*
4,1,20,0.000000,0.744959,0.073905,0.744508,0.209726,0.703889,0.328688,0.626782,0.421226,0.519385,0.479903,0.390333,0.500000,0.250000,0.500000,-0.250000,0.499851,-0.262216,0.476331,-0.402017,0.414519,-0.529596,0.319384,-0.634700,0.198574,-0.708877,0.061801,-0.746166,0.000000,-0.745033,0.000000,-0.750000,-0.500000,-0.750000,-0.500000,0.750000,0.000000,0.750000,0.000000,0.744959,
0.000000,0.744959,$1*%
G04 Aperture macros list end*
%TA.AperFunction,ComponentPad*%
%ADD10C,1.600000*%
%TD*%
%TA.AperFunction,ComponentPad*%
%ADD11O,1.600000X1.600000*%
%TD*%
%TA.AperFunction,ComponentPad*%
%ADD12R,1.700000X1.700000*%
%TD*%
%TA.AperFunction,ComponentPad*%
%ADD13O,1.700000X1.700000*%
%TD*%
%TA.AperFunction,SMDPad,CuDef*%
%ADD14RoundRect,0.225000X-0.225000X-0.250000X0.225000X-0.250000X0.225000X0.250000X-0.225000X0.250000X0*%
%TD*%
%TA.AperFunction,SMDPad,CuDef*%
%ADD15RoundRect,0.200000X0.200000X0.275000X-0.200000X0.275000X-0.200000X-0.275000X0.200000X-0.275000X0*%
%TD*%
%TA.AperFunction,SMDPad,CuDef*%
%ADD16RoundRect,0.225000X0.225000X0.250000X-0.225000X0.250000X-0.225000X-0.250000X0.225000X-0.250000X0*%
%TD*%
%TA.AperFunction,SMDPad,CuDef*%
%ADD17FreePoly0,270.000000*%
%TD*%
%TA.AperFunction,SMDPad,CuDef*%
%ADD18FreePoly1,270.000000*%
%TD*%
%TA.AperFunction,SMDPad,CuDef*%
%ADD19R,1.780000X2.000000*%
%TD*%
%TA.AperFunction,SMDPad,CuDef*%
%ADD20RoundRect,0.250000X-1.950000X-1.000000X1.950000X-1.000000X1.950000X1.000000X-1.950000X1.000000X0*%
%TD*%
%TA.AperFunction,SMDPad,CuDef*%
%ADD21RoundRect,0.150000X0.825000X0.150000X-0.825000X0.150000X-0.825000X-0.150000X0.825000X-0.150000X0*%
%TD*%
%TA.AperFunction,SMDPad,CuDef*%
%ADD22RoundRect,0.200000X-0.200000X-0.275000X0.200000X-0.275000X0.200000X0.275000X-0.200000X0.275000X0*%
%TD*%
%TA.AperFunction,SMDPad,CuDef*%
%ADD23RoundRect,0.200000X0.275000X-0.200000X0.275000X0.200000X-0.275000X0.200000X-0.275000X-0.200000X0*%
%TD*%
%TA.AperFunction,SMDPad,CuDef*%
%ADD24RoundRect,0.250000X1.250000X0.550000X-1.250000X0.550000X-1.250000X-0.550000X1.250000X-0.550000X0*%
%TD*%
%TA.AperFunction,ViaPad*%
%ADD25C,0.800000*%
%TD*%
%TA.AperFunction,Conductor*%
%ADD26C,0.800000*%
%TD*%
%TA.AperFunction,Conductor*%
%ADD27C,0.500000*%
%TD*%
%TA.AperFunction,Conductor*%
%ADD28C,1.000000*%
%TD*%
%TA.AperFunction,Conductor*%
%ADD29C,0.300000*%
%TD*%
%TA.AperFunction,Conductor*%
%ADD30C,0.400000*%
%TD*%
G04 APERTURE END LIST*
D10*
%TO.P,R7,1*%
%TO.N,Net-(D7-Pad2)*%
X12954000Y-2413000D03*
D11*
%TO.P,R7,2*%
%TO.N,+12V*%
X25654000Y-2413000D03*
%TD*%
D12*
%TO.P,J1,1,Pin_1*%
%TO.N,/Reset*%
X37605000Y-17805000D03*
D13*
%TO.P,J1,2,Pin_2*%
%TO.N,/~{Fault}*%
X37605000Y-20345000D03*
%TO.P,J1,3,Pin_3*%
%TO.N,GNDD*%
X35065000Y-17805000D03*
%TO.P,J1,4,Pin_4*%
%TO.N,/~{SD}*%
X35065000Y-20345000D03*
%TO.P,J1,5,Pin_5*%
%TO.N,GNDD*%
X32525000Y-17805000D03*
%TO.P,J1,6,Pin_6*%
%TO.N,+3.3V*%
X32525000Y-20345000D03*
%TO.P,J1,7,Pin_7*%
%TO.N,GNDD*%
X29985000Y-17805000D03*
%TO.P,J1,8,Pin_8*%
%TO.N,+5V*%
X29985000Y-20345000D03*
%TO.P,J1,9,Pin_9*%
%TO.N,GNDD*%
X27445000Y-17805000D03*
%TO.P,J1,10,Pin_10*%
%TO.N,+12V*%
X27445000Y-20345000D03*
%TO.P,J1,11,Pin_11*%
%TO.N,GNDD*%
X24905000Y-17805000D03*
%TO.P,J1,12,Pin_12*%
%TO.N,/pulse IN*%
X24905000Y-20345000D03*
%TO.P,J1,13,Pin_13*%
%TO.N,GNDD*%
X22365000Y-17805000D03*
%TO.P,J1,14,Pin_14*%
%TO.N,GND*%
X22365000Y-20345000D03*
%TD*%
D12*
%TO.P,J2,1,Pin_1*%
%TO.N,Drain*%
X7592000Y-20320000D03*
D13*
%TO.P,J2,2,Pin_2*%
%TO.N,Gate*%
X5052000Y-20320000D03*
%TO.P,J2,3,Pin_3*%
%TO.N,Source*%
X2512000Y-20320000D03*
%TD*%
D14*
%TO.P,C5,1*%
%TO.N,Net-(C5-Pad1)*%
X10147000Y-9398000D03*
%TO.P,C5,2*%
%TO.N,Common*%
X11697000Y-9398000D03*
%TD*%
D15*
%TO.P,R15,1*%
%TO.N,/Boot*%
X7429000Y-16510000D03*
%TO.P,R15,2*%
%TO.N,Net-(C6-Pad1)*%
X5779000Y-16510000D03*
%TD*%
%TO.P,R17,1*%
%TO.N,Net-(C7-Pad1)*%
X4254000Y-13843000D03*
%TO.P,R17,2*%
%TO.N,Common*%
X2604000Y-13843000D03*
%TD*%
D16*
%TO.P,C7,1*%
%TO.N,Net-(C7-Pad1)*%
X4204000Y-15367000D03*
%TO.P,C7,2*%
%TO.N,Common*%
X2654000Y-15367000D03*
%TD*%
D17*
%TO.P,JP2,1,A*%
%TO.N,Common*%
X29718000Y-13320000D03*
D18*
%TO.P,JP2,2,B*%
%TO.N,GND*%
X29718000Y-14620000D03*
%TD*%
D19*
%TO.P,U2,1*%
%TO.N,Net-(R20-Pad2)*%
X32639000Y-4506000D03*
%TO.P,U2,2*%
%TO.N,Common*%
X35179000Y-4506000D03*
%TO.P,U2,3*%
%TO.N,GNDD*%
X35179000Y-14036000D03*
%TO.P,U2,4*%
%TO.N,/~{Fault}*%
X32639000Y-14036000D03*
%TD*%
D16*
%TO.P,C2,1*%
%TO.N,/Boot*%
X7379000Y-9398000D03*
%TO.P,C2,2*%
%TO.N,Common*%
X5829000Y-9398000D03*
%TD*%
D14*
%TO.P,C4,1*%
%TO.N,Net-(C4-Pad1)*%
X13322000Y-13716000D03*
%TO.P,C4,2*%
%TO.N,Common*%
X14872000Y-13716000D03*
%TD*%
D20*
%TO.P,C3,1*%
%TO.N,/Boot*%
X18533000Y-10541000D03*
%TO.P,C3,2*%
%TO.N,Common*%
X26933000Y-10541000D03*
%TD*%
D21*
%TO.P,U1,1*%
%TO.N,Net-(C6-Pad1)*%
X11238000Y-11049000D03*
%TO.P,U1,2,-*%
%TO.N,Net-(C5-Pad1)*%
X11238000Y-12319000D03*
%TO.P,U1,3,+*%
%TO.N,Net-(C4-Pad1)*%
X11238000Y-13589000D03*
%TO.P,U1,4,V-*%
%TO.N,Common*%
X11238000Y-14859000D03*
%TO.P,U1,5,+*%
%TO.N,Net-(C7-Pad1)*%
X6288000Y-14859000D03*
%TO.P,U1,6,_*%
%TO.N,Net-(C6-Pad1)*%
X6288000Y-13589000D03*
%TO.P,U1,7*%
%TO.N,/Error_OUT*%
X6288000Y-12319000D03*
%TO.P,U1,8,V+*%
%TO.N,/Boot*%
X6288000Y-11049000D03*
%TD*%
D22*
%TO.P,R18,1*%
%TO.N,/Boot*%
X2604000Y-10668000D03*
%TO.P,R18,2*%
%TO.N,/Error_OUT*%
X4254000Y-10668000D03*
%TD*%
%TO.P,R10,1*%
%TO.N,Net-(C4-Pad1)*%
X13272000Y-12192000D03*
%TO.P,R10,2*%
%TO.N,Common*%
X14922000Y-12192000D03*
%TD*%
%TO.P,R8,1*%
%TO.N,Net-(C5-Pad1)*%
X13272000Y-10668000D03*
%TO.P,R8,2*%
%TO.N,Common*%
X14922000Y-10668000D03*
%TD*%
D15*
%TO.P,R12,1*%
%TO.N,Common*%
X4127000Y-17653000D03*
%TO.P,R12,2*%
%TO.N,Source*%
X2477000Y-17653000D03*
%TD*%
D23*
%TO.P,R20,1*%
%TO.N,/Error_OUT*%
X29972000Y-7429000D03*
%TO.P,R20,2*%
%TO.N,Net-(R20-Pad2)*%
X29972000Y-5779000D03*
%TD*%
D24*
%TO.P,C1,1*%
%TO.N,+12V*%
X10963000Y-4953000D03*
%TO.P,C1,2*%
%TO.N,GND*%
X6563000Y-4953000D03*
%TD*%
D15*
%TO.P,R9,1*%
%TO.N,/Boot*%
X14922000Y-15240000D03*
%TO.P,R9,2*%
%TO.N,Net-(C4-Pad1)*%
X13272000Y-15240000D03*
%TD*%
%TO.P,R16,1*%
%TO.N,/Boot*%
X4254000Y-12319000D03*
%TO.P,R16,2*%
%TO.N,Net-(C7-Pad1)*%
X2604000Y-12319000D03*
%TD*%
D14*
%TO.P,C6,1*%
%TO.N,Net-(C6-Pad1)*%
X10147000Y-16510000D03*
%TO.P,C6,2*%
%TO.N,Common*%
X11697000Y-16510000D03*
%TD*%
D25*
%TO.N,+12V*%
X10922000Y-4953000D03*
%TO.N,GND*%
X2540000Y-5969000D03*
X22860000Y-13716000D03*
X23749000Y-13716000D03*
X18796000Y-21844000D03*
X22860000Y-14732000D03*
X23749000Y-14732000D03*
%TO.N,/Boot*%
X19100800Y-14986000D03*
X7366000Y-9398000D03*
X8927500Y-16637000D03*
%TO.N,Net-(C5-Pad1)*%
X9512302Y-11971500D03*
%TO.N,/~{Fault}*%
X37681500Y-11557000D03*
%TO.N,+3.3V*%
X10515600Y-1371600D03*
%TO.N,+5V*%
X10617200Y-2692400D03*
%TO.N,/VO*%
X16637000Y-12827000D03*
X17018000Y-7493000D03*
%TO.N,/Error_OUT*%
X4254000Y-10668000D03*
X9398000Y-18542000D03*
X6288002Y-12319000D03*
%TO.N,Common*%
X15748000Y-18796000D03*
X14859000Y-19812000D03*
X17399000Y-21844000D03*
X17685318Y-5968101D03*
X14351000Y-21844000D03*
X15367000Y-21844000D03*
X13970000Y-19812000D03*
X13335000Y-21844000D03*
X15748000Y-19812000D03*
X16383000Y-21844000D03*
X13970000Y-18796000D03*
X14859000Y-18796000D03*
X12319000Y-21844000D03*
%TD*%
D26*
%TO.N,+12V*%
X889000Y-20817630D02*
X889000Y-5080000D01*
X25654000Y-2413000D02*
X16129000Y-2413000D01*
X889000Y-5080000D02*
X2491103Y-3477897D01*
X10197572Y-4953000D02*
X10963000Y-4953000D01*
X2491103Y-3477897D02*
X8722469Y-3477897D01*
X24803000Y-22987000D02*
X3058370Y-22987000D01*
X8722469Y-3477897D02*
X10197572Y-4953000D01*
X16129000Y-2413000D02*
X13589000Y-4953000D01*
X3058370Y-22987000D02*
X889000Y-20817630D01*
X27445000Y-20345000D02*
X24803000Y-22987000D01*
X13589000Y-4953000D02*
X10963000Y-4953000D01*
%TO.N,GND*%
X19406000Y-20345000D02*
X22365000Y-20345000D01*
X18796000Y-20955000D02*
X19406000Y-20345000D01*
X23749000Y-14732000D02*
X22860000Y-14732000D01*
X18796000Y-21844000D02*
X18796000Y-20955000D01*
D27*
X3556000Y-4953000D02*
X2540000Y-5969000D01*
X6563000Y-4953000D02*
X3556000Y-4953000D01*
D28*
X29718000Y-14620000D02*
X23764000Y-14620000D01*
X23764000Y-14620000D02*
X23368000Y-14224000D01*
D29*
%TO.N,/Boot*%
X7379000Y-9398000D02*
X7379000Y-9291500D01*
X15531501Y-6693499D02*
X14097000Y-8128000D01*
X5524000Y-11049000D02*
X6288000Y-11049000D01*
X2604000Y-10668000D02*
X2604000Y-10669000D01*
X8542500Y-8128000D02*
X8001000Y-8669500D01*
X18533000Y-7877334D02*
X17349165Y-6693499D01*
X7429000Y-16510000D02*
X7556000Y-16637000D01*
X7379000Y-9958000D02*
X6288000Y-11049000D01*
D27*
X18846800Y-15240000D02*
X19100800Y-14986000D01*
D29*
X4254000Y-12319000D02*
X5524000Y-11049000D01*
X2604000Y-10669000D02*
X4254000Y-12319000D01*
D27*
X14922000Y-15240000D02*
X18846800Y-15240000D01*
D29*
X14097000Y-8128000D02*
X8542500Y-8128000D01*
X17349165Y-6693499D02*
X15531501Y-6693499D01*
X7379000Y-9398000D02*
X7379000Y-9958000D01*
X7379000Y-9291500D02*
X8001000Y-8669500D01*
X18533000Y-10541000D02*
X18533000Y-7877334D01*
X7556000Y-16637000D02*
X8927500Y-16637000D01*
%TO.N,Net-(C4-Pad1)*%
X13195000Y-13589000D02*
X13322000Y-13716000D01*
X13272000Y-13666000D02*
X13322000Y-13716000D01*
X13322000Y-13716000D02*
X13322000Y-15190000D01*
X13322000Y-15190000D02*
X13272000Y-15240000D01*
X13272000Y-12192000D02*
X13272000Y-13666000D01*
X11238000Y-13589000D02*
X13195000Y-13589000D01*
%TO.N,Net-(C5-Pad1)*%
X11098480Y-10349480D02*
X12953480Y-10349480D01*
X12472480Y-11911520D02*
X12472480Y-11668671D01*
X12953480Y-10349480D02*
X13272000Y-10668000D01*
X13272000Y-10869151D02*
X13272000Y-10668000D01*
X11238000Y-12319000D02*
X12065000Y-12319000D01*
X12065000Y-12319000D02*
X12472480Y-11911520D01*
X9859802Y-12319000D02*
X9512302Y-11971500D01*
X12472480Y-11668671D02*
X13272000Y-10869151D01*
X11238000Y-12319000D02*
X9859802Y-12319000D01*
X10147000Y-9398000D02*
X11098480Y-10349480D01*
%TO.N,Net-(C6-Pad1)*%
X8725499Y-11606835D02*
X8713165Y-11606835D01*
X8636000Y-11684000D02*
X8636000Y-13589000D01*
X10147000Y-16510000D02*
X9195520Y-15558520D01*
X10147000Y-16510000D02*
X8636000Y-14999000D01*
X8636000Y-13589000D02*
X6288000Y-13589000D01*
X6730480Y-15558520D02*
X5779000Y-16510000D01*
X8713165Y-11606835D02*
X8636000Y-11684000D01*
X9283334Y-11049000D02*
X8725499Y-11606835D01*
X11238000Y-11049000D02*
X9283334Y-11049000D01*
X9195520Y-15558520D02*
X6730480Y-15558520D01*
X8636000Y-13589000D02*
X8636000Y-14999000D01*
%TO.N,Net-(C7-Pad1)*%
X2604000Y-12319000D02*
X2730000Y-12319000D01*
X4204000Y-13893000D02*
X4254000Y-13843000D01*
X4217000Y-14859000D02*
X4204000Y-14846000D01*
X6288000Y-14859000D02*
X4217000Y-14859000D01*
X4204000Y-14846000D02*
X4204000Y-13893000D01*
X4204000Y-15367000D02*
X4204000Y-14846000D01*
X2730000Y-12319000D02*
X4254000Y-13843000D01*
%TO.N,/~{Fault}*%
X34036000Y-11557000D02*
X37681500Y-11557000D01*
X32639000Y-14036000D02*
X33815489Y-15212489D01*
X32639000Y-14036000D02*
X32639000Y-12954000D01*
X34547435Y-19054511D02*
X36314511Y-19054511D01*
X33815489Y-15212489D02*
X33815489Y-18322565D01*
X33815489Y-18322565D02*
X34547435Y-19054511D01*
X36314511Y-19054511D02*
X37605000Y-20345000D01*
X32639000Y-12954000D02*
X34036000Y-11557000D01*
%TO.N,+3.3V*%
X35675000Y-23495000D02*
X38227000Y-23495000D01*
X32525000Y-20345000D02*
X35675000Y-23495000D01*
X39030510Y-1540110D02*
X38154378Y-663978D01*
X39030510Y-22691490D02*
X39030510Y-1540110D01*
X38154378Y-663978D02*
X11223222Y-663978D01*
X38227000Y-23495000D02*
X39030510Y-22691490D01*
X11223222Y-663978D02*
X10515600Y-1371600D01*
%TO.N,+5V*%
X37738689Y-6247289D02*
X37738689Y-1213489D01*
X37738689Y-1213489D02*
X12096111Y-1213489D01*
X29985000Y-20345000D02*
X31275489Y-19054511D01*
X12096111Y-1213489D02*
X10617200Y-2692400D01*
X31275489Y-12710489D02*
X37738689Y-6247289D01*
X31275489Y-19054511D02*
X31275489Y-12710489D01*
%TO.N,GNDD*%
X35065000Y-14150000D02*
X35179000Y-14036000D01*
X35065000Y-17805000D02*
X35065000Y-14150000D01*
D26*
%TO.N,Source*%
X2477000Y-17653000D02*
X2477000Y-20285000D01*
X2477000Y-20285000D02*
X2512000Y-20320000D01*
D30*
%TO.N,/VO*%
X15883480Y-8627520D02*
X15883480Y-12073480D01*
X15883480Y-12073480D02*
X16637000Y-12827000D01*
X17018000Y-7493000D02*
X15883480Y-8627520D01*
D29*
%TO.N,/Error_OUT*%
X23469600Y-11480800D02*
X21844000Y-13106400D01*
X11684000Y-20828000D02*
X9398000Y-18542000D01*
X21844000Y-13106400D02*
X21844000Y-16129000D01*
X29972000Y-7429000D02*
X25438600Y-7429000D01*
X17145000Y-20828000D02*
X11684000Y-20828000D01*
X23469600Y-9398000D02*
X23469600Y-11480800D01*
X25438600Y-7429000D02*
X23469600Y-9398000D01*
X21844000Y-16129000D02*
X17145000Y-20828000D01*
D27*
%TO.N,Net-(R20-Pad2)*%
X31366000Y-5779000D02*
X32639000Y-4506000D01*
X29972000Y-5779000D02*
X31366000Y-5779000D01*
D30*
%TO.N,Common*%
X14478000Y-9398000D02*
X14872000Y-9792000D01*
X11697000Y-16510000D02*
X11697000Y-15318000D01*
X11697000Y-9398000D02*
X14478000Y-9398000D01*
X14872000Y-9792000D02*
X14872000Y-13716000D01*
D29*
X4127000Y-17653000D02*
X11557000Y-17653000D01*
X2654000Y-15367000D02*
X2654000Y-16180000D01*
D30*
X11697000Y-15318000D02*
X11238000Y-14859000D01*
D29*
X11697000Y-17513000D02*
X11697000Y-16510000D01*
X11557000Y-17653000D02*
X11697000Y-17513000D01*
X2654000Y-16180000D02*
X4127000Y-17653000D01*
%TD*%
%TA.AperFunction,Conductor*%
%TO.N,GND*%
G36*
X23765188Y-13209078D02*
G01*
X23869963Y-13222872D01*
X23901735Y-13231385D01*
X23991674Y-13268639D01*
X24020160Y-13285086D01*
X24097393Y-13344349D01*
X24120651Y-13367607D01*
X24179914Y-13444840D01*
X24196361Y-13473326D01*
X24233615Y-13563265D01*
X24242128Y-13595037D01*
X24255922Y-13699812D01*
X24257000Y-13716258D01*
X24257000Y-14731742D01*
X24255922Y-14748188D01*
X24242128Y-14852963D01*
X24233615Y-14884735D01*
X24196361Y-14974674D01*
X24179914Y-15003160D01*
X24120651Y-15080393D01*
X24097393Y-15103651D01*
X24020160Y-15162914D01*
X23991674Y-15179361D01*
X23901735Y-15216615D01*
X23869963Y-15225128D01*
X23765188Y-15238922D01*
X23748742Y-15240000D01*
X22860258Y-15240000D01*
X22843812Y-15238922D01*
X22739037Y-15225128D01*
X22707265Y-15216615D01*
X22617326Y-15179361D01*
X22588840Y-15162914D01*
X22551796Y-15134489D01*
X22509929Y-15077151D01*
X22502500Y-15034527D01*
X22502500Y-13431350D01*
X22522502Y-13363229D01*
X22539405Y-13342255D01*
X22592254Y-13289406D01*
X22633131Y-13262092D01*
X22707265Y-13231385D01*
X22739037Y-13222872D01*
X22843812Y-13209078D01*
X22860258Y-13208000D01*
X23748742Y-13208000D01*
X23765188Y-13209078D01*
G37*
%TD.AperFunction*%
%TD*%
%TA.AperFunction,Conductor*%
%TO.N,Common*%
G36*
X9112179Y-19409221D02*
G01*
X9115712Y-19410794D01*
X9136431Y-19415198D01*
X9296056Y-19449128D01*
X9296061Y-19449128D01*
X9302513Y-19450500D01*
X9323050Y-19450500D01*
X9391171Y-19470502D01*
X9412145Y-19487405D01*
X11160345Y-21235605D01*
X11168335Y-21244385D01*
X11172584Y-21251080D01*
X11178362Y-21256506D01*
X11178363Y-21256507D01*
X11224257Y-21299604D01*
X11227099Y-21302359D01*
X11247667Y-21322927D01*
X11251170Y-21325644D01*
X11260195Y-21333352D01*
X11293867Y-21364972D01*
X11300818Y-21368793D01*
X11300819Y-21368794D01*
X11312658Y-21375303D01*
X11329182Y-21386157D01*
X11339865Y-21394443D01*
X11346132Y-21399304D01*
X11366914Y-21408297D01*
X11388536Y-21417654D01*
X11399181Y-21422869D01*
X11439663Y-21445124D01*
X11447337Y-21447094D01*
X11447344Y-21447097D01*
X11460426Y-21450455D01*
X11479134Y-21456860D01*
X11498823Y-21465380D01*
X11506649Y-21466619D01*
X11506651Y-21466620D01*
X11531159Y-21470501D01*
X11544459Y-21472608D01*
X11556070Y-21475012D01*
X11587107Y-21482981D01*
X11593135Y-21484529D01*
X11593136Y-21484529D01*
X11600812Y-21486500D01*
X11622258Y-21486500D01*
X11641968Y-21488051D01*
X11655322Y-21490166D01*
X11655323Y-21490166D01*
X11663152Y-21491406D01*
X11709141Y-21487059D01*
X11720996Y-21486500D01*
X17062944Y-21486500D01*
X17074800Y-21487059D01*
X17074803Y-21487059D01*
X17082537Y-21488788D01*
X17153369Y-21486562D01*
X17157327Y-21486500D01*
X17186432Y-21486500D01*
X17190832Y-21485944D01*
X17202664Y-21485012D01*
X17248831Y-21483562D01*
X17269421Y-21477580D01*
X17288782Y-21473570D01*
X17296408Y-21472607D01*
X17302204Y-21471875D01*
X17302205Y-21471875D01*
X17310064Y-21470882D01*
X17317429Y-21467966D01*
X17317433Y-21467965D01*
X17353021Y-21453874D01*
X17364231Y-21450035D01*
X17408600Y-21437145D01*
X17427065Y-21426225D01*
X17444805Y-21417534D01*
X17464756Y-21409635D01*
X17502129Y-21382482D01*
X17512048Y-21375967D01*
X17544977Y-21356493D01*
X17544981Y-21356490D01*
X17551807Y-21352453D01*
X17566971Y-21337289D01*
X17582005Y-21324448D01*
X17599357Y-21311841D01*
X17628803Y-21276247D01*
X17636792Y-21267468D01*
X17672405Y-21231855D01*
X17734717Y-21197829D01*
X17805532Y-21202894D01*
X17862368Y-21245441D01*
X17887179Y-21311961D01*
X17887500Y-21320950D01*
X17887500Y-21789784D01*
X17886810Y-21802955D01*
X17882496Y-21844000D01*
X17883186Y-21850564D01*
X17883186Y-21850565D01*
X17887500Y-21891610D01*
X17887500Y-21891612D01*
X17892515Y-21939331D01*
X17879742Y-22009169D01*
X17831240Y-22061015D01*
X17767205Y-22078500D01*
X3486873Y-22078500D01*
X3418752Y-22058498D01*
X3397778Y-22041595D01*
X3091086Y-21734903D01*
X3057060Y-21672591D01*
X3062125Y-21601776D01*
X3104672Y-21544940D01*
X3124739Y-21532662D01*
X3209994Y-21490896D01*
X3391860Y-21361173D01*
X3396557Y-21356493D01*
X3499910Y-21253500D01*
X3550096Y-21203489D01*
X3585665Y-21153990D01*
X3680453Y-21022077D01*
X3681776Y-21023028D01*
X3728645Y-20979857D01*
X3798580Y-20967625D01*
X3864026Y-20995144D01*
X3891875Y-21026994D01*
X3951987Y-21125088D01*
X4098250Y-21293938D01*
X4270126Y-21436632D01*
X4463000Y-21549338D01*
X4671692Y-21629030D01*
X4676760Y-21630061D01*
X4676763Y-21630062D01*
X4779559Y-21650976D01*
X4890597Y-21673567D01*
X4895772Y-21673757D01*
X4895774Y-21673757D01*
X5108673Y-21681564D01*
X5108677Y-21681564D01*
X5113837Y-21681753D01*
X5118957Y-21681097D01*
X5118959Y-21681097D01*
X5330288Y-21654025D01*
X5330289Y-21654025D01*
X5335416Y-21653368D01*
X5362128Y-21645354D01*
X5544429Y-21590661D01*
X5544434Y-21590659D01*
X5549384Y-21589174D01*
X5749994Y-21490896D01*
X5931860Y-21361173D01*
X6040091Y-21253319D01*
X6102462Y-21219404D01*
X6173268Y-21224592D01*
X6230030Y-21267238D01*
X6247012Y-21298341D01*
X6269201Y-21357529D01*
X6291385Y-21416705D01*
X6378739Y-21533261D01*
X6495295Y-21620615D01*
X6631684Y-21671745D01*
X6693866Y-21678500D01*
X8490134Y-21678500D01*
X8552316Y-21671745D01*
X8688705Y-21620615D01*
X8805261Y-21533261D01*
X8892615Y-21416705D01*
X8943745Y-21280316D01*
X8950500Y-21218134D01*
X8950500Y-19529812D01*
X8970502Y-19461691D01*
X9024158Y-19415198D01*
X9094432Y-19405094D01*
X9112179Y-19409221D01*
G37*
%TD.AperFunction*%
%TA.AperFunction,Conductor*%
G36*
X37022310Y-1891991D02*
G01*
X37068803Y-1945647D01*
X37080189Y-1997989D01*
X37080189Y-5922339D01*
X37060187Y-5990460D01*
X37043284Y-6011434D01*
X30867884Y-12186834D01*
X30859104Y-12194824D01*
X30859102Y-12194826D01*
X30852409Y-12199073D01*
X30846983Y-12204851D01*
X30846982Y-12204852D01*
X30803885Y-12250746D01*
X30801130Y-12253588D01*
X30780562Y-12274156D01*
X30777845Y-12277659D01*
X30770137Y-12286684D01*
X30738517Y-12320356D01*
X30734696Y-12327307D01*
X30734695Y-12327308D01*
X30728186Y-12339147D01*
X30717332Y-12355671D01*
X30709507Y-12365760D01*
X30704185Y-12372621D01*
X30701038Y-12379893D01*
X30701037Y-12379895D01*
X30685835Y-12415024D01*
X30680613Y-12425684D01*
X30665133Y-12453842D01*
X30658365Y-12466152D01*
X30653030Y-12486930D01*
X30646631Y-12505620D01*
X30638109Y-12525313D01*
X30634918Y-12545461D01*
X30630883Y-12570937D01*
X30628476Y-12582560D01*
X30624753Y-12597062D01*
X30616989Y-12627301D01*
X30616989Y-12648748D01*
X30615438Y-12668458D01*
X30612083Y-12689641D01*
X30615653Y-12727402D01*
X30616430Y-12735627D01*
X30616989Y-12747485D01*
X30616989Y-13482281D01*
X30596987Y-13550402D01*
X30543331Y-13596895D01*
X30476997Y-13606433D01*
X30476940Y-13607233D01*
X30473262Y-13606970D01*
X30473061Y-13606999D01*
X30468000Y-13606271D01*
X30006953Y-13606271D01*
X30006953Y-13606273D01*
X30003985Y-13606682D01*
X29907562Y-13605503D01*
X29903277Y-13606063D01*
X29896240Y-13606271D01*
X29506953Y-13606271D01*
X29506953Y-13606273D01*
X29503985Y-13606682D01*
X29407562Y-13605503D01*
X29403277Y-13606063D01*
X29396240Y-13606271D01*
X28968000Y-13606271D01*
X28929816Y-13609002D01*
X28899377Y-13611179D01*
X28890388Y-13611500D01*
X24871247Y-13611500D01*
X24803126Y-13591498D01*
X24756633Y-13537842D01*
X24747668Y-13510080D01*
X24738536Y-13464169D01*
X24738132Y-13462138D01*
X24737602Y-13460158D01*
X24737598Y-13460143D01*
X24730151Y-13432353D01*
X24729619Y-13430366D01*
X24708027Y-13366757D01*
X24704494Y-13358226D01*
X24692384Y-13328992D01*
X24670773Y-13276818D01*
X24654821Y-13244472D01*
X24641972Y-13218416D01*
X24641970Y-13218412D01*
X24641061Y-13216569D01*
X24624614Y-13188083D01*
X24623482Y-13186389D01*
X24623474Y-13186376D01*
X24588439Y-13133944D01*
X24588438Y-13133942D01*
X24587301Y-13132241D01*
X24545468Y-13077723D01*
X24529289Y-13056638D01*
X24529285Y-13056633D01*
X24528038Y-13055008D01*
X24509948Y-13034381D01*
X24485107Y-13006055D01*
X24485102Y-13006050D01*
X24483750Y-13004508D01*
X24460492Y-12981250D01*
X24457324Y-12978471D01*
X24411536Y-12938316D01*
X24411535Y-12938315D01*
X24409992Y-12936962D01*
X24405533Y-12933540D01*
X24339448Y-12882832D01*
X24332759Y-12877699D01*
X24331056Y-12876561D01*
X24278624Y-12841526D01*
X24278611Y-12841518D01*
X24276917Y-12840386D01*
X24253733Y-12827000D01*
X24250219Y-12824971D01*
X24250211Y-12824967D01*
X24248431Y-12823939D01*
X24188182Y-12794227D01*
X24126149Y-12768532D01*
X24100158Y-12757766D01*
X24100152Y-12757764D01*
X24098243Y-12756973D01*
X24034634Y-12735381D01*
X24020877Y-12731695D01*
X24004857Y-12727402D01*
X24004842Y-12727398D01*
X24002862Y-12726868D01*
X24000836Y-12726465D01*
X23939001Y-12714165D01*
X23938995Y-12714164D01*
X23936989Y-12713765D01*
X23832214Y-12699971D01*
X23831172Y-12699868D01*
X23831160Y-12699867D01*
X23820588Y-12698826D01*
X23798775Y-12696678D01*
X23797750Y-12696611D01*
X23797728Y-12696609D01*
X23783399Y-12695670D01*
X23783391Y-12695670D01*
X23782329Y-12695600D01*
X23748742Y-12694500D01*
X23491350Y-12694500D01*
X23423229Y-12674498D01*
X23376736Y-12620842D01*
X23366632Y-12550568D01*
X23396126Y-12485988D01*
X23402255Y-12479405D01*
X23877205Y-12004455D01*
X23885985Y-11996465D01*
X23885987Y-11996463D01*
X23892680Y-11992216D01*
X23941205Y-11940542D01*
X23943959Y-11937701D01*
X23964527Y-11917133D01*
X23967247Y-11913626D01*
X23974953Y-11904604D01*
X23980201Y-11899015D01*
X24006572Y-11870933D01*
X24010394Y-11863981D01*
X24016903Y-11852142D01*
X24027757Y-11835618D01*
X24036045Y-11824932D01*
X24040904Y-11818668D01*
X24044050Y-11811397D01*
X24048090Y-11804567D01*
X24049790Y-11805572D01*
X24088489Y-11759057D01*
X24156195Y-11737692D01*
X24224703Y-11756324D01*
X24272263Y-11809036D01*
X24278247Y-11823791D01*
X24289588Y-11857784D01*
X24295761Y-11870962D01*
X24381063Y-12008807D01*
X24390099Y-12020208D01*
X24504829Y-12134739D01*
X24516240Y-12143751D01*
X24654243Y-12228816D01*
X24667424Y-12234963D01*
X24821710Y-12286138D01*
X24835086Y-12289005D01*
X24929438Y-12298672D01*
X24935854Y-12299000D01*
X26660885Y-12299000D01*
X26676124Y-12294525D01*
X26677329Y-12293135D01*
X26679000Y-12285452D01*
X26679000Y-12280884D01*
X27187000Y-12280884D01*
X27191475Y-12296123D01*
X27192865Y-12297328D01*
X27200548Y-12298999D01*
X28930095Y-12298999D01*
X28936614Y-12298662D01*
X29032206Y-12288743D01*
X29045600Y-12285851D01*
X29199784Y-12234412D01*
X29212962Y-12228239D01*
X29350807Y-12142937D01*
X29362208Y-12133901D01*
X29476739Y-12019171D01*
X29485751Y-12007760D01*
X29570816Y-11869757D01*
X29576963Y-11856576D01*
X29628138Y-11702290D01*
X29631005Y-11688914D01*
X29640672Y-11594562D01*
X29641000Y-11588146D01*
X29641000Y-10813115D01*
X29636525Y-10797876D01*
X29635135Y-10796671D01*
X29627452Y-10795000D01*
X27205115Y-10795000D01*
X27189876Y-10799475D01*
X27188671Y-10800865D01*
X27187000Y-10808548D01*
X27187000Y-12280884D01*
X26679000Y-12280884D01*
X26679000Y-10268885D01*
X27187000Y-10268885D01*
X27191475Y-10284124D01*
X27192865Y-10285329D01*
X27200548Y-10287000D01*
X29622884Y-10287000D01*
X29638123Y-10282525D01*
X29639328Y-10281135D01*
X29640999Y-10273452D01*
X29640999Y-9493905D01*
X29640662Y-9487386D01*
X29630743Y-9391794D01*
X29627851Y-9378400D01*
X29576412Y-9224216D01*
X29570239Y-9211038D01*
X29484937Y-9073193D01*
X29475901Y-9061792D01*
X29361171Y-8947261D01*
X29349760Y-8938249D01*
X29211757Y-8853184D01*
X29198576Y-8847037D01*
X29044290Y-8795862D01*
X29030914Y-8792995D01*
X28936562Y-8783328D01*
X28930145Y-8783000D01*
X27205115Y-8783000D01*
X27189876Y-8787475D01*
X27188671Y-8788865D01*
X27187000Y-8796548D01*
X27187000Y-10268885D01*
X26679000Y-10268885D01*
X26679000Y-8801116D01*
X26674525Y-8785877D01*
X26673135Y-8784672D01*
X26665452Y-8783001D01*
X25320049Y-8783001D01*
X25251928Y-8762999D01*
X25205435Y-8709343D01*
X25195331Y-8639069D01*
X25224825Y-8574489D01*
X25230954Y-8567906D01*
X25674455Y-8124405D01*
X25736767Y-8090379D01*
X25763550Y-8087500D01*
X29101290Y-8087500D01*
X29169411Y-8107502D01*
X29190385Y-8124405D01*
X29256619Y-8190639D01*
X29403301Y-8279472D01*
X29410548Y-8281743D01*
X29410550Y-8281744D01*
X29476836Y-8302517D01*
X29566938Y-8330753D01*
X29640365Y-8337500D01*
X29643263Y-8337500D01*
X29972860Y-8337499D01*
X30303634Y-8337499D01*
X30306492Y-8337236D01*
X30306501Y-8337236D01*
X30342004Y-8333974D01*
X30377062Y-8330753D01*
X30383447Y-8328752D01*
X30533450Y-8281744D01*
X30533452Y-8281743D01*
X30540699Y-8279472D01*
X30687381Y-8190639D01*
X30808639Y-8069381D01*
X30897472Y-7922699D01*
X30948753Y-7759062D01*
X30955500Y-7685635D01*
X30955499Y-7172366D01*
X30948753Y-7098938D01*
X30902476Y-6951268D01*
X30899744Y-6942550D01*
X30899743Y-6942548D01*
X30897472Y-6935301D01*
X30808639Y-6788619D01*
X30772615Y-6752595D01*
X30738589Y-6690283D01*
X30743654Y-6619468D01*
X30786201Y-6562632D01*
X30852721Y-6537821D01*
X30861710Y-6537500D01*
X31298930Y-6537500D01*
X31317880Y-6538933D01*
X31332115Y-6541099D01*
X31332119Y-6541099D01*
X31339349Y-6542199D01*
X31346641Y-6541606D01*
X31346644Y-6541606D01*
X31392018Y-6537915D01*
X31402233Y-6537500D01*
X31410293Y-6537500D01*
X31423583Y-6535951D01*
X31438507Y-6534211D01*
X31442882Y-6533778D01*
X31508339Y-6528454D01*
X31508342Y-6528453D01*
X31515637Y-6527860D01*
X31522601Y-6525604D01*
X31528560Y-6524413D01*
X31534415Y-6523029D01*
X31541681Y-6522182D01*
X31610327Y-6497265D01*
X31614455Y-6495848D01*
X31676936Y-6475607D01*
X31676938Y-6475606D01*
X31683899Y-6473351D01*
X31690154Y-6469555D01*
X31695628Y-6467049D01*
X31701058Y-6464330D01*
X31707937Y-6461833D01*
X31768976Y-6421814D01*
X31772680Y-6419477D01*
X31835107Y-6381595D01*
X31843484Y-6374197D01*
X31843508Y-6374224D01*
X31846500Y-6371571D01*
X31849733Y-6368868D01*
X31855852Y-6364856D01*
X31909128Y-6308617D01*
X31911506Y-6306175D01*
X32166276Y-6051405D01*
X32228588Y-6017379D01*
X32255371Y-6014500D01*
X33577134Y-6014500D01*
X33639316Y-6007745D01*
X33775705Y-5956615D01*
X33833852Y-5913036D01*
X33900358Y-5888188D01*
X33969741Y-5903241D01*
X33984982Y-5913036D01*
X34035352Y-5950786D01*
X34050946Y-5959324D01*
X34171394Y-6004478D01*
X34186649Y-6008105D01*
X34237514Y-6013631D01*
X34244328Y-6014000D01*
X34906885Y-6014000D01*
X34922124Y-6009525D01*
X34923329Y-6008135D01*
X34925000Y-6000452D01*
X34925000Y-5995884D01*
X35433000Y-5995884D01*
X35437475Y-6011123D01*
X35438865Y-6012328D01*
X35446548Y-6013999D01*
X36113669Y-6013999D01*
X36120490Y-6013629D01*
X36171352Y-6008105D01*
X36186604Y-6004479D01*
X36307054Y-5959324D01*
X36322649Y-5950786D01*
X36424724Y-5874285D01*
X36437285Y-5861724D01*
X36513786Y-5759649D01*
X36522324Y-5744054D01*
X36567478Y-5623606D01*
X36571105Y-5608351D01*
X36576631Y-5557486D01*
X36577000Y-5550672D01*
X36577000Y-4778115D01*
X36572525Y-4762876D01*
X36571135Y-4761671D01*
X36563452Y-4760000D01*
X35451115Y-4760000D01*
X35435876Y-4764475D01*
X35434671Y-4765865D01*
X35433000Y-4773548D01*
X35433000Y-5995884D01*
X34925000Y-5995884D01*
X34925000Y-4233885D01*
X35433000Y-4233885D01*
X35437475Y-4249124D01*
X35438865Y-4250329D01*
X35446548Y-4252000D01*
X36558884Y-4252000D01*
X36574123Y-4247525D01*
X36575328Y-4246135D01*
X36576999Y-4238452D01*
X36576999Y-3461331D01*
X36576629Y-3454510D01*
X36571105Y-3403648D01*
X36567479Y-3388396D01*
X36522324Y-3267946D01*
X36513786Y-3252351D01*
X36437285Y-3150276D01*
X36424724Y-3137715D01*
X36322649Y-3061214D01*
X36307054Y-3052676D01*
X36186606Y-3007522D01*
X36171351Y-3003895D01*
X36120486Y-2998369D01*
X36113672Y-2998000D01*
X35451115Y-2998000D01*
X35435876Y-3002475D01*
X35434671Y-3003865D01*
X35433000Y-3011548D01*
X35433000Y-4233885D01*
X34925000Y-4233885D01*
X34925000Y-3016116D01*
X34920525Y-3000877D01*
X34919135Y-2999672D01*
X34911452Y-2998001D01*
X34244331Y-2998001D01*
X34237510Y-2998371D01*
X34186648Y-3003895D01*
X34171396Y-3007521D01*
X34050946Y-3052676D01*
X34035352Y-3061214D01*
X33984982Y-3098964D01*
X33918476Y-3123812D01*
X33849093Y-3108759D01*
X33833852Y-3098964D01*
X33775705Y-3055385D01*
X33639316Y-3004255D01*
X33577134Y-2997500D01*
X31700866Y-2997500D01*
X31638684Y-3004255D01*
X31502295Y-3055385D01*
X31385739Y-3142739D01*
X31298385Y-3259295D01*
X31247255Y-3395684D01*
X31240500Y-3457866D01*
X31240500Y-4779629D01*
X31220498Y-4847750D01*
X31203595Y-4868724D01*
X31088724Y-4983595D01*
X31026412Y-5017621D01*
X30999629Y-5020500D01*
X30727743Y-5020500D01*
X30662472Y-5002276D01*
X30540699Y-4928528D01*
X30533452Y-4926257D01*
X30533450Y-4926256D01*
X30467164Y-4905483D01*
X30377062Y-4877247D01*
X30303635Y-4870500D01*
X30300737Y-4870500D01*
X29971140Y-4870501D01*
X29640366Y-4870501D01*
X29637508Y-4870764D01*
X29637499Y-4870764D01*
X29601996Y-4874026D01*
X29566938Y-4877247D01*
X29560560Y-4879246D01*
X29560559Y-4879246D01*
X29410550Y-4926256D01*
X29410548Y-4926257D01*
X29403301Y-4928528D01*
X29256619Y-5017361D01*
X29135361Y-5138619D01*
X29046528Y-5285301D01*
X28995247Y-5448938D01*
X28988500Y-5522365D01*
X28988501Y-6035634D01*
X28988764Y-6038492D01*
X28988764Y-6038501D01*
X28992026Y-6074004D01*
X28995247Y-6109062D01*
X28997246Y-6115440D01*
X28997246Y-6115441D01*
X29044113Y-6264992D01*
X29046528Y-6272699D01*
X29135361Y-6419381D01*
X29230885Y-6514905D01*
X29264911Y-6577217D01*
X29259846Y-6648032D01*
X29230885Y-6693095D01*
X29190385Y-6733595D01*
X29128073Y-6767621D01*
X29101290Y-6770500D01*
X25520660Y-6770500D01*
X25508803Y-6769941D01*
X25501063Y-6768211D01*
X25493138Y-6768460D01*
X25493137Y-6768460D01*
X25430199Y-6770438D01*
X25426241Y-6770500D01*
X25397168Y-6770500D01*
X25393234Y-6770997D01*
X25393232Y-6770997D01*
X25392789Y-6771053D01*
X25380954Y-6771985D01*
X25348164Y-6773016D01*
X25342689Y-6773188D01*
X25342688Y-6773188D01*
X25334769Y-6773437D01*
X25315044Y-6779168D01*
X25314171Y-6779421D01*
X25294818Y-6783429D01*
X25291343Y-6783868D01*
X25273536Y-6786118D01*
X25266168Y-6789035D01*
X25266165Y-6789036D01*
X25230582Y-6803125D01*
X25219347Y-6806971D01*
X25182616Y-6817642D01*
X25182613Y-6817643D01*
X25175000Y-6819855D01*
X25156535Y-6830775D01*
X25138795Y-6839466D01*
X25118844Y-6847365D01*
X25081474Y-6874516D01*
X25071552Y-6881033D01*
X25038623Y-6900507D01*
X25038619Y-6900510D01*
X25031793Y-6904547D01*
X25016629Y-6919711D01*
X25001596Y-6932551D01*
X24984243Y-6945159D01*
X24954798Y-6980752D01*
X24946808Y-6989532D01*
X23061995Y-8874345D01*
X23053215Y-8882335D01*
X23053213Y-8882337D01*
X23046520Y-8886584D01*
X22998004Y-8938249D01*
X22997996Y-8938257D01*
X22995241Y-8941099D01*
X22974673Y-8961667D01*
X22971956Y-8965170D01*
X22964248Y-8974195D01*
X22932628Y-9007867D01*
X22928807Y-9014818D01*
X22928806Y-9014819D01*
X22922297Y-9026658D01*
X22911443Y-9043182D01*
X22903618Y-9053271D01*
X22898296Y-9060132D01*
X22895149Y-9067404D01*
X22895148Y-9067406D01*
X22879946Y-9102535D01*
X22874724Y-9113195D01*
X22859370Y-9141124D01*
X22852476Y-9153663D01*
X22847141Y-9174441D01*
X22840742Y-9193131D01*
X22832220Y-9212824D01*
X22830980Y-9220655D01*
X22824994Y-9258448D01*
X22822587Y-9270071D01*
X22811100Y-9314812D01*
X22811100Y-9336259D01*
X22809549Y-9355969D01*
X22806194Y-9377152D01*
X22807569Y-9391692D01*
X22810541Y-9423138D01*
X22811100Y-9434996D01*
X22811100Y-11155850D01*
X22791098Y-11223971D01*
X22774195Y-11244945D01*
X21436395Y-12582745D01*
X21427615Y-12590735D01*
X21427613Y-12590737D01*
X21420920Y-12594984D01*
X21415494Y-12600762D01*
X21415493Y-12600763D01*
X21372396Y-12646657D01*
X21369641Y-12649499D01*
X21349073Y-12670067D01*
X21346356Y-12673570D01*
X21338648Y-12682595D01*
X21307028Y-12716267D01*
X21303207Y-12723218D01*
X21303206Y-12723219D01*
X21296697Y-12735058D01*
X21285843Y-12751582D01*
X21282180Y-12756305D01*
X21272696Y-12768532D01*
X21269549Y-12775804D01*
X21269548Y-12775806D01*
X21254346Y-12810935D01*
X21249124Y-12821595D01*
X21238167Y-12841526D01*
X21226876Y-12862063D01*
X21221541Y-12882841D01*
X21215142Y-12901531D01*
X21206620Y-12921224D01*
X21203982Y-12937879D01*
X21199394Y-12966848D01*
X21196987Y-12978471D01*
X21185500Y-13023212D01*
X21185500Y-13044659D01*
X21183949Y-13064369D01*
X21180594Y-13085552D01*
X21181340Y-13093443D01*
X21184941Y-13131538D01*
X21185500Y-13143396D01*
X21185500Y-15804050D01*
X21165498Y-15872171D01*
X21148595Y-15893145D01*
X16909145Y-20132595D01*
X16846833Y-20166621D01*
X16820050Y-20169500D01*
X12008949Y-20169500D01*
X11940828Y-20149498D01*
X11919854Y-20132595D01*
X11132108Y-19344848D01*
X10340970Y-18553710D01*
X10306944Y-18491398D01*
X10304755Y-18477786D01*
X10292232Y-18358636D01*
X10292232Y-18358635D01*
X10291542Y-18352072D01*
X10232527Y-18170444D01*
X10137040Y-18005056D01*
X10052780Y-17911475D01*
X10013675Y-17868045D01*
X10013674Y-17868044D01*
X10009253Y-17863134D01*
X9854752Y-17750882D01*
X9817702Y-17734386D01*
X9763607Y-17688408D01*
X9742957Y-17620482D01*
X9762308Y-17552173D01*
X9815518Y-17505171D01*
X9873268Y-17493854D01*
X9873268Y-17493500D01*
X10420732Y-17493500D01*
X10423978Y-17493163D01*
X10423982Y-17493163D01*
X10458083Y-17489625D01*
X10523019Y-17482887D01*
X10557737Y-17471304D01*
X10678324Y-17431073D01*
X10678326Y-17431072D01*
X10685268Y-17428756D01*
X10830713Y-17338752D01*
X10835886Y-17333570D01*
X10841623Y-17329023D01*
X10843055Y-17330830D01*
X10895575Y-17302098D01*
X10966395Y-17307108D01*
X11002853Y-17330499D01*
X11003683Y-17329448D01*
X11020840Y-17342998D01*
X11153880Y-17425004D01*
X11167061Y-17431151D01*
X11315814Y-17480491D01*
X11329190Y-17483358D01*
X11420097Y-17492672D01*
X11425126Y-17492929D01*
X11440124Y-17488525D01*
X11441329Y-17487135D01*
X11443000Y-17479452D01*
X11443000Y-17474885D01*
X11951000Y-17474885D01*
X11955475Y-17490124D01*
X11956865Y-17491329D01*
X11964548Y-17493000D01*
X11967438Y-17493000D01*
X11973953Y-17492663D01*
X12066057Y-17483106D01*
X12079456Y-17480212D01*
X12228107Y-17430619D01*
X12241286Y-17424445D01*
X12374173Y-17342212D01*
X12385574Y-17333176D01*
X12495986Y-17222571D01*
X12504998Y-17211160D01*
X12587004Y-17078120D01*
X12593151Y-17064939D01*
X12642491Y-16916186D01*
X12645358Y-16902810D01*
X12654672Y-16811903D01*
X12655000Y-16805487D01*
X12655000Y-16782115D01*
X12650525Y-16766876D01*
X12649135Y-16765671D01*
X12641452Y-16764000D01*
X11969115Y-16764000D01*
X11953876Y-16768475D01*
X11952671Y-16769865D01*
X11951000Y-16777548D01*
X11951000Y-17474885D01*
X11443000Y-17474885D01*
X11443000Y-16382000D01*
X11463002Y-16313879D01*
X11516658Y-16267386D01*
X11569000Y-16256000D01*
X12636885Y-16256000D01*
X12652124Y-16251525D01*
X12669976Y-16230923D01*
X12683281Y-16206558D01*
X12745594Y-16172535D01*
X12810051Y-16175422D01*
X12941938Y-16216753D01*
X13015365Y-16223500D01*
X13018263Y-16223500D01*
X13272665Y-16223499D01*
X13528634Y-16223499D01*
X13531492Y-16223236D01*
X13531501Y-16223236D01*
X13568167Y-16219867D01*
X13602062Y-16216753D01*
X13635086Y-16206404D01*
X13758450Y-16167744D01*
X13758452Y-16167743D01*
X13765699Y-16165472D01*
X13912381Y-16076639D01*
X14007905Y-15981115D01*
X14070217Y-15947089D01*
X14141032Y-15952154D01*
X14186095Y-15981115D01*
X14281619Y-16076639D01*
X14428301Y-16165472D01*
X14435548Y-16167743D01*
X14435550Y-16167744D01*
X14460051Y-16175422D01*
X14591938Y-16216753D01*
X14665365Y-16223500D01*
X14668263Y-16223500D01*
X14922665Y-16223499D01*
X15178634Y-16223499D01*
X15181492Y-16223236D01*
X15181501Y-16223236D01*
X15218167Y-16219867D01*
X15252062Y-16216753D01*
X15285086Y-16206404D01*
X15408450Y-16167744D01*
X15408452Y-16167743D01*
X15415699Y-16165472D01*
X15562381Y-16076639D01*
X15603615Y-16035405D01*
X15665927Y-16001379D01*
X15692710Y-15998500D01*
X18779730Y-15998500D01*
X18798680Y-15999933D01*
X18812915Y-16002099D01*
X18812919Y-16002099D01*
X18820149Y-16003199D01*
X18827441Y-16002606D01*
X18827444Y-16002606D01*
X18872818Y-15998915D01*
X18883033Y-15998500D01*
X18891093Y-15998500D01*
X18904383Y-15996951D01*
X18919307Y-15995211D01*
X18923682Y-15994778D01*
X18989139Y-15989454D01*
X18989142Y-15989453D01*
X18996437Y-15988860D01*
X19003401Y-15986604D01*
X19009360Y-15985413D01*
X19015215Y-15984029D01*
X19022481Y-15983182D01*
X19091127Y-15958265D01*
X19095255Y-15956848D01*
X19157736Y-15936607D01*
X19157738Y-15936606D01*
X19164699Y-15934351D01*
X19170954Y-15930555D01*
X19176428Y-15928049D01*
X19181859Y-15925330D01*
X19188737Y-15922833D01*
X19194854Y-15918823D01*
X19194863Y-15918818D01*
X19229295Y-15896243D01*
X19272182Y-15878368D01*
X19311855Y-15869935D01*
X19383088Y-15854794D01*
X19486620Y-15808699D01*
X19551522Y-15779803D01*
X19551524Y-15779802D01*
X19557552Y-15777118D01*
X19590108Y-15753465D01*
X19635345Y-15720598D01*
X19712053Y-15664866D01*
X19722041Y-15653773D01*
X19835421Y-15527852D01*
X19835422Y-15527851D01*
X19839840Y-15522944D01*
X19935327Y-15357556D01*
X19994342Y-15175928D01*
X19998598Y-15135440D01*
X20013614Y-14992565D01*
X20014304Y-14986000D01*
X20001994Y-14868876D01*
X19995032Y-14802635D01*
X19995032Y-14802633D01*
X19994342Y-14796072D01*
X19935327Y-14614444D01*
X19929875Y-14605000D01*
X19881205Y-14520702D01*
X19839840Y-14449056D01*
X19817922Y-14424713D01*
X19716475Y-14312045D01*
X19716474Y-14312044D01*
X19712053Y-14307134D01*
X19557552Y-14194882D01*
X19551524Y-14192198D01*
X19551522Y-14192197D01*
X19389119Y-14119891D01*
X19389118Y-14119891D01*
X19383088Y-14117206D01*
X19289687Y-14097353D01*
X19202744Y-14078872D01*
X19202739Y-14078872D01*
X19196287Y-14077500D01*
X19005313Y-14077500D01*
X18998861Y-14078872D01*
X18998856Y-14078872D01*
X18911912Y-14097353D01*
X18818512Y-14117206D01*
X18812482Y-14119891D01*
X18812481Y-14119891D01*
X18650078Y-14192197D01*
X18650076Y-14192198D01*
X18644048Y-14194882D01*
X18489547Y-14307134D01*
X18485126Y-14312044D01*
X18485125Y-14312045D01*
X18370085Y-14439810D01*
X18309639Y-14477050D01*
X18276449Y-14481500D01*
X15866020Y-14481500D01*
X15797899Y-14461498D01*
X15751406Y-14407842D01*
X15741302Y-14337568D01*
X15758759Y-14289386D01*
X15762003Y-14284123D01*
X15768151Y-14270939D01*
X15817491Y-14122186D01*
X15820358Y-14108810D01*
X15829672Y-14017903D01*
X15830000Y-14011487D01*
X15830000Y-13988115D01*
X15825525Y-13972876D01*
X15824135Y-13971671D01*
X15816452Y-13970000D01*
X14744000Y-13970000D01*
X14675879Y-13949998D01*
X14629386Y-13896342D01*
X14618000Y-13844000D01*
X14618000Y-12789905D01*
X14638002Y-12721784D01*
X14648775Y-12707393D01*
X14666329Y-12687135D01*
X14668000Y-12679452D01*
X14668000Y-9703116D01*
X14663525Y-9687877D01*
X14662135Y-9686672D01*
X14657706Y-9685709D01*
X14598685Y-9691132D01*
X14585649Y-9693743D01*
X14435757Y-9740715D01*
X14422012Y-9746921D01*
X14288426Y-9827824D01*
X14276557Y-9837131D01*
X14186449Y-9927239D01*
X14124137Y-9961265D01*
X14053322Y-9956200D01*
X14008259Y-9927239D01*
X13912381Y-9831361D01*
X13765699Y-9742528D01*
X13758452Y-9740257D01*
X13758450Y-9740256D01*
X13656647Y-9708353D01*
X13602062Y-9691247D01*
X13528635Y-9684500D01*
X13525737Y-9684500D01*
X13272001Y-9684501D01*
X13015366Y-9684501D01*
X12991813Y-9686665D01*
X12980255Y-9687013D01*
X12974328Y-9686074D01*
X12928339Y-9690421D01*
X12916484Y-9690980D01*
X12739187Y-9690980D01*
X12671066Y-9670978D01*
X12656674Y-9660204D01*
X12649135Y-9653671D01*
X12641452Y-9652000D01*
X11569000Y-9652000D01*
X11500879Y-9631998D01*
X11454386Y-9578342D01*
X11443000Y-9526000D01*
X11443000Y-9270000D01*
X11463002Y-9201879D01*
X11516658Y-9155386D01*
X11569000Y-9144000D01*
X12636885Y-9144000D01*
X12652124Y-9139525D01*
X12653329Y-9138135D01*
X12655000Y-9130452D01*
X12655000Y-9102562D01*
X12654663Y-9096047D01*
X12645106Y-9003943D01*
X12642211Y-8990539D01*
X12629479Y-8952377D01*
X12626894Y-8881427D01*
X12663077Y-8820343D01*
X12726541Y-8788518D01*
X12749002Y-8786500D01*
X14014944Y-8786500D01*
X14026800Y-8787059D01*
X14026803Y-8787059D01*
X14034537Y-8788788D01*
X14105369Y-8786562D01*
X14109327Y-8786500D01*
X14138432Y-8786500D01*
X14142832Y-8785944D01*
X14154664Y-8785012D01*
X14200831Y-8783562D01*
X14221421Y-8777580D01*
X14240782Y-8773570D01*
X14247770Y-8772688D01*
X14254204Y-8771875D01*
X14254205Y-8771875D01*
X14262064Y-8770882D01*
X14269429Y-8767966D01*
X14269433Y-8767965D01*
X14305021Y-8753874D01*
X14316231Y-8750035D01*
X14360600Y-8737145D01*
X14379065Y-8726225D01*
X14396805Y-8717534D01*
X14416756Y-8709635D01*
X14454129Y-8682482D01*
X14464048Y-8675967D01*
X14496977Y-8656493D01*
X14496981Y-8656490D01*
X14503807Y-8652453D01*
X14518971Y-8637289D01*
X14534005Y-8624448D01*
X14544943Y-8616501D01*
X14551357Y-8611841D01*
X14580803Y-8576247D01*
X14588792Y-8567468D01*
X15144515Y-8011745D01*
X15206827Y-7977719D01*
X15277642Y-7982784D01*
X15334478Y-8025331D01*
X15359289Y-8091851D01*
X15344198Y-8161225D01*
X15336697Y-8173291D01*
X15316352Y-8202239D01*
X15312419Y-8207534D01*
X15273004Y-8257802D01*
X15269881Y-8264718D01*
X15268497Y-8267004D01*
X15260123Y-8281685D01*
X15258858Y-8284045D01*
X15254490Y-8290259D01*
X15251730Y-8297338D01*
X15251729Y-8297340D01*
X15231278Y-8349795D01*
X15228727Y-8355864D01*
X15202435Y-8414093D01*
X15201051Y-8421560D01*
X15200250Y-8424115D01*
X15195621Y-8440368D01*
X15194958Y-8442948D01*
X15192198Y-8450029D01*
X15191207Y-8457560D01*
X15191206Y-8457562D01*
X15183859Y-8513372D01*
X15182828Y-8519879D01*
X15171184Y-8582706D01*
X15171621Y-8590286D01*
X15171621Y-8590287D01*
X15174771Y-8644912D01*
X15174980Y-8652166D01*
X15174980Y-12044568D01*
X15174688Y-12053138D01*
X15170755Y-12110832D01*
X15172060Y-12118309D01*
X15172060Y-12118311D01*
X15174124Y-12130136D01*
X15176000Y-12151799D01*
X15176000Y-13118095D01*
X15155998Y-13186216D01*
X15145225Y-13200607D01*
X15127671Y-13220865D01*
X15126000Y-13228548D01*
X15126000Y-13443885D01*
X15130475Y-13459124D01*
X15131865Y-13460329D01*
X15139548Y-13462000D01*
X15811885Y-13462000D01*
X15852549Y-13450060D01*
X15869501Y-13439166D01*
X15940498Y-13439168D01*
X15998631Y-13475751D01*
X16025747Y-13505866D01*
X16106247Y-13564353D01*
X16164164Y-13606432D01*
X16180248Y-13618118D01*
X16186276Y-13620802D01*
X16186278Y-13620803D01*
X16281403Y-13663155D01*
X16354712Y-13695794D01*
X16445069Y-13715000D01*
X16535056Y-13734128D01*
X16535061Y-13734128D01*
X16541513Y-13735500D01*
X16732487Y-13735500D01*
X16738939Y-13734128D01*
X16738944Y-13734128D01*
X16828931Y-13715000D01*
X16919288Y-13695794D01*
X16992597Y-13663155D01*
X17087722Y-13620803D01*
X17087724Y-13620802D01*
X17093752Y-13618118D01*
X17109837Y-13606432D01*
X17167753Y-13564353D01*
X17248253Y-13505866D01*
X17314444Y-13432353D01*
X17371621Y-13368852D01*
X17371622Y-13368851D01*
X17376040Y-13363944D01*
X17461127Y-13216569D01*
X17468223Y-13204279D01*
X17468224Y-13204278D01*
X17471527Y-13198556D01*
X17530542Y-13016928D01*
X17531556Y-13007287D01*
X17549814Y-12833565D01*
X17550504Y-12827000D01*
X17544359Y-12768532D01*
X17531232Y-12643635D01*
X17531232Y-12643633D01*
X17530542Y-12637072D01*
X17497540Y-12535502D01*
X17474449Y-12464436D01*
X17472421Y-12393469D01*
X17509084Y-12332671D01*
X17572796Y-12301345D01*
X17594282Y-12299500D01*
X20533400Y-12299500D01*
X20536646Y-12299163D01*
X20536650Y-12299163D01*
X20632308Y-12289238D01*
X20632312Y-12289237D01*
X20639166Y-12288526D01*
X20645702Y-12286345D01*
X20645704Y-12286345D01*
X20777806Y-12242272D01*
X20806946Y-12232550D01*
X20957348Y-12139478D01*
X21082305Y-12014303D01*
X21086338Y-12007760D01*
X21171275Y-11869968D01*
X21171276Y-11869966D01*
X21175115Y-11863738D01*
X21209836Y-11759057D01*
X21228632Y-11702389D01*
X21228632Y-11702387D01*
X21230797Y-11695861D01*
X21232013Y-11684000D01*
X21239723Y-11608741D01*
X21241500Y-11591400D01*
X21241500Y-9490600D01*
X21235114Y-9429053D01*
X21231238Y-9391692D01*
X21231237Y-9391688D01*
X21230526Y-9384834D01*
X21204603Y-9307132D01*
X21176868Y-9224002D01*
X21174550Y-9217054D01*
X21081478Y-9066652D01*
X20956303Y-8941695D01*
X20824026Y-8860158D01*
X20811968Y-8852725D01*
X20811966Y-8852724D01*
X20805738Y-8848885D01*
X20719686Y-8820343D01*
X20644389Y-8795368D01*
X20644387Y-8795368D01*
X20637861Y-8793203D01*
X20631025Y-8792503D01*
X20631022Y-8792502D01*
X20587969Y-8788091D01*
X20533400Y-8782500D01*
X19317500Y-8782500D01*
X19249379Y-8762498D01*
X19202886Y-8708842D01*
X19191500Y-8656500D01*
X19191500Y-7959394D01*
X19192059Y-7947537D01*
X19193789Y-7939797D01*
X19191562Y-7868933D01*
X19191500Y-7864975D01*
X19191500Y-7835902D01*
X19190947Y-7831523D01*
X19190014Y-7819680D01*
X19188812Y-7781423D01*
X19188812Y-7781422D01*
X19188563Y-7773503D01*
X19182579Y-7752905D01*
X19178571Y-7733552D01*
X19178132Y-7730077D01*
X19175882Y-7712270D01*
X19166484Y-7688532D01*
X19158875Y-7669316D01*
X19155029Y-7658081D01*
X19144358Y-7621350D01*
X19144357Y-7621347D01*
X19142145Y-7613734D01*
X19131225Y-7595269D01*
X19122534Y-7577529D01*
X19114635Y-7557578D01*
X19087482Y-7520205D01*
X19080967Y-7510286D01*
X19061493Y-7477357D01*
X19061490Y-7477353D01*
X19057453Y-7470527D01*
X19042289Y-7455363D01*
X19029448Y-7440329D01*
X19021501Y-7429391D01*
X19016841Y-7422977D01*
X18981247Y-7393531D01*
X18972468Y-7385542D01*
X17872820Y-6285894D01*
X17864830Y-6277114D01*
X17864828Y-6277112D01*
X17860581Y-6270419D01*
X17843130Y-6254031D01*
X17808908Y-6221895D01*
X17806066Y-6219140D01*
X17785498Y-6198572D01*
X17781991Y-6195852D01*
X17772969Y-6188146D01*
X17768778Y-6184210D01*
X17739298Y-6156527D01*
X17732346Y-6152705D01*
X17720507Y-6146196D01*
X17703983Y-6135342D01*
X17693297Y-6127054D01*
X17687033Y-6122195D01*
X17679761Y-6119048D01*
X17679759Y-6119047D01*
X17644630Y-6103845D01*
X17633970Y-6098623D01*
X17600449Y-6080194D01*
X17600447Y-6080193D01*
X17593502Y-6076375D01*
X17572724Y-6071040D01*
X17554034Y-6064641D01*
X17534341Y-6056119D01*
X17488717Y-6048893D01*
X17477094Y-6046486D01*
X17449093Y-6039297D01*
X17432353Y-6034999D01*
X17410906Y-6034999D01*
X17391196Y-6033448D01*
X17370013Y-6030093D01*
X17324024Y-6034440D01*
X17312169Y-6034999D01*
X15613560Y-6034999D01*
X15601704Y-6034440D01*
X15593964Y-6032710D01*
X15586038Y-6032959D01*
X15586037Y-6032959D01*
X15523112Y-6034937D01*
X15519154Y-6034999D01*
X15490069Y-6034999D01*
X15486138Y-6035496D01*
X15486131Y-6035496D01*
X15485680Y-6035553D01*
X15473844Y-6036485D01*
X15427670Y-6037937D01*
X15407080Y-6043919D01*
X15387719Y-6047929D01*
X15380731Y-6048811D01*
X15374297Y-6049624D01*
X15374296Y-6049624D01*
X15366437Y-6050617D01*
X15359072Y-6053533D01*
X15359068Y-6053534D01*
X15323480Y-6067625D01*
X15312270Y-6071464D01*
X15267901Y-6084354D01*
X15249436Y-6095274D01*
X15231696Y-6103965D01*
X15211745Y-6111864D01*
X15174375Y-6139015D01*
X15164453Y-6145532D01*
X15131524Y-6165006D01*
X15131520Y-6165009D01*
X15124694Y-6169046D01*
X15109530Y-6184210D01*
X15094497Y-6197050D01*
X15077144Y-6209658D01*
X15067021Y-6221895D01*
X15047699Y-6245251D01*
X15039709Y-6254031D01*
X13861145Y-7432595D01*
X13798833Y-7466621D01*
X13772050Y-7469500D01*
X8624559Y-7469500D01*
X8612703Y-7468941D01*
X8604963Y-7467211D01*
X8597037Y-7467460D01*
X8597036Y-7467460D01*
X8534111Y-7469438D01*
X8530153Y-7469500D01*
X8501068Y-7469500D01*
X8497137Y-7469997D01*
X8497130Y-7469997D01*
X8496679Y-7470054D01*
X8484843Y-7470986D01*
X8438669Y-7472438D01*
X8418079Y-7478420D01*
X8398718Y-7482430D01*
X8391730Y-7483312D01*
X8385296Y-7484125D01*
X8385295Y-7484125D01*
X8377436Y-7485118D01*
X8370071Y-7488034D01*
X8370067Y-7488035D01*
X8334479Y-7502126D01*
X8323269Y-7505965D01*
X8278900Y-7518855D01*
X8260435Y-7529775D01*
X8242695Y-7538466D01*
X8222744Y-7546365D01*
X8207311Y-7557578D01*
X8185374Y-7573516D01*
X8175452Y-7580033D01*
X8142523Y-7599507D01*
X8142519Y-7599510D01*
X8135693Y-7603547D01*
X8120529Y-7618711D01*
X8105496Y-7631551D01*
X8088143Y-7644159D01*
X8058698Y-7679752D01*
X8050708Y-7688532D01*
X7361645Y-8377595D01*
X7299333Y-8411621D01*
X7272550Y-8414500D01*
X7105268Y-8414500D01*
X7102022Y-8414837D01*
X7102018Y-8414837D01*
X7072730Y-8417876D01*
X7002981Y-8425113D01*
X6994963Y-8427788D01*
X6847676Y-8476927D01*
X6847674Y-8476928D01*
X6840732Y-8479244D01*
X6695287Y-8569248D01*
X6690114Y-8574430D01*
X6684377Y-8578977D01*
X6682945Y-8577170D01*
X6630425Y-8605902D01*
X6559605Y-8600892D01*
X6523147Y-8577501D01*
X6522317Y-8578552D01*
X6505160Y-8565002D01*
X6372120Y-8482996D01*
X6358939Y-8476849D01*
X6210186Y-8427509D01*
X6196810Y-8424642D01*
X6105903Y-8415328D01*
X6100874Y-8415071D01*
X6085876Y-8419475D01*
X6084671Y-8420865D01*
X6083000Y-8428548D01*
X6083000Y-9526000D01*
X6062998Y-9594121D01*
X6009342Y-9640614D01*
X5957000Y-9652000D01*
X4889115Y-9652000D01*
X4873876Y-9656475D01*
X4856024Y-9677077D01*
X4842719Y-9701442D01*
X4780406Y-9735465D01*
X4715949Y-9732578D01*
X4584062Y-9691247D01*
X4510635Y-9684500D01*
X4507737Y-9684500D01*
X4253335Y-9684501D01*
X3997366Y-9684501D01*
X3994508Y-9684764D01*
X3994499Y-9684764D01*
X3960619Y-9687877D01*
X3923938Y-9691247D01*
X3917560Y-9693246D01*
X3917559Y-9693246D01*
X3767550Y-9740256D01*
X3767548Y-9740257D01*
X3760301Y-9742528D01*
X3613619Y-9831361D01*
X3518095Y-9926885D01*
X3455783Y-9960911D01*
X3384968Y-9955846D01*
X3339905Y-9926885D01*
X3244381Y-9831361D01*
X3097699Y-9742528D01*
X3090452Y-9740257D01*
X3090450Y-9740256D01*
X2988647Y-9708353D01*
X2934062Y-9691247D01*
X2860635Y-9684500D01*
X2857737Y-9684500D01*
X2603335Y-9684501D01*
X2347366Y-9684501D01*
X2344508Y-9684764D01*
X2344499Y-9684764D01*
X2310619Y-9687877D01*
X2273938Y-9691247D01*
X2267560Y-9693246D01*
X2267559Y-9693246D01*
X2117550Y-9740256D01*
X2117548Y-9740257D01*
X2110301Y-9742528D01*
X1988770Y-9816129D01*
X1920142Y-9834308D01*
X1852578Y-9812498D01*
X1807532Y-9757622D01*
X1797500Y-9708353D01*
X1797500Y-9125885D01*
X4871000Y-9125885D01*
X4875475Y-9141124D01*
X4876865Y-9142329D01*
X4884548Y-9144000D01*
X5556885Y-9144000D01*
X5572124Y-9139525D01*
X5573329Y-9138135D01*
X5575000Y-9130452D01*
X5575000Y-8433115D01*
X5570525Y-8417876D01*
X5569135Y-8416671D01*
X5561452Y-8415000D01*
X5558562Y-8415000D01*
X5552047Y-8415337D01*
X5459943Y-8424894D01*
X5446544Y-8427788D01*
X5297893Y-8477381D01*
X5284714Y-8483555D01*
X5151827Y-8565788D01*
X5140426Y-8574824D01*
X5030014Y-8685429D01*
X5021002Y-8696840D01*
X4938996Y-8829880D01*
X4932849Y-8843061D01*
X4883509Y-8991814D01*
X4880642Y-9005190D01*
X4871328Y-9096097D01*
X4871000Y-9102514D01*
X4871000Y-9125885D01*
X1797500Y-9125885D01*
X1797500Y-6799798D01*
X1817502Y-6731677D01*
X1871158Y-6685184D01*
X1941432Y-6675080D01*
X1997558Y-6697860D01*
X2083248Y-6760118D01*
X2089276Y-6762802D01*
X2089278Y-6762803D01*
X2241940Y-6830772D01*
X2257712Y-6837794D01*
X2324673Y-6852027D01*
X2438056Y-6876128D01*
X2438061Y-6876128D01*
X2444513Y-6877500D01*
X2635487Y-6877500D01*
X2641939Y-6876128D01*
X2641944Y-6876128D01*
X2755327Y-6852027D01*
X2822288Y-6837794D01*
X2838060Y-6830772D01*
X2990722Y-6762803D01*
X2990724Y-6762802D01*
X2996752Y-6760118D01*
X3007107Y-6752595D01*
X3113796Y-6675080D01*
X3151253Y-6647866D01*
X3190750Y-6604000D01*
X3274621Y-6510852D01*
X3274622Y-6510851D01*
X3279040Y-6505944D01*
X3355104Y-6374197D01*
X3371223Y-6346279D01*
X3371224Y-6346278D01*
X3374527Y-6340556D01*
X3429387Y-6171714D01*
X3460125Y-6121556D01*
X3833276Y-5748405D01*
X3895588Y-5714379D01*
X3922371Y-5711500D01*
X4492143Y-5711500D01*
X4560264Y-5731502D01*
X4606757Y-5785158D01*
X4611666Y-5797622D01*
X4619130Y-5819995D01*
X4619133Y-5820002D01*
X4621450Y-5826946D01*
X4714522Y-5977348D01*
X4839697Y-6102305D01*
X4845927Y-6106145D01*
X4845928Y-6106146D01*
X4983950Y-6191224D01*
X4990262Y-6195115D01*
X5034108Y-6209658D01*
X5151611Y-6248632D01*
X5151613Y-6248632D01*
X5158139Y-6250797D01*
X5164975Y-6251497D01*
X5164978Y-6251498D01*
X5208031Y-6255909D01*
X5262600Y-6261500D01*
X7863400Y-6261500D01*
X7866646Y-6261163D01*
X7866650Y-6261163D01*
X7962308Y-6251238D01*
X7962312Y-6251237D01*
X7969166Y-6250526D01*
X7975702Y-6248345D01*
X7975704Y-6248345D01*
X8124891Y-6198572D01*
X8136946Y-6194550D01*
X8287348Y-6101478D01*
X8412305Y-5976303D01*
X8483283Y-5861156D01*
X8501275Y-5831968D01*
X8501276Y-5831966D01*
X8505115Y-5825738D01*
X8539482Y-5722125D01*
X8558632Y-5664389D01*
X8558632Y-5664387D01*
X8560797Y-5657861D01*
X8571500Y-5553400D01*
X8571500Y-4915931D01*
X8591502Y-4847810D01*
X8645158Y-4801317D01*
X8715432Y-4791213D01*
X8780012Y-4820707D01*
X8786595Y-4826836D01*
X8917595Y-4957836D01*
X8951621Y-5020148D01*
X8954500Y-5046931D01*
X8954500Y-5553400D01*
X8954837Y-5556646D01*
X8954837Y-5556650D01*
X8964137Y-5646278D01*
X8965474Y-5659166D01*
X8967655Y-5665702D01*
X8967655Y-5665704D01*
X8995840Y-5750185D01*
X9021450Y-5826946D01*
X9114522Y-5977348D01*
X9239697Y-6102305D01*
X9245927Y-6106145D01*
X9245928Y-6106146D01*
X9383950Y-6191224D01*
X9390262Y-6195115D01*
X9434108Y-6209658D01*
X9551611Y-6248632D01*
X9551613Y-6248632D01*
X9558139Y-6250797D01*
X9564975Y-6251497D01*
X9564978Y-6251498D01*
X9608031Y-6255909D01*
X9662600Y-6261500D01*
X12263400Y-6261500D01*
X12266646Y-6261163D01*
X12266650Y-6261163D01*
X12362308Y-6251238D01*
X12362312Y-6251237D01*
X12369166Y-6250526D01*
X12375702Y-6248345D01*
X12375704Y-6248345D01*
X12524891Y-6198572D01*
X12536946Y-6194550D01*
X12687348Y-6101478D01*
X12812305Y-5976303D01*
X12816146Y-5970072D01*
X12816148Y-5970070D01*
X12846159Y-5921383D01*
X12898931Y-5873890D01*
X12953418Y-5861500D01*
X13507583Y-5861500D01*
X13527292Y-5863051D01*
X13541190Y-5865252D01*
X13547777Y-5864907D01*
X13547782Y-5864907D01*
X13609480Y-5861673D01*
X13616074Y-5861500D01*
X13636610Y-5861500D01*
X13639882Y-5861156D01*
X13639884Y-5861156D01*
X13657042Y-5859353D01*
X13663616Y-5858836D01*
X13725308Y-5855603D01*
X13725312Y-5855602D01*
X13731903Y-5855257D01*
X13738284Y-5853547D01*
X13738286Y-5853547D01*
X13745491Y-5851617D01*
X13764925Y-5848015D01*
X13772354Y-5847234D01*
X13772363Y-5847232D01*
X13778928Y-5846542D01*
X13843997Y-5825400D01*
X13850299Y-5823533D01*
X13916370Y-5805829D01*
X13928908Y-5799440D01*
X13947174Y-5791875D01*
X13954272Y-5789569D01*
X13954274Y-5789568D01*
X13960556Y-5787527D01*
X14019785Y-5753331D01*
X14025579Y-5750185D01*
X14086530Y-5719129D01*
X14097467Y-5710273D01*
X14113763Y-5699073D01*
X14120224Y-5695343D01*
X14120228Y-5695340D01*
X14125944Y-5692040D01*
X14130850Y-5687623D01*
X14130855Y-5687619D01*
X14176769Y-5646278D01*
X14181784Y-5641994D01*
X14195177Y-5631148D01*
X14197741Y-5629072D01*
X14212256Y-5614557D01*
X14217041Y-5610016D01*
X14262957Y-5568673D01*
X14267866Y-5564253D01*
X14276140Y-5552865D01*
X14288981Y-5537832D01*
X16468408Y-3358405D01*
X16530720Y-3324379D01*
X16557503Y-3321500D01*
X24659812Y-3321500D01*
X24727933Y-3341502D01*
X24748907Y-3358405D01*
X24809700Y-3419198D01*
X24814208Y-3422355D01*
X24814211Y-3422357D01*
X24864923Y-3457866D01*
X24997251Y-3550523D01*
X25002233Y-3552846D01*
X25002238Y-3552849D01*
X25199775Y-3644961D01*
X25204757Y-3647284D01*
X25210065Y-3648706D01*
X25210067Y-3648707D01*
X25420598Y-3705119D01*
X25420600Y-3705119D01*
X25425913Y-3706543D01*
X25654000Y-3726498D01*
X25882087Y-3706543D01*
X25887400Y-3705119D01*
X25887402Y-3705119D01*
X26097933Y-3648707D01*
X26097935Y-3648706D01*
X26103243Y-3647284D01*
X26108225Y-3644961D01*
X26305762Y-3552849D01*
X26305767Y-3552846D01*
X26310749Y-3550523D01*
X26443077Y-3457866D01*
X26493789Y-3422357D01*
X26493792Y-3422355D01*
X26498300Y-3419198D01*
X26660198Y-3257300D01*
X26663664Y-3252351D01*
X26740415Y-3142739D01*
X26791523Y-3069749D01*
X26793846Y-3064767D01*
X26793849Y-3064762D01*
X26885961Y-2867225D01*
X26885961Y-2867224D01*
X26888284Y-2862243D01*
X26891033Y-2851986D01*
X26946119Y-2646402D01*
X26946119Y-2646400D01*
X26947543Y-2641087D01*
X26967498Y-2413000D01*
X26947543Y-2184913D01*
X26919566Y-2080501D01*
X26906195Y-2030600D01*
X26907885Y-1959624D01*
X26947679Y-1900828D01*
X27012943Y-1872880D01*
X27027902Y-1871989D01*
X36954189Y-1871989D01*
X37022310Y-1891991D01*
G37*
%TD.AperFunction*%
%TA.AperFunction,Conductor*%
G36*
X2800121Y-13609002D02*
G01*
X2846614Y-13662658D01*
X2858000Y-13715000D01*
X2858000Y-14325885D01*
X2862474Y-14341124D01*
X2864512Y-14342889D01*
X2902896Y-14402615D01*
X2908000Y-14438114D01*
X2908000Y-16331885D01*
X2912475Y-16347124D01*
X2913865Y-16348329D01*
X2921548Y-16350000D01*
X2924438Y-16350000D01*
X2930953Y-16349663D01*
X3023057Y-16340106D01*
X3036456Y-16337212D01*
X3185107Y-16287619D01*
X3198286Y-16281445D01*
X3331173Y-16199212D01*
X3348311Y-16185629D01*
X3349841Y-16187559D01*
X3401880Y-16159097D01*
X3472699Y-16164113D01*
X3509617Y-16187799D01*
X3510372Y-16186843D01*
X3516118Y-16191381D01*
X3521298Y-16196552D01*
X3527528Y-16200392D01*
X3527529Y-16200393D01*
X3659020Y-16281445D01*
X3666899Y-16286302D01*
X3829243Y-16340149D01*
X3836080Y-16340849D01*
X3836082Y-16340850D01*
X3877401Y-16345083D01*
X3930268Y-16350500D01*
X4477732Y-16350500D01*
X4480978Y-16350163D01*
X4480982Y-16350163D01*
X4515083Y-16346625D01*
X4580019Y-16339887D01*
X4704625Y-16298315D01*
X4775573Y-16295729D01*
X4836657Y-16331913D01*
X4868482Y-16395377D01*
X4870500Y-16417837D01*
X4870501Y-16655782D01*
X4850499Y-16723903D01*
X4796844Y-16770396D01*
X4726570Y-16780501D01*
X4679230Y-16763559D01*
X4626992Y-16731923D01*
X4613243Y-16725715D01*
X4463356Y-16678744D01*
X4450306Y-16676131D01*
X4395414Y-16671087D01*
X4383876Y-16674475D01*
X4382671Y-16675865D01*
X4381000Y-16683548D01*
X4381000Y-17380885D01*
X4385475Y-17396124D01*
X4386865Y-17397329D01*
X4394548Y-17399000D01*
X5016884Y-17399000D01*
X5040519Y-17392060D01*
X5086121Y-17362753D01*
X5157117Y-17362753D01*
X5186890Y-17375873D01*
X5277591Y-17430803D01*
X5285301Y-17435472D01*
X5292548Y-17437743D01*
X5292550Y-17437744D01*
X5358836Y-17458517D01*
X5448938Y-17486753D01*
X5522365Y-17493500D01*
X5525263Y-17493500D01*
X5779665Y-17493499D01*
X6035634Y-17493499D01*
X6038492Y-17493236D01*
X6038501Y-17493236D01*
X6074004Y-17489974D01*
X6109062Y-17486753D01*
X6119130Y-17483598D01*
X6265450Y-17437744D01*
X6265452Y-17437743D01*
X6272699Y-17435472D01*
X6419381Y-17346639D01*
X6514905Y-17251115D01*
X6577217Y-17217089D01*
X6648032Y-17222154D01*
X6693095Y-17251115D01*
X6788619Y-17346639D01*
X6935301Y-17435472D01*
X6942548Y-17437743D01*
X6942550Y-17437744D01*
X7008836Y-17458517D01*
X7098938Y-17486753D01*
X7172365Y-17493500D01*
X7175263Y-17493500D01*
X7429665Y-17493499D01*
X7685634Y-17493499D01*
X7688492Y-17493236D01*
X7688501Y-17493236D01*
X7724004Y-17489974D01*
X7759062Y-17486753D01*
X7769130Y-17483598D01*
X7915450Y-17437744D01*
X7915452Y-17437743D01*
X7922699Y-17435472D01*
X8069381Y-17346639D01*
X8083615Y-17332405D01*
X8145927Y-17298379D01*
X8172710Y-17295500D01*
X8247276Y-17295500D01*
X8315397Y-17315502D01*
X8321337Y-17319564D01*
X8430671Y-17399000D01*
X8470748Y-17428118D01*
X8476776Y-17430802D01*
X8476778Y-17430803D01*
X8617599Y-17493500D01*
X8645212Y-17505794D01*
X8738613Y-17525647D01*
X8825556Y-17544128D01*
X8825561Y-17544128D01*
X8832013Y-17545500D01*
X8838615Y-17545500D01*
X8845182Y-17546190D01*
X8844982Y-17548095D01*
X8904265Y-17565502D01*
X8950758Y-17619158D01*
X8960862Y-17689432D01*
X8931368Y-17754012D01*
X8910205Y-17773436D01*
X8786747Y-17863134D01*
X8782326Y-17868044D01*
X8782325Y-17868045D01*
X8743221Y-17911475D01*
X8658960Y-18005056D01*
X8563473Y-18170444D01*
X8504458Y-18352072D01*
X8503768Y-18358633D01*
X8503768Y-18358635D01*
X8488067Y-18508028D01*
X8484496Y-18542000D01*
X8504458Y-18731928D01*
X8525460Y-18796565D01*
X8527488Y-18867531D01*
X8490826Y-18928329D01*
X8427114Y-18959654D01*
X8405627Y-18961500D01*
X6693866Y-18961500D01*
X6631684Y-18968255D01*
X6495295Y-19019385D01*
X6378739Y-19106739D01*
X6291385Y-19223295D01*
X6288233Y-19231703D01*
X6246919Y-19341907D01*
X6204277Y-19398671D01*
X6137716Y-19423371D01*
X6068367Y-19408163D01*
X6035743Y-19382476D01*
X5985151Y-19326875D01*
X5985142Y-19326866D01*
X5981670Y-19323051D01*
X5977619Y-19319852D01*
X5977615Y-19319848D01*
X5810414Y-19187800D01*
X5810410Y-19187798D01*
X5806359Y-19184598D01*
X5610789Y-19076638D01*
X5605920Y-19074914D01*
X5605916Y-19074912D01*
X5405087Y-19003795D01*
X5405083Y-19003794D01*
X5400212Y-19002069D01*
X5395119Y-19001162D01*
X5395116Y-19001161D01*
X5185373Y-18963800D01*
X5185367Y-18963799D01*
X5180284Y-18962894D01*
X5106452Y-18961992D01*
X4962081Y-18960228D01*
X4962079Y-18960228D01*
X4956911Y-18960165D01*
X4736091Y-18993955D01*
X4523756Y-19063357D01*
X4325607Y-19166507D01*
X4321474Y-19169610D01*
X4321471Y-19169612D01*
X4202942Y-19258606D01*
X4146965Y-19300635D01*
X4107525Y-19341907D01*
X4003751Y-19450500D01*
X3992629Y-19462138D01*
X3885201Y-19619621D01*
X3830293Y-19664621D01*
X3759768Y-19672792D01*
X3696021Y-19641538D01*
X3675324Y-19617054D01*
X3594822Y-19492617D01*
X3594820Y-19492614D01*
X3592014Y-19488277D01*
X3441670Y-19323051D01*
X3437612Y-19319846D01*
X3433406Y-19316524D01*
X3392344Y-19258606D01*
X3385500Y-19217644D01*
X3385500Y-18651428D01*
X3405502Y-18583307D01*
X3459158Y-18536814D01*
X3529432Y-18526710D01*
X3576772Y-18543652D01*
X3627013Y-18574079D01*
X3640757Y-18580285D01*
X3790644Y-18627256D01*
X3803694Y-18629869D01*
X3858586Y-18634913D01*
X3870124Y-18631525D01*
X3871329Y-18630135D01*
X3873000Y-18622452D01*
X3873000Y-18617884D01*
X4381000Y-18617884D01*
X4385475Y-18633123D01*
X4386865Y-18634328D01*
X4391294Y-18635291D01*
X4450315Y-18629868D01*
X4463351Y-18627257D01*
X4613243Y-18580285D01*
X4626988Y-18574079D01*
X4760574Y-18493176D01*
X4772443Y-18483869D01*
X4882869Y-18373443D01*
X4892176Y-18361574D01*
X4973079Y-18227988D01*
X4979285Y-18214243D01*
X5026256Y-18064356D01*
X5028869Y-18051306D01*
X5034734Y-17987479D01*
X5035000Y-17981691D01*
X5035000Y-17925115D01*
X5030525Y-17909876D01*
X5029135Y-17908671D01*
X5021452Y-17907000D01*
X4399115Y-17907000D01*
X4383876Y-17911475D01*
X4382671Y-17912865D01*
X4381000Y-17920548D01*
X4381000Y-18617884D01*
X3873000Y-18617884D01*
X3873000Y-16688116D01*
X3868525Y-16672877D01*
X3867135Y-16671672D01*
X3862706Y-16670709D01*
X3803685Y-16676132D01*
X3790649Y-16678743D01*
X3640757Y-16725715D01*
X3627012Y-16731921D01*
X3493426Y-16812824D01*
X3481557Y-16822131D01*
X3391449Y-16912239D01*
X3329137Y-16946265D01*
X3258322Y-16941200D01*
X3213259Y-16912239D01*
X3117381Y-16816361D01*
X2970699Y-16727528D01*
X2963452Y-16725257D01*
X2963450Y-16725256D01*
X2886396Y-16701109D01*
X2807062Y-16676247D01*
X2733635Y-16669500D01*
X2730737Y-16669500D01*
X2476335Y-16669501D01*
X2220366Y-16669501D01*
X2217508Y-16669764D01*
X2217499Y-16669764D01*
X2184468Y-16672799D01*
X2146938Y-16676247D01*
X2140560Y-16678246D01*
X2140559Y-16678246D01*
X2109064Y-16688116D01*
X1983301Y-16727528D01*
X1976802Y-16731464D01*
X1975349Y-16732120D01*
X1905032Y-16741921D01*
X1840579Y-16712151D01*
X1802452Y-16652260D01*
X1797500Y-16617282D01*
X1797500Y-16314517D01*
X1817502Y-16246396D01*
X1871158Y-16199903D01*
X1941432Y-16189799D01*
X1989616Y-16207257D01*
X2110880Y-16282004D01*
X2124061Y-16288151D01*
X2272814Y-16337491D01*
X2286190Y-16340358D01*
X2377097Y-16349672D01*
X2382126Y-16349929D01*
X2397124Y-16345525D01*
X2398329Y-16344135D01*
X2400000Y-16336452D01*
X2400000Y-14884115D01*
X2395526Y-14868876D01*
X2393488Y-14867111D01*
X2355104Y-14807385D01*
X2350000Y-14771886D01*
X2350000Y-13715000D01*
X2370002Y-13646879D01*
X2423658Y-13600386D01*
X2476000Y-13589000D01*
X2732000Y-13589000D01*
X2800121Y-13609002D01*
G37*
%TD.AperFunction*%
%TA.AperFunction,Conductor*%
G36*
X9522070Y-12890363D02*
G01*
X9564338Y-12908654D01*
X9574983Y-12913869D01*
X9615465Y-12936124D01*
X9623139Y-12938094D01*
X9623146Y-12938097D01*
X9636228Y-12941455D01*
X9654936Y-12947860D01*
X9674625Y-12956380D01*
X9682451Y-12957619D01*
X9682453Y-12957620D01*
X9699414Y-12960306D01*
X9720261Y-12963608D01*
X9731870Y-12966012D01*
X9739342Y-12967930D01*
X9800343Y-13004249D01*
X9832026Y-13067784D01*
X9824330Y-13138363D01*
X9816453Y-13154097D01*
X9803855Y-13175399D01*
X9801644Y-13183010D01*
X9801643Y-13183012D01*
X9790646Y-13220865D01*
X9757438Y-13335169D01*
X9756934Y-13341574D01*
X9756933Y-13341579D01*
X9754952Y-13366757D01*
X9754500Y-13372498D01*
X9754500Y-13805502D01*
X9757438Y-13842831D01*
X9803855Y-14002601D01*
X9807892Y-14009427D01*
X9874578Y-14122186D01*
X9888547Y-14145807D01*
X9891487Y-14148747D01*
X9916820Y-14213266D01*
X9902921Y-14282889D01*
X9890874Y-14301636D01*
X9884910Y-14309324D01*
X9808352Y-14438779D01*
X9802107Y-14453210D01*
X9763061Y-14587605D01*
X9763101Y-14601706D01*
X9770370Y-14605000D01*
X11366000Y-14605000D01*
X11434121Y-14625002D01*
X11480614Y-14678658D01*
X11492000Y-14731000D01*
X11492000Y-14987000D01*
X11471998Y-15055121D01*
X11418342Y-15101614D01*
X11366000Y-15113000D01*
X9776124Y-15113000D01*
X9774523Y-15113470D01*
X9703526Y-15113470D01*
X9649929Y-15081669D01*
X9331405Y-14763145D01*
X9297379Y-14700833D01*
X9294500Y-14674050D01*
X9294500Y-13663155D01*
X9296732Y-13639546D01*
X9296939Y-13638462D01*
X9296939Y-13638460D01*
X9298424Y-13630676D01*
X9294749Y-13572264D01*
X9294500Y-13564353D01*
X9294500Y-13006000D01*
X9314502Y-12937879D01*
X9368158Y-12891386D01*
X9420500Y-12880000D01*
X9472029Y-12880000D01*
X9522070Y-12890363D01*
G37*
%TD.AperFunction*%
%TD*%
M02*
