%TF.GenerationSoftware,KiCad,Pcbnew,(6.0.9)*%
%TF.CreationDate,2022-11-10T15:00:12+05:30*%
%TF.ProjectId,Gate Driver TLP152,47617465-2044-4726-9976-657220544c50,rev?*%
%TF.SameCoordinates,Original*%
%TF.FileFunction,Paste,Bot*%
%TF.FilePolarity,Positive*%
%FSLAX46Y46*%
G04 Gerber Fmt 4.6, Leading zero omitted, Abs format (unit mm)*
G04 Created by KiCad (PCBNEW (6.0.9)) date 2022-11-10 15:00:12*
%MOMM*%
%LPD*%
G01*
G04 APERTURE LIST*
G04 Aperture macros list*
%AMRoundRect*
0 Rectangle with rounded corners*
0 $1 Rounding radius*
0 $2 $3 $4 $5 $6 $7 $8 $9 X,Y pos of 4 corners*
0 Add a 4 corners polygon primitive as box body*
4,1,4,$2,$3,$4,$5,$6,$7,$8,$9,$2,$3,0*
0 Add four circle primitives for the rounded corners*
1,1,$1+$1,$2,$3*
1,1,$1+$1,$4,$5*
1,1,$1+$1,$6,$7*
1,1,$1+$1,$8,$9*
0 Add four rect primitives between the rounded corners*
20,1,$1+$1,$2,$3,$4,$5,0*
20,1,$1+$1,$4,$5,$6,$7,0*
20,1,$1+$1,$6,$7,$8,$9,0*
20,1,$1+$1,$8,$9,$2,$3,0*%
G04 Aperture macros list end*
%ADD10RoundRect,0.225000X-0.225000X-0.250000X0.225000X-0.250000X0.225000X0.250000X-0.225000X0.250000X0*%
%ADD11RoundRect,0.200000X0.200000X0.275000X-0.200000X0.275000X-0.200000X-0.275000X0.200000X-0.275000X0*%
%ADD12RoundRect,0.225000X0.225000X0.250000X-0.225000X0.250000X-0.225000X-0.250000X0.225000X-0.250000X0*%
%ADD13R,1.780000X2.000000*%
%ADD14RoundRect,0.250000X-1.950000X-1.000000X1.950000X-1.000000X1.950000X1.000000X-1.950000X1.000000X0*%
%ADD15RoundRect,0.150000X0.825000X0.150000X-0.825000X0.150000X-0.825000X-0.150000X0.825000X-0.150000X0*%
%ADD16RoundRect,0.200000X-0.200000X-0.275000X0.200000X-0.275000X0.200000X0.275000X-0.200000X0.275000X0*%
%ADD17RoundRect,0.200000X0.275000X-0.200000X0.275000X0.200000X-0.275000X0.200000X-0.275000X-0.200000X0*%
%ADD18RoundRect,0.250000X1.250000X0.550000X-1.250000X0.550000X-1.250000X-0.550000X1.250000X-0.550000X0*%
G04 APERTURE END LIST*
D10*
%TO.C,C5*%
X10147000Y-9398000D03*
X11697000Y-9398000D03*
%TD*%
D11*
%TO.C,R15*%
X7429000Y-16510000D03*
X5779000Y-16510000D03*
%TD*%
%TO.C,R17*%
X4254000Y-13843000D03*
X2604000Y-13843000D03*
%TD*%
D12*
%TO.C,C7*%
X4204000Y-15367000D03*
X2654000Y-15367000D03*
%TD*%
D13*
%TO.C,U2*%
X32639000Y-4506000D03*
X35179000Y-4506000D03*
X35179000Y-14036000D03*
X32639000Y-14036000D03*
%TD*%
D12*
%TO.C,C2*%
X7379000Y-9398000D03*
X5829000Y-9398000D03*
%TD*%
D10*
%TO.C,C4*%
X13322000Y-13716000D03*
X14872000Y-13716000D03*
%TD*%
D14*
%TO.C,C3*%
X18533000Y-10541000D03*
X26933000Y-10541000D03*
%TD*%
D15*
%TO.C,U1*%
X11238000Y-11049000D03*
X11238000Y-12319000D03*
X11238000Y-13589000D03*
X11238000Y-14859000D03*
X6288000Y-14859000D03*
X6288000Y-13589000D03*
X6288000Y-12319000D03*
X6288000Y-11049000D03*
%TD*%
D16*
%TO.C,R18*%
X2604000Y-10668000D03*
X4254000Y-10668000D03*
%TD*%
%TO.C,R10*%
X13272000Y-12192000D03*
X14922000Y-12192000D03*
%TD*%
%TO.C,R8*%
X13272000Y-10668000D03*
X14922000Y-10668000D03*
%TD*%
D11*
%TO.C,R12*%
X4127000Y-17653000D03*
X2477000Y-17653000D03*
%TD*%
D17*
%TO.C,R20*%
X29972000Y-7429000D03*
X29972000Y-5779000D03*
%TD*%
D18*
%TO.C,C1*%
X10963000Y-4953000D03*
X6563000Y-4953000D03*
%TD*%
D11*
%TO.C,R9*%
X14922000Y-15240000D03*
X13272000Y-15240000D03*
%TD*%
%TO.C,R16*%
X4254000Y-12319000D03*
X2604000Y-12319000D03*
%TD*%
D10*
%TO.C,C6*%
X10147000Y-16510000D03*
X11697000Y-16510000D03*
%TD*%
M02*
