%TF.GenerationSoftware,KiCad,Pcbnew,(6.0.9)*%
%TF.CreationDate,2022-11-10T15:00:12+05:30*%
%TF.ProjectId,Gate Driver TLP152,47617465-2044-4726-9976-657220544c50,rev?*%
%TF.SameCoordinates,Original*%
%TF.FileFunction,Legend,Bot*%
%TF.FilePolarity,Positive*%
%FSLAX46Y46*%
G04 Gerber Fmt 4.6, Leading zero omitted, Abs format (unit mm)*
G04 Created by KiCad (PCBNEW (6.0.9)) date 2022-11-10 15:00:12*
%MOMM*%
%LPD*%
G01*
G04 APERTURE LIST*
%ADD10C,0.150000*%
%ADD11C,0.120000*%
G04 APERTURE END LIST*
D10*
X39305523Y-1341380D02*
X39305523Y-341380D01*
X38876952Y-1341380D02*
X38876952Y-817571D01*
X38924571Y-722333D01*
X39019809Y-674714D01*
X39162666Y-674714D01*
X39257904Y-722333D01*
X39305523Y-769952D01*
X38543619Y-674714D02*
X38162666Y-674714D01*
X38400761Y-341380D02*
X38400761Y-1198523D01*
X38353142Y-1293761D01*
X38257904Y-1341380D01*
X38162666Y-1341380D01*
X37972190Y-674714D02*
X37591238Y-674714D01*
X37829333Y-341380D02*
X37829333Y-1198523D01*
X37781714Y-1293761D01*
X37686476Y-1341380D01*
X37591238Y-1341380D01*
X37257904Y-674714D02*
X37257904Y-1674714D01*
X37257904Y-722333D02*
X37162666Y-674714D01*
X36972190Y-674714D01*
X36876952Y-722333D01*
X36829333Y-769952D01*
X36781714Y-865190D01*
X36781714Y-1150904D01*
X36829333Y-1246142D01*
X36876952Y-1293761D01*
X36972190Y-1341380D01*
X37162666Y-1341380D01*
X37257904Y-1293761D01*
X36353142Y-1246142D02*
X36305523Y-1293761D01*
X36353142Y-1341380D01*
X36400761Y-1293761D01*
X36353142Y-1246142D01*
X36353142Y-1341380D01*
X36353142Y-722333D02*
X36305523Y-769952D01*
X36353142Y-817571D01*
X36400761Y-769952D01*
X36353142Y-722333D01*
X36353142Y-817571D01*
X35162666Y-293761D02*
X36019809Y-1579476D01*
X34115047Y-293761D02*
X34972190Y-1579476D01*
X33876952Y-674714D02*
X33686476Y-1341380D01*
X33496000Y-865190D01*
X33305523Y-1341380D01*
X33115047Y-674714D01*
X32829333Y-674714D02*
X32638857Y-1341380D01*
X32448380Y-865190D01*
X32257904Y-1341380D01*
X32067428Y-674714D01*
X31781714Y-674714D02*
X31591238Y-1341380D01*
X31400761Y-865190D01*
X31210285Y-1341380D01*
X31019809Y-674714D01*
X30638857Y-1246142D02*
X30591238Y-1293761D01*
X30638857Y-1341380D01*
X30686476Y-1293761D01*
X30638857Y-1246142D01*
X30638857Y-1341380D01*
X30162666Y-1341380D02*
X30162666Y-674714D01*
X30162666Y-341380D02*
X30210285Y-389000D01*
X30162666Y-436619D01*
X30115047Y-389000D01*
X30162666Y-341380D01*
X30162666Y-436619D01*
X29686476Y-674714D02*
X29686476Y-1341380D01*
X29686476Y-769952D02*
X29638857Y-722333D01*
X29543619Y-674714D01*
X29400761Y-674714D01*
X29305523Y-722333D01*
X29257904Y-817571D01*
X29257904Y-1341380D01*
X28353142Y-674714D02*
X28353142Y-1674714D01*
X28353142Y-1293761D02*
X28448380Y-1341380D01*
X28638857Y-1341380D01*
X28734095Y-1293761D01*
X28781714Y-1246142D01*
X28829333Y-1150904D01*
X28829333Y-865190D01*
X28781714Y-769952D01*
X28734095Y-722333D01*
X28638857Y-674714D01*
X28448380Y-674714D01*
X28353142Y-722333D01*
X27876952Y-1341380D02*
X27876952Y-341380D01*
X27876952Y-722333D02*
X27781714Y-674714D01*
X27591238Y-674714D01*
X27496000Y-722333D01*
X27448380Y-769952D01*
X27400761Y-865190D01*
X27400761Y-1150904D01*
X27448380Y-1246142D01*
X27496000Y-1293761D01*
X27591238Y-1341380D01*
X27781714Y-1341380D01*
X27876952Y-1293761D01*
X26591238Y-1293761D02*
X26686476Y-1341380D01*
X26876952Y-1341380D01*
X26972190Y-1293761D01*
X27019809Y-1198523D01*
X27019809Y-817571D01*
X26972190Y-722333D01*
X26876952Y-674714D01*
X26686476Y-674714D01*
X26591238Y-722333D01*
X26543619Y-817571D01*
X26543619Y-912809D01*
X27019809Y-1008047D01*
X26115047Y-1246142D02*
X26067428Y-1293761D01*
X26115047Y-1341380D01*
X26162666Y-1293761D01*
X26115047Y-1246142D01*
X26115047Y-1341380D01*
X25638857Y-1341380D02*
X25638857Y-674714D01*
X25638857Y-341380D02*
X25686476Y-389000D01*
X25638857Y-436619D01*
X25591238Y-389000D01*
X25638857Y-341380D01*
X25638857Y-436619D01*
X25162666Y-674714D02*
X25162666Y-1341380D01*
X25162666Y-769952D02*
X25115047Y-722333D01*
X25019809Y-674714D01*
X24876952Y-674714D01*
X24781714Y-722333D01*
X24734095Y-817571D01*
X24734095Y-1341380D01*
X23543619Y-293761D02*
X24400761Y-1579476D01*
%TO.C,C5*%
X11977666Y-8358142D02*
X12025285Y-8405761D01*
X12168142Y-8453380D01*
X12263380Y-8453380D01*
X12406238Y-8405761D01*
X12501476Y-8310523D01*
X12549095Y-8215285D01*
X12596714Y-8024809D01*
X12596714Y-7881952D01*
X12549095Y-7691476D01*
X12501476Y-7596238D01*
X12406238Y-7501000D01*
X12263380Y-7453380D01*
X12168142Y-7453380D01*
X12025285Y-7501000D01*
X11977666Y-7548619D01*
X11072904Y-7453380D02*
X11549095Y-7453380D01*
X11596714Y-7929571D01*
X11549095Y-7881952D01*
X11453857Y-7834333D01*
X11215761Y-7834333D01*
X11120523Y-7881952D01*
X11072904Y-7929571D01*
X11025285Y-8024809D01*
X11025285Y-8262904D01*
X11072904Y-8358142D01*
X11120523Y-8405761D01*
X11215761Y-8453380D01*
X11453857Y-8453380D01*
X11549095Y-8405761D01*
X11596714Y-8358142D01*
%TO.C,R15*%
X7246857Y-18486380D02*
X7580190Y-18010190D01*
X7818285Y-18486380D02*
X7818285Y-17486380D01*
X7437333Y-17486380D01*
X7342095Y-17534000D01*
X7294476Y-17581619D01*
X7246857Y-17676857D01*
X7246857Y-17819714D01*
X7294476Y-17914952D01*
X7342095Y-17962571D01*
X7437333Y-18010190D01*
X7818285Y-18010190D01*
X6294476Y-18486380D02*
X6865904Y-18486380D01*
X6580190Y-18486380D02*
X6580190Y-17486380D01*
X6675428Y-17629238D01*
X6770666Y-17724476D01*
X6865904Y-17772095D01*
X5389714Y-17486380D02*
X5865904Y-17486380D01*
X5913523Y-17962571D01*
X5865904Y-17914952D01*
X5770666Y-17867333D01*
X5532571Y-17867333D01*
X5437333Y-17914952D01*
X5389714Y-17962571D01*
X5342095Y-18057809D01*
X5342095Y-18295904D01*
X5389714Y-18391142D01*
X5437333Y-18438761D01*
X5532571Y-18486380D01*
X5770666Y-18486380D01*
X5865904Y-18438761D01*
X5913523Y-18391142D01*
%TO.C,R17*%
X3563857Y-7056380D02*
X3897190Y-6580190D01*
X4135285Y-7056380D02*
X4135285Y-6056380D01*
X3754333Y-6056380D01*
X3659095Y-6104000D01*
X3611476Y-6151619D01*
X3563857Y-6246857D01*
X3563857Y-6389714D01*
X3611476Y-6484952D01*
X3659095Y-6532571D01*
X3754333Y-6580190D01*
X4135285Y-6580190D01*
X2611476Y-7056380D02*
X3182904Y-7056380D01*
X2897190Y-7056380D02*
X2897190Y-6056380D01*
X2992428Y-6199238D01*
X3087666Y-6294476D01*
X3182904Y-6342095D01*
X2278142Y-6056380D02*
X1611476Y-6056380D01*
X2040047Y-7056380D01*
%TO.C,C7*%
X3468666Y-8231142D02*
X3516285Y-8278761D01*
X3659142Y-8326380D01*
X3754380Y-8326380D01*
X3897238Y-8278761D01*
X3992476Y-8183523D01*
X4040095Y-8088285D01*
X4087714Y-7897809D01*
X4087714Y-7754952D01*
X4040095Y-7564476D01*
X3992476Y-7469238D01*
X3897238Y-7374000D01*
X3754380Y-7326380D01*
X3659142Y-7326380D01*
X3516285Y-7374000D01*
X3468666Y-7421619D01*
X3135333Y-7326380D02*
X2468666Y-7326380D01*
X2897238Y-8326380D01*
%TO.C,JP2*%
X30551333Y-15708380D02*
X30551333Y-16422666D01*
X30598952Y-16565523D01*
X30694190Y-16660761D01*
X30837047Y-16708380D01*
X30932285Y-16708380D01*
X30075142Y-16708380D02*
X30075142Y-15708380D01*
X29694190Y-15708380D01*
X29598952Y-15756000D01*
X29551333Y-15803619D01*
X29503714Y-15898857D01*
X29503714Y-16041714D01*
X29551333Y-16136952D01*
X29598952Y-16184571D01*
X29694190Y-16232190D01*
X30075142Y-16232190D01*
X29122761Y-15803619D02*
X29075142Y-15756000D01*
X28979904Y-15708380D01*
X28741809Y-15708380D01*
X28646571Y-15756000D01*
X28598952Y-15803619D01*
X28551333Y-15898857D01*
X28551333Y-15994095D01*
X28598952Y-16136952D01*
X29170380Y-16708380D01*
X28551333Y-16708380D01*
%TO.C,U2*%
X30059380Y-8509095D02*
X30868904Y-8509095D01*
X30964142Y-8556714D01*
X31011761Y-8604333D01*
X31059380Y-8699571D01*
X31059380Y-8890047D01*
X31011761Y-8985285D01*
X30964142Y-9032904D01*
X30868904Y-9080523D01*
X30059380Y-9080523D01*
X30154619Y-9509095D02*
X30107000Y-9556714D01*
X30059380Y-9651952D01*
X30059380Y-9890047D01*
X30107000Y-9985285D01*
X30154619Y-10032904D01*
X30249857Y-10080523D01*
X30345095Y-10080523D01*
X30487952Y-10032904D01*
X31059380Y-9461476D01*
X31059380Y-10080523D01*
%TO.C,C2*%
X9120142Y-9104333D02*
X9167761Y-9056714D01*
X9215380Y-8913857D01*
X9215380Y-8818619D01*
X9167761Y-8675761D01*
X9072523Y-8580523D01*
X8977285Y-8532904D01*
X8786809Y-8485285D01*
X8643952Y-8485285D01*
X8453476Y-8532904D01*
X8358238Y-8580523D01*
X8263000Y-8675761D01*
X8215380Y-8818619D01*
X8215380Y-8913857D01*
X8263000Y-9056714D01*
X8310619Y-9104333D01*
X8310619Y-9485285D02*
X8263000Y-9532904D01*
X8215380Y-9628142D01*
X8215380Y-9866238D01*
X8263000Y-9961476D01*
X8310619Y-10009095D01*
X8405857Y-10056714D01*
X8501095Y-10056714D01*
X8643952Y-10009095D01*
X9215380Y-9437666D01*
X9215380Y-10056714D01*
%TO.C,C4*%
X17819666Y-18391142D02*
X17867285Y-18438761D01*
X18010142Y-18486380D01*
X18105380Y-18486380D01*
X18248238Y-18438761D01*
X18343476Y-18343523D01*
X18391095Y-18248285D01*
X18438714Y-18057809D01*
X18438714Y-17914952D01*
X18391095Y-17724476D01*
X18343476Y-17629238D01*
X18248238Y-17534000D01*
X18105380Y-17486380D01*
X18010142Y-17486380D01*
X17867285Y-17534000D01*
X17819666Y-17581619D01*
X16962523Y-17819714D02*
X16962523Y-18486380D01*
X17200619Y-17438761D02*
X17438714Y-18153047D01*
X16819666Y-18153047D01*
%TO.C,C3*%
X22899666Y-4802142D02*
X22947285Y-4849761D01*
X23090142Y-4897380D01*
X23185380Y-4897380D01*
X23328238Y-4849761D01*
X23423476Y-4754523D01*
X23471095Y-4659285D01*
X23518714Y-4468809D01*
X23518714Y-4325952D01*
X23471095Y-4135476D01*
X23423476Y-4040238D01*
X23328238Y-3945000D01*
X23185380Y-3897380D01*
X23090142Y-3897380D01*
X22947285Y-3945000D01*
X22899666Y-3992619D01*
X22566333Y-3897380D02*
X21947285Y-3897380D01*
X22280619Y-4278333D01*
X22137761Y-4278333D01*
X22042523Y-4325952D01*
X21994904Y-4373571D01*
X21947285Y-4468809D01*
X21947285Y-4706904D01*
X21994904Y-4802142D01*
X22042523Y-4849761D01*
X22137761Y-4897380D01*
X22423476Y-4897380D01*
X22518714Y-4849761D01*
X22566333Y-4802142D01*
%TO.C,U1*%
X8991523Y-10737904D02*
X8991523Y-11385523D01*
X8953428Y-11461714D01*
X8915333Y-11499809D01*
X8839142Y-11537904D01*
X8686761Y-11537904D01*
X8610571Y-11499809D01*
X8572476Y-11461714D01*
X8534380Y-11385523D01*
X8534380Y-10737904D01*
X7734380Y-11537904D02*
X8191523Y-11537904D01*
X7962952Y-11537904D02*
X7962952Y-10737904D01*
X8039142Y-10852190D01*
X8115333Y-10928380D01*
X8191523Y-10966476D01*
%TO.C,R18*%
X3563857Y-4389380D02*
X3897190Y-3913190D01*
X4135285Y-4389380D02*
X4135285Y-3389380D01*
X3754333Y-3389380D01*
X3659095Y-3437000D01*
X3611476Y-3484619D01*
X3563857Y-3579857D01*
X3563857Y-3722714D01*
X3611476Y-3817952D01*
X3659095Y-3865571D01*
X3754333Y-3913190D01*
X4135285Y-3913190D01*
X2611476Y-4389380D02*
X3182904Y-4389380D01*
X2897190Y-4389380D02*
X2897190Y-3389380D01*
X2992428Y-3532238D01*
X3087666Y-3627476D01*
X3182904Y-3675095D01*
X2040047Y-3817952D02*
X2135285Y-3770333D01*
X2182904Y-3722714D01*
X2230523Y-3627476D01*
X2230523Y-3579857D01*
X2182904Y-3484619D01*
X2135285Y-3437000D01*
X2040047Y-3389380D01*
X1849571Y-3389380D01*
X1754333Y-3437000D01*
X1706714Y-3484619D01*
X1659095Y-3579857D01*
X1659095Y-3627476D01*
X1706714Y-3722714D01*
X1754333Y-3770333D01*
X1849571Y-3817952D01*
X2040047Y-3817952D01*
X2135285Y-3865571D01*
X2182904Y-3913190D01*
X2230523Y-4008428D01*
X2230523Y-4198904D01*
X2182904Y-4294142D01*
X2135285Y-4341761D01*
X2040047Y-4389380D01*
X1849571Y-4389380D01*
X1754333Y-4341761D01*
X1706714Y-4294142D01*
X1659095Y-4198904D01*
X1659095Y-4008428D01*
X1706714Y-3913190D01*
X1754333Y-3865571D01*
X1849571Y-3817952D01*
%TO.C,R10*%
X18295857Y-17216380D02*
X18629190Y-16740190D01*
X18867285Y-17216380D02*
X18867285Y-16216380D01*
X18486333Y-16216380D01*
X18391095Y-16264000D01*
X18343476Y-16311619D01*
X18295857Y-16406857D01*
X18295857Y-16549714D01*
X18343476Y-16644952D01*
X18391095Y-16692571D01*
X18486333Y-16740190D01*
X18867285Y-16740190D01*
X17343476Y-17216380D02*
X17914904Y-17216380D01*
X17629190Y-17216380D02*
X17629190Y-16216380D01*
X17724428Y-16359238D01*
X17819666Y-16454476D01*
X17914904Y-16502095D01*
X16724428Y-16216380D02*
X16629190Y-16216380D01*
X16533952Y-16264000D01*
X16486333Y-16311619D01*
X16438714Y-16406857D01*
X16391095Y-16597333D01*
X16391095Y-16835428D01*
X16438714Y-17025904D01*
X16486333Y-17121142D01*
X16533952Y-17168761D01*
X16629190Y-17216380D01*
X16724428Y-17216380D01*
X16819666Y-17168761D01*
X16867285Y-17121142D01*
X16914904Y-17025904D01*
X16962523Y-16835428D01*
X16962523Y-16597333D01*
X16914904Y-16406857D01*
X16867285Y-16311619D01*
X16819666Y-16264000D01*
X16724428Y-16216380D01*
%TO.C,R8*%
X14263666Y-9723380D02*
X14597000Y-9247190D01*
X14835095Y-9723380D02*
X14835095Y-8723380D01*
X14454142Y-8723380D01*
X14358904Y-8771000D01*
X14311285Y-8818619D01*
X14263666Y-8913857D01*
X14263666Y-9056714D01*
X14311285Y-9151952D01*
X14358904Y-9199571D01*
X14454142Y-9247190D01*
X14835095Y-9247190D01*
X13692238Y-9151952D02*
X13787476Y-9104333D01*
X13835095Y-9056714D01*
X13882714Y-8961476D01*
X13882714Y-8913857D01*
X13835095Y-8818619D01*
X13787476Y-8771000D01*
X13692238Y-8723380D01*
X13501761Y-8723380D01*
X13406523Y-8771000D01*
X13358904Y-8818619D01*
X13311285Y-8913857D01*
X13311285Y-8961476D01*
X13358904Y-9056714D01*
X13406523Y-9104333D01*
X13501761Y-9151952D01*
X13692238Y-9151952D01*
X13787476Y-9199571D01*
X13835095Y-9247190D01*
X13882714Y-9342428D01*
X13882714Y-9532904D01*
X13835095Y-9628142D01*
X13787476Y-9675761D01*
X13692238Y-9723380D01*
X13501761Y-9723380D01*
X13406523Y-9675761D01*
X13358904Y-9628142D01*
X13311285Y-9532904D01*
X13311285Y-9342428D01*
X13358904Y-9247190D01*
X13406523Y-9199571D01*
X13501761Y-9151952D01*
%TO.C,R12*%
X1595380Y-16883142D02*
X1119190Y-16549809D01*
X1595380Y-16311714D02*
X595380Y-16311714D01*
X595380Y-16692666D01*
X643000Y-16787904D01*
X690619Y-16835523D01*
X785857Y-16883142D01*
X928714Y-16883142D01*
X1023952Y-16835523D01*
X1071571Y-16787904D01*
X1119190Y-16692666D01*
X1119190Y-16311714D01*
X1595380Y-17835523D02*
X1595380Y-17264095D01*
X1595380Y-17549809D02*
X595380Y-17549809D01*
X738238Y-17454571D01*
X833476Y-17359333D01*
X881095Y-17264095D01*
X690619Y-18216476D02*
X643000Y-18264095D01*
X595380Y-18359333D01*
X595380Y-18597428D01*
X643000Y-18692666D01*
X690619Y-18740285D01*
X785857Y-18787904D01*
X881095Y-18787904D01*
X1023952Y-18740285D01*
X1595380Y-18168857D01*
X1595380Y-18787904D01*
%TO.C,R20*%
X29281380Y-6088142D02*
X28805190Y-5754809D01*
X29281380Y-5516714D02*
X28281380Y-5516714D01*
X28281380Y-5897666D01*
X28329000Y-5992904D01*
X28376619Y-6040523D01*
X28471857Y-6088142D01*
X28614714Y-6088142D01*
X28709952Y-6040523D01*
X28757571Y-5992904D01*
X28805190Y-5897666D01*
X28805190Y-5516714D01*
X28376619Y-6469095D02*
X28329000Y-6516714D01*
X28281380Y-6611952D01*
X28281380Y-6850047D01*
X28329000Y-6945285D01*
X28376619Y-6992904D01*
X28471857Y-7040523D01*
X28567095Y-7040523D01*
X28709952Y-6992904D01*
X29281380Y-6421476D01*
X29281380Y-7040523D01*
X28281380Y-7659571D02*
X28281380Y-7754809D01*
X28329000Y-7850047D01*
X28376619Y-7897666D01*
X28471857Y-7945285D01*
X28662333Y-7992904D01*
X28900428Y-7992904D01*
X29090904Y-7945285D01*
X29186142Y-7897666D01*
X29233761Y-7850047D01*
X29281380Y-7754809D01*
X29281380Y-7659571D01*
X29233761Y-7564333D01*
X29186142Y-7516714D01*
X29090904Y-7469095D01*
X28900428Y-7421476D01*
X28662333Y-7421476D01*
X28471857Y-7469095D01*
X28376619Y-7516714D01*
X28329000Y-7564333D01*
X28281380Y-7659571D01*
%TO.C,C1*%
X8929666Y-1610142D02*
X8977285Y-1657761D01*
X9120142Y-1705380D01*
X9215380Y-1705380D01*
X9358238Y-1657761D01*
X9453476Y-1562523D01*
X9501095Y-1467285D01*
X9548714Y-1276809D01*
X9548714Y-1133952D01*
X9501095Y-943476D01*
X9453476Y-848238D01*
X9358238Y-753000D01*
X9215380Y-705380D01*
X9120142Y-705380D01*
X8977285Y-753000D01*
X8929666Y-800619D01*
X7977285Y-1705380D02*
X8548714Y-1705380D01*
X8263000Y-1705380D02*
X8263000Y-705380D01*
X8358238Y-848238D01*
X8453476Y-943476D01*
X8548714Y-991095D01*
%TO.C,R9*%
X17819666Y-19756380D02*
X18153000Y-19280190D01*
X18391095Y-19756380D02*
X18391095Y-18756380D01*
X18010142Y-18756380D01*
X17914904Y-18804000D01*
X17867285Y-18851619D01*
X17819666Y-18946857D01*
X17819666Y-19089714D01*
X17867285Y-19184952D01*
X17914904Y-19232571D01*
X18010142Y-19280190D01*
X18391095Y-19280190D01*
X17343476Y-19756380D02*
X17153000Y-19756380D01*
X17057761Y-19708761D01*
X17010142Y-19661142D01*
X16914904Y-19518285D01*
X16867285Y-19327809D01*
X16867285Y-18946857D01*
X16914904Y-18851619D01*
X16962523Y-18804000D01*
X17057761Y-18756380D01*
X17248238Y-18756380D01*
X17343476Y-18804000D01*
X17391095Y-18851619D01*
X17438714Y-18946857D01*
X17438714Y-19184952D01*
X17391095Y-19280190D01*
X17343476Y-19327809D01*
X17248238Y-19375428D01*
X17057761Y-19375428D01*
X16962523Y-19327809D01*
X16914904Y-19280190D01*
X16867285Y-19184952D01*
%TO.C,R16*%
X3563857Y-5786380D02*
X3897190Y-5310190D01*
X4135285Y-5786380D02*
X4135285Y-4786380D01*
X3754333Y-4786380D01*
X3659095Y-4834000D01*
X3611476Y-4881619D01*
X3563857Y-4976857D01*
X3563857Y-5119714D01*
X3611476Y-5214952D01*
X3659095Y-5262571D01*
X3754333Y-5310190D01*
X4135285Y-5310190D01*
X2611476Y-5786380D02*
X3182904Y-5786380D01*
X2897190Y-5786380D02*
X2897190Y-4786380D01*
X2992428Y-4929238D01*
X3087666Y-5024476D01*
X3182904Y-5072095D01*
X1754333Y-4786380D02*
X1944809Y-4786380D01*
X2040047Y-4834000D01*
X2087666Y-4881619D01*
X2182904Y-5024476D01*
X2230523Y-5214952D01*
X2230523Y-5595904D01*
X2182904Y-5691142D01*
X2135285Y-5738761D01*
X2040047Y-5786380D01*
X1849571Y-5786380D01*
X1754333Y-5738761D01*
X1706714Y-5691142D01*
X1659095Y-5595904D01*
X1659095Y-5357809D01*
X1706714Y-5262571D01*
X1754333Y-5214952D01*
X1849571Y-5167333D01*
X2040047Y-5167333D01*
X2135285Y-5214952D01*
X2182904Y-5262571D01*
X2230523Y-5357809D01*
%TO.C,C6*%
X11088666Y-18391142D02*
X11136285Y-18438761D01*
X11279142Y-18486380D01*
X11374380Y-18486380D01*
X11517238Y-18438761D01*
X11612476Y-18343523D01*
X11660095Y-18248285D01*
X11707714Y-18057809D01*
X11707714Y-17914952D01*
X11660095Y-17724476D01*
X11612476Y-17629238D01*
X11517238Y-17534000D01*
X11374380Y-17486380D01*
X11279142Y-17486380D01*
X11136285Y-17534000D01*
X11088666Y-17581619D01*
X10231523Y-17486380D02*
X10422000Y-17486380D01*
X10517238Y-17534000D01*
X10564857Y-17581619D01*
X10660095Y-17724476D01*
X10707714Y-17914952D01*
X10707714Y-18295904D01*
X10660095Y-18391142D01*
X10612476Y-18438761D01*
X10517238Y-18486380D01*
X10326761Y-18486380D01*
X10231523Y-18438761D01*
X10183904Y-18391142D01*
X10136285Y-18295904D01*
X10136285Y-18057809D01*
X10183904Y-17962571D01*
X10231523Y-17914952D01*
X10326761Y-17867333D01*
X10517238Y-17867333D01*
X10612476Y-17914952D01*
X10660095Y-17962571D01*
X10707714Y-18057809D01*
D11*
%TO.C,C5*%
X10781420Y-9908000D02*
X11062580Y-9908000D01*
X10781420Y-8888000D02*
X11062580Y-8888000D01*
%TO.C,R15*%
X6841258Y-15987500D02*
X6366742Y-15987500D01*
X6841258Y-17032500D02*
X6366742Y-17032500D01*
%TO.C,R17*%
X3666258Y-13320500D02*
X3191742Y-13320500D01*
X3666258Y-14365500D02*
X3191742Y-14365500D01*
%TO.C,C7*%
X3569580Y-14857000D02*
X3288420Y-14857000D01*
X3569580Y-15877000D02*
X3288420Y-15877000D01*
%TO.C,JP2*%
X29418000Y-15370000D02*
X30018000Y-15370000D01*
X28718000Y-13270000D02*
X28718000Y-14670000D01*
X30718000Y-14670000D02*
X30718000Y-13270000D01*
X30018000Y-12570000D02*
X29418000Y-12570000D01*
X30718000Y-13270000D02*
G75*
G03*
X30018000Y-12570000I-699999J1D01*
G01*
X28718000Y-14670000D02*
G75*
G03*
X29418000Y-15370000I700000J0D01*
G01*
X29418000Y-12570000D02*
G75*
G03*
X28718000Y-13270000I-1J-699999D01*
G01*
X30018000Y-15370000D02*
G75*
G03*
X30718000Y-14670000I0J700000D01*
G01*
%TO.C,U2*%
X36509000Y-6036000D02*
X36509000Y-12506000D01*
X36509000Y-12506000D02*
X31309000Y-12506000D01*
X31309000Y-12506000D02*
X31309000Y-10271000D01*
X31309000Y-6036000D02*
X36509000Y-6036000D01*
X31309000Y-8271000D02*
X31309000Y-6036000D01*
X31309000Y-10271000D02*
G75*
G03*
X31309000Y-8271000I0J1000000D01*
G01*
%TO.C,C2*%
X6744580Y-8888000D02*
X6463420Y-8888000D01*
X6744580Y-9908000D02*
X6463420Y-9908000D01*
%TO.C,C4*%
X13956420Y-13206000D02*
X14237580Y-13206000D01*
X13956420Y-14226000D02*
X14237580Y-14226000D01*
%TO.C,C3*%
X17373000Y-6245437D02*
X17373000Y-9031000D01*
X15883000Y-13301000D02*
X17133000Y-13301000D01*
X28093000Y-15901000D02*
X28093000Y-12051000D01*
X17373000Y-14836563D02*
X17373000Y-12051000D01*
X18437437Y-15901000D02*
X28093000Y-15901000D01*
X18437437Y-5181000D02*
X28093000Y-5181000D01*
X17373000Y-6245437D02*
X18437437Y-5181000D01*
X28093000Y-5181000D02*
X28093000Y-9031000D01*
X17373000Y-14836563D02*
X18437437Y-15901000D01*
X16508000Y-13926000D02*
X16508000Y-12676000D01*
%TO.C,U1*%
X8763000Y-10394000D02*
X12213000Y-10394000D01*
X8763000Y-10394000D02*
X6813000Y-10394000D01*
X8763000Y-15514000D02*
X6813000Y-15514000D01*
X8763000Y-15514000D02*
X10713000Y-15514000D01*
%TO.C,R18*%
X3191742Y-11190500D02*
X3666258Y-11190500D01*
X3191742Y-10145500D02*
X3666258Y-10145500D01*
%TO.C,R10*%
X13859742Y-12714500D02*
X14334258Y-12714500D01*
X13859742Y-11669500D02*
X14334258Y-11669500D01*
%TO.C,R8*%
X13859742Y-10145500D02*
X14334258Y-10145500D01*
X13859742Y-11190500D02*
X14334258Y-11190500D01*
%TO.C,R12*%
X3539258Y-17130500D02*
X3064742Y-17130500D01*
X3539258Y-18175500D02*
X3064742Y-18175500D01*
%TO.C,R20*%
X29449500Y-6841258D02*
X29449500Y-6366742D01*
X30494500Y-6841258D02*
X30494500Y-6366742D01*
%TO.C,C1*%
X6003000Y-2193000D02*
X6003000Y-3893000D01*
X12388000Y-3268000D02*
X11763000Y-3268000D01*
X11523000Y-3257437D02*
X11523000Y-3893000D01*
X11523000Y-3257437D02*
X10458563Y-2193000D01*
X10458563Y-7713000D02*
X6003000Y-7713000D01*
X6003000Y-7713000D02*
X6003000Y-6013000D01*
X10458563Y-2193000D02*
X6003000Y-2193000D01*
X12075500Y-2955500D02*
X12075500Y-3580500D01*
X11523000Y-6648563D02*
X10458563Y-7713000D01*
X11523000Y-6648563D02*
X11523000Y-6013000D01*
%TO.C,R9*%
X14334258Y-15762500D02*
X13859742Y-15762500D01*
X14334258Y-14717500D02*
X13859742Y-14717500D01*
%TO.C,R16*%
X3666258Y-12841500D02*
X3191742Y-12841500D01*
X3666258Y-11796500D02*
X3191742Y-11796500D01*
%TO.C,C6*%
X10781420Y-17020000D02*
X11062580Y-17020000D01*
X10781420Y-16000000D02*
X11062580Y-16000000D01*
%TD*%
M02*
