M48
; DRILL file {KiCad (6.0.9)} date Thu Nov 10 15:00:15 2022
; FORMAT={-:-/ absolute / metric / decimal}
; #@! TF.CreationDate,2022-11-10T15:00:15+05:30
; #@! TF.GenerationSoftware,Kicad,Pcbnew,(6.0.9)
; #@! TF.FileFunction,MixedPlating,1,2
FMAT,2
METRIC
; #@! TA.AperFunction,Plated,PTH,ViaDrill
T1C0.400
; #@! TA.AperFunction,Plated,PTH,ComponentDrill
T2C0.800
; #@! TA.AperFunction,Plated,PTH,ComponentDrill
T3C1.000
%
G90
G05
T1
X2.54Y-5.969
X4.254Y-10.668
X6.288Y-12.319
X7.366Y-9.398
X8.928Y-16.637
X9.398Y-18.542
X9.512Y-11.971
X10.516Y-1.372
X10.617Y-2.692
X10.922Y-4.953
X12.319Y-21.844
X13.335Y-21.844
X13.97Y-18.796
X13.97Y-19.812
X14.351Y-21.844
X14.859Y-18.796
X14.859Y-19.812
X15.367Y-21.844
X15.748Y-18.796
X15.748Y-19.812
X16.383Y-21.844
X16.637Y-12.827
X17.018Y-7.493
X17.399Y-21.844
X17.685Y-5.968
X18.796Y-21.844
X19.101Y-14.986
X22.86Y-13.716
X22.86Y-14.732
X23.749Y-13.716
X23.749Y-14.732
X37.681Y-11.557
T2
X12.954Y-2.413
X25.654Y-2.413
T3
X2.512Y-20.32
X5.052Y-20.32
X7.592Y-20.32
X22.365Y-17.805
X22.365Y-20.345
X24.905Y-17.805
X24.905Y-20.345
X27.445Y-17.805
X27.445Y-20.345
X29.985Y-17.805
X29.985Y-20.345
X32.525Y-17.805
X32.525Y-20.345
X35.065Y-17.805
X35.065Y-20.345
X37.605Y-17.805
X37.605Y-20.345
T0
M30
