%TF.GenerationSoftware,KiCad,Pcbnew,(6.0.9)*%
%TF.CreationDate,2022-11-10T15:00:12+05:30*%
%TF.ProjectId,Gate Driver TLP152,47617465-2044-4726-9976-657220544c50,rev?*%
%TF.SameCoordinates,Original*%
%TF.FileFunction,Soldermask,Top*%
%TF.FilePolarity,Negative*%
%FSLAX46Y46*%
G04 Gerber Fmt 4.6, Leading zero omitted, Abs format (unit mm)*
G04 Created by KiCad (PCBNEW (6.0.9)) date 2022-11-10 15:00:12*
%MOMM*%
%LPD*%
G01*
G04 APERTURE LIST*
G04 Aperture macros list*
%AMRoundRect*
0 Rectangle with rounded corners*
0 $1 Rounding radius*
0 $2 $3 $4 $5 $6 $7 $8 $9 X,Y pos of 4 corners*
0 Add a 4 corners polygon primitive as box body*
4,1,4,$2,$3,$4,$5,$6,$7,$8,$9,$2,$3,0*
0 Add four circle primitives for the rounded corners*
1,1,$1+$1,$2,$3*
1,1,$1+$1,$4,$5*
1,1,$1+$1,$6,$7*
1,1,$1+$1,$8,$9*
0 Add four rect primitives between the rounded corners*
20,1,$1+$1,$2,$3,$4,$5,0*
20,1,$1+$1,$4,$5,$6,$7,0*
20,1,$1+$1,$6,$7,$8,$9,0*
20,1,$1+$1,$8,$9,$2,$3,0*%
%AMFreePoly0*
4,1,22,0.500000,-0.750000,0.000000,-0.750000,0.000000,-0.745033,-0.079941,-0.743568,-0.215256,-0.701293,-0.333266,-0.622738,-0.424486,-0.514219,-0.481581,-0.384460,-0.499164,-0.250000,-0.500000,-0.250000,-0.500000,0.250000,-0.499164,0.250000,-0.499963,0.256109,-0.478152,0.396186,-0.417904,0.524511,-0.324060,0.630769,-0.204165,0.706417,-0.067858,0.745374,0.000000,0.744959,0.000000,0.750000,
0.500000,0.750000,0.500000,-0.750000,0.500000,-0.750000,$1*%
%AMFreePoly1*
4,1,20,0.000000,0.744959,0.073905,0.744508,0.209726,0.703889,0.328688,0.626782,0.421226,0.519385,0.479903,0.390333,0.500000,0.250000,0.500000,-0.250000,0.499851,-0.262216,0.476331,-0.402017,0.414519,-0.529596,0.319384,-0.634700,0.198574,-0.708877,0.061801,-0.746166,0.000000,-0.745033,0.000000,-0.750000,-0.500000,-0.750000,-0.500000,0.750000,0.000000,0.750000,0.000000,0.744959,
0.000000,0.744959,$1*%
G04 Aperture macros list end*
%ADD10RoundRect,0.200000X-0.200000X-0.275000X0.200000X-0.275000X0.200000X0.275000X-0.200000X0.275000X0*%
%ADD11C,1.600000*%
%ADD12O,1.600000X1.600000*%
%ADD13RoundRect,0.200000X0.200000X0.275000X-0.200000X0.275000X-0.200000X-0.275000X0.200000X-0.275000X0*%
%ADD14RoundRect,0.218750X-0.218750X-0.256250X0.218750X-0.256250X0.218750X0.256250X-0.218750X0.256250X0*%
%ADD15R,1.100000X1.100000*%
%ADD16R,2.000000X0.640000*%
%ADD17RoundRect,0.200000X0.275000X-0.200000X0.275000X0.200000X-0.275000X0.200000X-0.275000X-0.200000X0*%
%ADD18R,1.700000X1.700000*%
%ADD19O,1.700000X1.700000*%
%ADD20R,1.300000X1.700000*%
%ADD21FreePoly0,0.000000*%
%ADD22FreePoly1,0.000000*%
%ADD23RoundRect,0.150000X0.587500X0.150000X-0.587500X0.150000X-0.587500X-0.150000X0.587500X-0.150000X0*%
%ADD24C,0.800000*%
G04 APERTURE END LIST*
D10*
%TO.C,R5*%
X23559000Y-8763000D03*
X25209000Y-8763000D03*
%TD*%
D11*
%TO.C,R7*%
X12954000Y-2413000D03*
D12*
X25654000Y-2413000D03*
%TD*%
D13*
%TO.C,R4*%
X3111000Y-3048000D03*
X1461000Y-3048000D03*
%TD*%
D14*
%TO.C,D1*%
X33819500Y-1397000D03*
X35394500Y-1397000D03*
%TD*%
D10*
%TO.C,R6*%
X11519000Y-12700000D03*
X13169000Y-12700000D03*
%TD*%
D15*
%TO.C,D7*%
X12830000Y-9652000D03*
X10030000Y-9652000D03*
%TD*%
D16*
%TO.C,IC1*%
X21438000Y-8763000D03*
X21438000Y-6223000D03*
X15138000Y-6223000D03*
X15138000Y-7493000D03*
X15138000Y-8763000D03*
%TD*%
D17*
%TO.C,R19*%
X27559000Y-7048000D03*
X27559000Y-5398000D03*
%TD*%
D14*
%TO.C,D2*%
X33819500Y-3048000D03*
X35394500Y-3048000D03*
%TD*%
D18*
%TO.C,J1*%
X37605000Y-17805000D03*
D19*
X37605000Y-20345000D03*
X35065000Y-17805000D03*
X35065000Y-20345000D03*
X32525000Y-17805000D03*
X32525000Y-20345000D03*
X29985000Y-17805000D03*
X29985000Y-20345000D03*
X27445000Y-17805000D03*
X27445000Y-20345000D03*
X24905000Y-17805000D03*
X24905000Y-20345000D03*
X22365000Y-17805000D03*
X22365000Y-20345000D03*
%TD*%
D10*
%TO.C,R2*%
X36830000Y-3048000D03*
X38480000Y-3048000D03*
%TD*%
D20*
%TO.C,D9*%
X6576000Y-17145000D03*
X3076000Y-17145000D03*
%TD*%
D10*
%TO.C,R14*%
X4001000Y-15113000D03*
X5651000Y-15113000D03*
%TD*%
D14*
%TO.C,D3*%
X4673500Y-1397000D03*
X6248500Y-1397000D03*
%TD*%
%TO.C,D8*%
X4673500Y-4699000D03*
X6248500Y-4699000D03*
%TD*%
D21*
%TO.C,JP1*%
X18004000Y-13208000D03*
D22*
X19304000Y-13208000D03*
%TD*%
D18*
%TO.C,J2*%
X7592000Y-20320000D03*
D19*
X5052000Y-20320000D03*
X2512000Y-20320000D03*
%TD*%
D20*
%TO.C,D6*%
X10569000Y-14605000D03*
X14069000Y-14605000D03*
%TD*%
D13*
%TO.C,R3*%
X3111000Y-1397000D03*
X1461000Y-1397000D03*
%TD*%
%TO.C,R13*%
X12953000Y-7620000D03*
X11303000Y-7620000D03*
%TD*%
D10*
%TO.C,R1*%
X36830000Y-1397000D03*
X38480000Y-1397000D03*
%TD*%
D20*
%TO.C,D5*%
X10569000Y-16904000D03*
X14069000Y-16904000D03*
%TD*%
D14*
%TO.C,D4*%
X4673500Y-3048000D03*
X6248500Y-3048000D03*
%TD*%
D23*
%TO.C,Q1*%
X25702500Y-7173000D03*
X25702500Y-5273000D03*
X23827500Y-6223000D03*
%TD*%
D13*
%TO.C,R11*%
X3111000Y-4699000D03*
X1461000Y-4699000D03*
%TD*%
D24*
X10922000Y-4953000D03*
X2540000Y-5969000D03*
X22860000Y-13716000D03*
X23749000Y-13716000D03*
X18796000Y-21844000D03*
X22860000Y-14732000D03*
X23749000Y-14732000D03*
X19100800Y-14986000D03*
X7366000Y-9398000D03*
X8927500Y-16637000D03*
X9512302Y-11971500D03*
X37681500Y-11557000D03*
X10515600Y-1371600D03*
X10617200Y-2692400D03*
X16637000Y-12827000D03*
X17018000Y-7493000D03*
X4254000Y-10668000D03*
X9398000Y-18542000D03*
X6288002Y-12319000D03*
X15748000Y-18796000D03*
X14859000Y-19812000D03*
X17399000Y-21844000D03*
X17685318Y-5968101D03*
X14351000Y-21844000D03*
X15367000Y-21844000D03*
X13970000Y-19812000D03*
X13335000Y-21844000D03*
X15748000Y-19812000D03*
X16383000Y-21844000D03*
X13970000Y-18796000D03*
X14859000Y-18796000D03*
X12319000Y-21844000D03*
M02*
