%TF.GenerationSoftware,KiCad,Pcbnew,(6.0.9)*%
%TF.CreationDate,2022-11-10T15:00:11+05:30*%
%TF.ProjectId,Gate Driver TLP152,47617465-2044-4726-9976-657220544c50,rev?*%
%TF.SameCoordinates,Original*%
%TF.FileFunction,Copper,L1,Top*%
%TF.FilePolarity,Positive*%
%FSLAX46Y46*%
G04 Gerber Fmt 4.6, Leading zero omitted, Abs format (unit mm)*
G04 Created by KiCad (PCBNEW (6.0.9)) date 2022-11-10 15:00:11*
%MOMM*%
%LPD*%
G01*
G04 APERTURE LIST*
G04 Aperture macros list*
%AMRoundRect*
0 Rectangle with rounded corners*
0 $1 Rounding radius*
0 $2 $3 $4 $5 $6 $7 $8 $9 X,Y pos of 4 corners*
0 Add a 4 corners polygon primitive as box body*
4,1,4,$2,$3,$4,$5,$6,$7,$8,$9,$2,$3,0*
0 Add four circle primitives for the rounded corners*
1,1,$1+$1,$2,$3*
1,1,$1+$1,$4,$5*
1,1,$1+$1,$6,$7*
1,1,$1+$1,$8,$9*
0 Add four rect primitives between the rounded corners*
20,1,$1+$1,$2,$3,$4,$5,0*
20,1,$1+$1,$4,$5,$6,$7,0*
20,1,$1+$1,$6,$7,$8,$9,0*
20,1,$1+$1,$8,$9,$2,$3,0*%
%AMFreePoly0*
4,1,22,0.500000,-0.750000,0.000000,-0.750000,0.000000,-0.745033,-0.079941,-0.743568,-0.215256,-0.701293,-0.333266,-0.622738,-0.424486,-0.514219,-0.481581,-0.384460,-0.499164,-0.250000,-0.500000,-0.250000,-0.500000,0.250000,-0.499164,0.250000,-0.499963,0.256109,-0.478152,0.396186,-0.417904,0.524511,-0.324060,0.630769,-0.204165,0.706417,-0.067858,0.745374,0.000000,0.744959,0.000000,0.750000,
0.500000,0.750000,0.500000,-0.750000,0.500000,-0.750000,$1*%
%AMFreePoly1*
4,1,20,0.000000,0.744959,0.073905,0.744508,0.209726,0.703889,0.328688,0.626782,0.421226,0.519385,0.479903,0.390333,0.500000,0.250000,0.500000,-0.250000,0.499851,-0.262216,0.476331,-0.402017,0.414519,-0.529596,0.319384,-0.634700,0.198574,-0.708877,0.061801,-0.746166,0.000000,-0.745033,0.000000,-0.750000,-0.500000,-0.750000,-0.500000,0.750000,0.000000,0.750000,0.000000,0.744959,
0.000000,0.744959,$1*%
G04 Aperture macros list end*
%TA.AperFunction,SMDPad,CuDef*%
%ADD10RoundRect,0.200000X-0.200000X-0.275000X0.200000X-0.275000X0.200000X0.275000X-0.200000X0.275000X0*%
%TD*%
%TA.AperFunction,ComponentPad*%
%ADD11C,1.600000*%
%TD*%
%TA.AperFunction,ComponentPad*%
%ADD12O,1.600000X1.600000*%
%TD*%
%TA.AperFunction,SMDPad,CuDef*%
%ADD13RoundRect,0.200000X0.200000X0.275000X-0.200000X0.275000X-0.200000X-0.275000X0.200000X-0.275000X0*%
%TD*%
%TA.AperFunction,SMDPad,CuDef*%
%ADD14RoundRect,0.218750X-0.218750X-0.256250X0.218750X-0.256250X0.218750X0.256250X-0.218750X0.256250X0*%
%TD*%
%TA.AperFunction,SMDPad,CuDef*%
%ADD15R,1.100000X1.100000*%
%TD*%
%TA.AperFunction,SMDPad,CuDef*%
%ADD16R,2.000000X0.640000*%
%TD*%
%TA.AperFunction,SMDPad,CuDef*%
%ADD17RoundRect,0.200000X0.275000X-0.200000X0.275000X0.200000X-0.275000X0.200000X-0.275000X-0.200000X0*%
%TD*%
%TA.AperFunction,ComponentPad*%
%ADD18R,1.700000X1.700000*%
%TD*%
%TA.AperFunction,ComponentPad*%
%ADD19O,1.700000X1.700000*%
%TD*%
%TA.AperFunction,SMDPad,CuDef*%
%ADD20R,1.300000X1.700000*%
%TD*%
%TA.AperFunction,SMDPad,CuDef*%
%ADD21FreePoly0,0.000000*%
%TD*%
%TA.AperFunction,SMDPad,CuDef*%
%ADD22FreePoly1,0.000000*%
%TD*%
%TA.AperFunction,SMDPad,CuDef*%
%ADD23RoundRect,0.150000X0.587500X0.150000X-0.587500X0.150000X-0.587500X-0.150000X0.587500X-0.150000X0*%
%TD*%
%TA.AperFunction,ViaPad*%
%ADD24C,0.800000*%
%TD*%
%TA.AperFunction,Conductor*%
%ADD25C,0.800000*%
%TD*%
%TA.AperFunction,Conductor*%
%ADD26C,0.300000*%
%TD*%
%TA.AperFunction,Conductor*%
%ADD27C,1.000000*%
%TD*%
%TA.AperFunction,Conductor*%
%ADD28C,0.500000*%
%TD*%
%TA.AperFunction,Conductor*%
%ADD29C,0.400000*%
%TD*%
G04 APERTURE END LIST*
D10*
%TO.P,R5,1*%
%TO.N,Net-(IC1-Pad1)*%
X23559000Y-8763000D03*
%TO.P,R5,2*%
%TO.N,/pulse IN*%
X25209000Y-8763000D03*
%TD*%
D11*
%TO.P,R7,1*%
%TO.N,Net-(D7-Pad2)*%
X12954000Y-2413000D03*
D12*
%TO.P,R7,2*%
%TO.N,+12V*%
X25654000Y-2413000D03*
%TD*%
D13*
%TO.P,R4,1*%
%TO.N,Net-(D4-Pad1)*%
X3111000Y-3048000D03*
%TO.P,R4,2*%
%TO.N,GNDD*%
X1461000Y-3048000D03*
%TD*%
D14*
%TO.P,D1,1,K*%
%TO.N,/~{SD}*%
X33819500Y-1397000D03*
%TO.P,D1,2,A*%
%TO.N,Net-(D1-Pad2)*%
X35394500Y-1397000D03*
%TD*%
D10*
%TO.P,R6,1*%
%TO.N,/VO*%
X11519000Y-12700000D03*
%TO.P,R6,2*%
%TO.N,Net-(D5-Pad2)*%
X13169000Y-12700000D03*
%TD*%
D15*
%TO.P,D7,1,K*%
%TO.N,/Boot*%
X12830000Y-9652000D03*
%TO.P,D7,2,A*%
%TO.N,Net-(D7-Pad2)*%
X10030000Y-9652000D03*
%TD*%
D16*
%TO.P,IC1,1,ANODE*%
%TO.N,Net-(IC1-Pad1)*%
X21438000Y-8763000D03*
%TO.P,IC1,3,CATHODE*%
%TO.N,Net-(IC1-Pad3)*%
X21438000Y-6223000D03*
%TO.P,IC1,4,GND*%
%TO.N,Common*%
X15138000Y-6223000D03*
%TO.P,IC1,5,VO*%
%TO.N,/VO*%
X15138000Y-7493000D03*
%TO.P,IC1,6,VCC*%
%TO.N,/Boot*%
X15138000Y-8763000D03*
%TD*%
D17*
%TO.P,R19,1*%
%TO.N,Net-(Q1-Pad1)*%
X27559000Y-7048000D03*
%TO.P,R19,2*%
%TO.N,/~{SD}*%
X27559000Y-5398000D03*
%TD*%
D14*
%TO.P,D2,1,K*%
%TO.N,/~{Fault}*%
X33819500Y-3048000D03*
%TO.P,D2,2,A*%
%TO.N,Net-(D2-Pad2)*%
X35394500Y-3048000D03*
%TD*%
D18*
%TO.P,J1,1,Pin_1*%
%TO.N,/Reset*%
X37605000Y-17805000D03*
D19*
%TO.P,J1,2,Pin_2*%
%TO.N,/~{Fault}*%
X37605000Y-20345000D03*
%TO.P,J1,3,Pin_3*%
%TO.N,GNDD*%
X35065000Y-17805000D03*
%TO.P,J1,4,Pin_4*%
%TO.N,/~{SD}*%
X35065000Y-20345000D03*
%TO.P,J1,5,Pin_5*%
%TO.N,GNDD*%
X32525000Y-17805000D03*
%TO.P,J1,6,Pin_6*%
%TO.N,+3.3V*%
X32525000Y-20345000D03*
%TO.P,J1,7,Pin_7*%
%TO.N,GNDD*%
X29985000Y-17805000D03*
%TO.P,J1,8,Pin_8*%
%TO.N,+5V*%
X29985000Y-20345000D03*
%TO.P,J1,9,Pin_9*%
%TO.N,GNDD*%
X27445000Y-17805000D03*
%TO.P,J1,10,Pin_10*%
%TO.N,+12V*%
X27445000Y-20345000D03*
%TO.P,J1,11,Pin_11*%
%TO.N,GNDD*%
X24905000Y-17805000D03*
%TO.P,J1,12,Pin_12*%
%TO.N,/pulse IN*%
X24905000Y-20345000D03*
%TO.P,J1,13,Pin_13*%
%TO.N,GNDD*%
X22365000Y-17805000D03*
%TO.P,J1,14,Pin_14*%
%TO.N,GND*%
X22365000Y-20345000D03*
%TD*%
D10*
%TO.P,R2,1*%
%TO.N,Net-(D2-Pad2)*%
X36830000Y-3048000D03*
%TO.P,R2,2*%
%TO.N,+3.3V*%
X38480000Y-3048000D03*
%TD*%
D20*
%TO.P,D9,1,K*%
%TO.N,Gate*%
X6576000Y-17145000D03*
%TO.P,D9,2,A*%
%TO.N,Source*%
X3076000Y-17145000D03*
%TD*%
D10*
%TO.P,R14,1*%
%TO.N,Source*%
X4001000Y-15113000D03*
%TO.P,R14,2*%
%TO.N,Gate*%
X5651000Y-15113000D03*
%TD*%
D14*
%TO.P,D3,1,K*%
%TO.N,Net-(D3-Pad1)*%
X4673500Y-1397000D03*
%TO.P,D3,2,A*%
%TO.N,+3.3V*%
X6248500Y-1397000D03*
%TD*%
%TO.P,D8,1,K*%
%TO.N,Net-(D8-Pad1)*%
X4673500Y-4699000D03*
%TO.P,D8,2,A*%
%TO.N,+12V*%
X6248500Y-4699000D03*
%TD*%
D21*
%TO.P,JP1,1,A*%
%TO.N,+12V*%
X18004000Y-13208000D03*
D22*
%TO.P,JP1,2,B*%
%TO.N,/Boot*%
X19304000Y-13208000D03*
%TD*%
D18*
%TO.P,J2,1,Pin_1*%
%TO.N,Drain*%
X7592000Y-20320000D03*
D19*
%TO.P,J2,2,Pin_2*%
%TO.N,Gate*%
X5052000Y-20320000D03*
%TO.P,J2,3,Pin_3*%
%TO.N,Source*%
X2512000Y-20320000D03*
%TD*%
D20*
%TO.P,D6,1,K*%
%TO.N,Net-(C5-Pad1)*%
X10569000Y-14605000D03*
%TO.P,D6,2,A*%
%TO.N,Net-(D5-Pad2)*%
X14069000Y-14605000D03*
%TD*%
D13*
%TO.P,R3,1*%
%TO.N,Net-(D3-Pad1)*%
X3111000Y-1397000D03*
%TO.P,R3,2*%
%TO.N,GNDD*%
X1461000Y-1397000D03*
%TD*%
%TO.P,R13,1*%
%TO.N,/VO*%
X12953000Y-7620000D03*
%TO.P,R13,2*%
%TO.N,Gate*%
X11303000Y-7620000D03*
%TD*%
D10*
%TO.P,R1,1*%
%TO.N,Net-(D1-Pad2)*%
X36830000Y-1397000D03*
%TO.P,R1,2*%
%TO.N,+3.3V*%
X38480000Y-1397000D03*
%TD*%
D20*
%TO.P,D5,1,K*%
%TO.N,Drain*%
X10569000Y-16904000D03*
%TO.P,D5,2,A*%
%TO.N,Net-(D5-Pad2)*%
X14069000Y-16904000D03*
%TD*%
D14*
%TO.P,D4,1,K*%
%TO.N,Net-(D4-Pad1)*%
X4673500Y-3048000D03*
%TO.P,D4,2,A*%
%TO.N,+5V*%
X6248500Y-3048000D03*
%TD*%
D23*
%TO.P,Q1,1,B*%
%TO.N,Net-(Q1-Pad1)*%
X25702500Y-7173000D03*
%TO.P,Q1,2,E*%
%TO.N,GNDD*%
X25702500Y-5273000D03*
%TO.P,Q1,3,C*%
%TO.N,Net-(IC1-Pad3)*%
X23827500Y-6223000D03*
%TD*%
D13*
%TO.P,R11,1*%
%TO.N,Net-(D8-Pad1)*%
X3111000Y-4699000D03*
%TO.P,R11,2*%
%TO.N,GND*%
X1461000Y-4699000D03*
%TD*%
D24*
%TO.N,+12V*%
X10922000Y-4953000D03*
%TO.N,GND*%
X2540000Y-5969000D03*
X22860000Y-13716000D03*
X23749000Y-13716000D03*
X18796000Y-21844000D03*
X22860000Y-14732000D03*
X23749000Y-14732000D03*
%TO.N,/Boot*%
X19100800Y-14986000D03*
X7366000Y-9398000D03*
X8927500Y-16637000D03*
%TO.N,Net-(C5-Pad1)*%
X9512302Y-11971500D03*
%TO.N,/~{Fault}*%
X37681500Y-11557000D03*
%TO.N,+3.3V*%
X10515600Y-1371600D03*
%TO.N,+5V*%
X10617200Y-2692400D03*
%TO.N,/VO*%
X16637000Y-12827000D03*
X17018000Y-7493000D03*
%TO.N,/Error_OUT*%
X4254000Y-10668000D03*
X9398000Y-18542000D03*
X6288002Y-12319000D03*
%TO.N,Common*%
X15748000Y-18796000D03*
X14859000Y-19812000D03*
X17399000Y-21844000D03*
X17685318Y-5968101D03*
X14351000Y-21844000D03*
X15367000Y-21844000D03*
X13970000Y-19812000D03*
X13335000Y-21844000D03*
X15748000Y-19812000D03*
X16383000Y-21844000D03*
X13970000Y-18796000D03*
X14859000Y-18796000D03*
X12319000Y-21844000D03*
%TD*%
D25*
%TO.N,+12V*%
X18004000Y-13208000D02*
X18004000Y-19401000D01*
X26416000Y-22860000D02*
X27445000Y-21831000D01*
X21463000Y-22860000D02*
X26416000Y-22860000D01*
D26*
X6248500Y-4699000D02*
X10668000Y-4699000D01*
X10668000Y-4699000D02*
X10922000Y-4953000D01*
D25*
X27445000Y-21831000D02*
X27445000Y-20345000D01*
X18004000Y-19401000D02*
X21463000Y-22860000D01*
%TO.N,GND*%
X18796000Y-22606000D02*
X18796000Y-21844000D01*
X1710000Y-23300000D02*
X18102000Y-23300000D01*
X889000Y-22479000D02*
X1710000Y-23300000D01*
X889000Y-7620000D02*
X889000Y-22479000D01*
X23749000Y-13716000D02*
X23749000Y-13843000D01*
D27*
X20167600Y-19304000D02*
X20167600Y-17424400D01*
D26*
X1461000Y-4890000D02*
X2540000Y-5969000D01*
D27*
X20167600Y-17424400D02*
X23749000Y-13843000D01*
X21208600Y-20345000D02*
X20167600Y-19304000D01*
D25*
X2540000Y-5969000D02*
X889000Y-7620000D01*
X18102000Y-23300000D02*
X18796000Y-22606000D01*
D27*
X22365000Y-20345000D02*
X21208600Y-20345000D01*
D26*
X1461000Y-4699000D02*
X1461000Y-4890000D01*
D25*
%TO.N,/Boot*%
X11684000Y-10922000D02*
X8890000Y-10922000D01*
D28*
X19304000Y-14782800D02*
X19100800Y-14986000D01*
D25*
X8890000Y-10922000D02*
X7366000Y-9398000D01*
D26*
X7366000Y-9398000D02*
X8677511Y-10709511D01*
D25*
X12830000Y-9652000D02*
X12830000Y-9776000D01*
X15138000Y-8763000D02*
X13719000Y-8763000D01*
X13719000Y-8763000D02*
X12830000Y-9652000D01*
X12830000Y-9776000D02*
X11684000Y-10922000D01*
X17145000Y-8763000D02*
X15138000Y-8763000D01*
X19304000Y-10922000D02*
X17145000Y-8763000D01*
D26*
X8677511Y-10709511D02*
X8677511Y-16387011D01*
X8677511Y-16387011D02*
X8927500Y-16637000D01*
D28*
X19304000Y-13208000D02*
X19304000Y-14782800D01*
D25*
X19304000Y-13208000D02*
X19304000Y-10922000D01*
D26*
%TO.N,Net-(C5-Pad1)*%
X10569000Y-14605000D02*
X10569000Y-13028198D01*
X10569000Y-13028198D02*
X9512302Y-11971500D01*
%TO.N,/~{SD}*%
X33819500Y-1397000D02*
X29083000Y-1397000D01*
X27559000Y-2921000D02*
X27559000Y-5398000D01*
X27622000Y-5461000D02*
X27559000Y-5398000D01*
X35065000Y-20345000D02*
X33815489Y-19095489D01*
X33815489Y-19095489D02*
X33815489Y-7018489D01*
X33815489Y-7018489D02*
X32258000Y-5461000D01*
X29083000Y-1397000D02*
X27559000Y-2921000D01*
X32258000Y-5461000D02*
X27622000Y-5461000D01*
%TO.N,Net-(D1-Pad2)*%
X35394500Y-1397000D02*
X36830000Y-1397000D01*
%TO.N,/~{Fault}*%
X38100000Y-7328500D02*
X38100000Y-11138500D01*
X38100000Y-11138500D02*
X37681500Y-11557000D01*
X33819500Y-3048000D02*
X38100000Y-7328500D01*
%TO.N,Net-(D2-Pad2)*%
X35521500Y-3048000D02*
X36703000Y-3048000D01*
D28*
%TO.N,Net-(D3-Pad1)*%
X3111000Y-1397000D02*
X4673500Y-1397000D01*
D26*
%TO.N,+3.3V*%
X38227000Y-23495000D02*
X33528000Y-23495000D01*
X38480000Y-3047000D02*
X38989000Y-3556000D01*
X10490200Y-1397000D02*
X10515600Y-1371600D01*
X38480000Y-1397000D02*
X38480000Y-3047000D01*
X38989000Y-22733000D02*
X38227000Y-23495000D01*
X6248500Y-1397000D02*
X10490200Y-1397000D01*
X33528000Y-23495000D02*
X32525000Y-22492000D01*
X38989000Y-3556000D02*
X38989000Y-22733000D01*
X32525000Y-22492000D02*
X32525000Y-20345000D01*
D28*
%TO.N,Net-(D4-Pad1)*%
X4673500Y-3048000D02*
X3111000Y-3048000D01*
D26*
%TO.N,+5V*%
X10261600Y-3048000D02*
X10617200Y-2692400D01*
X6248500Y-3048000D02*
X10261600Y-3048000D01*
D28*
%TO.N,Net-(IC1-Pad3)*%
X23827500Y-6223000D02*
X21438000Y-6223000D01*
D25*
%TO.N,Net-(D5-Pad2)*%
X13169000Y-12700000D02*
X13169000Y-13705000D01*
X13169000Y-13705000D02*
X14069000Y-14605000D01*
X14069000Y-14605000D02*
X14069000Y-16904000D01*
D26*
%TO.N,Net-(D7-Pad2)*%
X10668000Y-9652000D02*
X10030000Y-9652000D01*
X12153480Y-8166520D02*
X10668000Y-9652000D01*
X12954000Y-2413000D02*
X12153480Y-3213520D01*
X12153480Y-3213520D02*
X12153480Y-8166520D01*
D28*
%TO.N,Net-(D8-Pad1)*%
X4673500Y-4699000D02*
X3111000Y-4699000D01*
D25*
%TO.N,Gate*%
X3175000Y-11811000D02*
X3175000Y-9398000D01*
X5651000Y-14287000D02*
X3175000Y-11811000D01*
X4953000Y-7620000D02*
X11303000Y-7620000D01*
X6576000Y-17145000D02*
X6576000Y-16038000D01*
X6576000Y-17145000D02*
X5052000Y-18669000D01*
X6576000Y-16038000D02*
X5651000Y-15113000D01*
X5052000Y-18669000D02*
X5052000Y-20320000D01*
X3175000Y-9398000D02*
X4953000Y-7620000D01*
X5651000Y-15113000D02*
X5651000Y-14287000D01*
D28*
%TO.N,Net-(IC1-Pad1)*%
X23559000Y-8763000D02*
X21438000Y-8763000D01*
D26*
%TO.N,GNDD*%
X30962520Y-6197520D02*
X32525000Y-7760000D01*
X25702500Y-5273000D02*
X25702500Y-6093700D01*
X25806320Y-6197520D02*
X30962520Y-6197520D01*
D28*
X1461000Y-1397000D02*
X1461000Y-3048000D01*
D26*
X2350000Y-508000D02*
X1461000Y-1397000D01*
X25702500Y-5273000D02*
X23561000Y-5273000D01*
X25702500Y-6093700D02*
X25806320Y-6197520D01*
X32525000Y-7760000D02*
X32525000Y-17805000D01*
X23561000Y-5273000D02*
X18796000Y-508000D01*
X18796000Y-508000D02*
X2350000Y-508000D01*
%TO.N,/pulse IN*%
X26154511Y-19095489D02*
X26154511Y-9708511D01*
X26154511Y-9708511D02*
X25209000Y-8763000D01*
X24905000Y-20345000D02*
X26154511Y-19095489D01*
D25*
%TO.N,Drain*%
X10569000Y-19784000D02*
X10569000Y-16904000D01*
X10033000Y-20320000D02*
X10569000Y-19784000D01*
X7592000Y-20320000D02*
X10033000Y-20320000D01*
%TO.N,Source*%
X2512000Y-17709000D02*
X3076000Y-17145000D01*
X2512000Y-20320000D02*
X2512000Y-17709000D01*
X3076000Y-17145000D02*
X3076000Y-16038000D01*
X3076000Y-16038000D02*
X4001000Y-15113000D01*
D29*
%TO.N,/VO*%
X15585480Y-11775480D02*
X16637000Y-12827000D01*
X11519000Y-12700000D02*
X12443520Y-11775480D01*
X12443520Y-11775480D02*
X15585480Y-11775480D01*
D28*
X13080000Y-7493000D02*
X12953000Y-7620000D01*
X15138000Y-7493000D02*
X13080000Y-7493000D01*
D29*
X17018000Y-7493000D02*
X15138000Y-7493000D01*
D26*
%TO.N,/Error_OUT*%
X8128000Y-14158998D02*
X6288002Y-12319000D01*
X4254000Y-11366000D02*
X5207000Y-12319000D01*
X5207000Y-12319000D02*
X6288002Y-12319000D01*
X4254000Y-10668000D02*
X4254000Y-11366000D01*
X8128000Y-17272000D02*
X8128000Y-14158998D01*
X9398000Y-18542000D02*
X8128000Y-17272000D01*
D28*
%TO.N,Net-(Q1-Pad1)*%
X27434000Y-7173000D02*
X27559000Y-7048000D01*
X25702500Y-7173000D02*
X27434000Y-7173000D01*
D26*
%TO.N,Common*%
X15138000Y-6223000D02*
X17430419Y-6223000D01*
X17430419Y-6223000D02*
X17685318Y-5968101D01*
%TD*%
%TA.AperFunction,Conductor*%
%TO.N,Common*%
G36*
X16198121Y-18308002D02*
G01*
X16244614Y-18361658D01*
X16256000Y-18414000D01*
X16256000Y-20193000D01*
X16264606Y-20199620D01*
X17857824Y-21425172D01*
X17899622Y-21482560D01*
X17907000Y-21525043D01*
X17907000Y-21622781D01*
X17904310Y-21648373D01*
X17902458Y-21654072D01*
X17882496Y-21844000D01*
X17883186Y-21850565D01*
X17886810Y-21885045D01*
X17887500Y-21898216D01*
X17887500Y-22177497D01*
X17867498Y-22245618D01*
X17850595Y-22266592D01*
X17762592Y-22354595D01*
X17700280Y-22388621D01*
X17673497Y-22391500D01*
X11810000Y-22391500D01*
X11741879Y-22371498D01*
X11695386Y-22317842D01*
X11684000Y-22265500D01*
X11684000Y-21527841D01*
X11704002Y-21459720D01*
X11736763Y-21425312D01*
X13462000Y-20193000D01*
X13462000Y-18414000D01*
X13482002Y-18345879D01*
X13535658Y-18299386D01*
X13588000Y-18288000D01*
X16130000Y-18288000D01*
X16198121Y-18308002D01*
G37*
%TD.AperFunction*%
%TD*%
%TA.AperFunction,Conductor*%
%TO.N,GNDD*%
G36*
X32993567Y-2075502D02*
G01*
X33023636Y-2102734D01*
X33026929Y-2108055D01*
X33032108Y-2113225D01*
X33032112Y-2113230D01*
X33052303Y-2133385D01*
X33086384Y-2195667D01*
X33081382Y-2266487D01*
X33052460Y-2311577D01*
X33026136Y-2337947D01*
X32937151Y-2482308D01*
X32934846Y-2489256D01*
X32934846Y-2489257D01*
X32921045Y-2530867D01*
X32883762Y-2643269D01*
X32873500Y-2743428D01*
X32873500Y-3352572D01*
X32873837Y-3355818D01*
X32873837Y-3355822D01*
X32876308Y-3379634D01*
X32884022Y-3453982D01*
X32937692Y-3614849D01*
X33026929Y-3759055D01*
X33146947Y-3878864D01*
X33153177Y-3882704D01*
X33153178Y-3882705D01*
X33162703Y-3888576D01*
X33291308Y-3967849D01*
X33298256Y-3970154D01*
X33298257Y-3970154D01*
X33445738Y-4019072D01*
X33445740Y-4019072D01*
X33452269Y-4021238D01*
X33552428Y-4031500D01*
X33819550Y-4031500D01*
X33887671Y-4051502D01*
X33908645Y-4068405D01*
X37404595Y-7564355D01*
X37438621Y-7626667D01*
X37441500Y-7653450D01*
X37441500Y-10587552D01*
X37421498Y-10655673D01*
X37366749Y-10702659D01*
X37230778Y-10763197D01*
X37230776Y-10763198D01*
X37224748Y-10765882D01*
X37219407Y-10769762D01*
X37219406Y-10769763D01*
X37197476Y-10785696D01*
X37070247Y-10878134D01*
X37065826Y-10883044D01*
X37065825Y-10883045D01*
X36975191Y-10983705D01*
X36942460Y-11020056D01*
X36846973Y-11185444D01*
X36787958Y-11367072D01*
X36787268Y-11373633D01*
X36787268Y-11373635D01*
X36779220Y-11450206D01*
X36767996Y-11557000D01*
X36768686Y-11563565D01*
X36778853Y-11660294D01*
X36787958Y-11746928D01*
X36846973Y-11928556D01*
X36850276Y-11934278D01*
X36850277Y-11934279D01*
X36861507Y-11953729D01*
X36942460Y-12093944D01*
X36946878Y-12098851D01*
X36946879Y-12098852D01*
X37032500Y-12193944D01*
X37070247Y-12235866D01*
X37157362Y-12299159D01*
X37216636Y-12342224D01*
X37224748Y-12348118D01*
X37230776Y-12350802D01*
X37230778Y-12350803D01*
X37390863Y-12422077D01*
X37399212Y-12425794D01*
X37492612Y-12445647D01*
X37579556Y-12464128D01*
X37579561Y-12464128D01*
X37586013Y-12465500D01*
X37776987Y-12465500D01*
X37783439Y-12464128D01*
X37783444Y-12464128D01*
X37870388Y-12445647D01*
X37963788Y-12425794D01*
X37972137Y-12422077D01*
X38132222Y-12350803D01*
X38132224Y-12350802D01*
X38138252Y-12348118D01*
X38142144Y-12345290D01*
X38210493Y-12328708D01*
X38277586Y-12351927D01*
X38321474Y-12407734D01*
X38330500Y-12454565D01*
X38330500Y-16320500D01*
X38310498Y-16388621D01*
X38256842Y-16435114D01*
X38204500Y-16446500D01*
X36706866Y-16446500D01*
X36644684Y-16453255D01*
X36508295Y-16504385D01*
X36391739Y-16591739D01*
X36304385Y-16708295D01*
X36301233Y-16716704D01*
X36301232Y-16716705D01*
X36259722Y-16827433D01*
X36217081Y-16884198D01*
X36150519Y-16908898D01*
X36081170Y-16893691D01*
X36048546Y-16868004D01*
X35997799Y-16812234D01*
X35990273Y-16805215D01*
X35823139Y-16673222D01*
X35814552Y-16667517D01*
X35628117Y-16564599D01*
X35618705Y-16560369D01*
X35417959Y-16489280D01*
X35407988Y-16486646D01*
X35336837Y-16473972D01*
X35323540Y-16475432D01*
X35319000Y-16489989D01*
X35319000Y-17933000D01*
X35298998Y-18001121D01*
X35245342Y-18047614D01*
X35193000Y-18059000D01*
X34599989Y-18059000D01*
X34531868Y-18038998D01*
X34485375Y-17985342D01*
X34473989Y-17933000D01*
X34473989Y-17677000D01*
X34493991Y-17608879D01*
X34547647Y-17562386D01*
X34599989Y-17551000D01*
X34792885Y-17551000D01*
X34808124Y-17546525D01*
X34809329Y-17545135D01*
X34811000Y-17537452D01*
X34811000Y-16488102D01*
X34807082Y-16474758D01*
X34792806Y-16472771D01*
X34754324Y-16478660D01*
X34744288Y-16481051D01*
X34639134Y-16515420D01*
X34568169Y-16517571D01*
X34507308Y-16481014D01*
X34475872Y-16417357D01*
X34473989Y-16395655D01*
X34473989Y-7100545D01*
X34474548Y-7088689D01*
X34474548Y-7088686D01*
X34476277Y-7080952D01*
X34474051Y-7010120D01*
X34473989Y-7006162D01*
X34473989Y-6977057D01*
X34473433Y-6972657D01*
X34472501Y-6960819D01*
X34472427Y-6958443D01*
X34471051Y-6914658D01*
X34465069Y-6894068D01*
X34461059Y-6874705D01*
X34459364Y-6861285D01*
X34459364Y-6861284D01*
X34458371Y-6853425D01*
X34455455Y-6846060D01*
X34455454Y-6846056D01*
X34441363Y-6810468D01*
X34437524Y-6799258D01*
X34424634Y-6754889D01*
X34413714Y-6736424D01*
X34405023Y-6718684D01*
X34397124Y-6698733D01*
X34369971Y-6661360D01*
X34363456Y-6651441D01*
X34343982Y-6618512D01*
X34343979Y-6618508D01*
X34339942Y-6611682D01*
X34324778Y-6596518D01*
X34311937Y-6581484D01*
X34303990Y-6570546D01*
X34299330Y-6564132D01*
X34263736Y-6534686D01*
X34254957Y-6526697D01*
X32781655Y-5053395D01*
X32773665Y-5044615D01*
X32773663Y-5044613D01*
X32769416Y-5037920D01*
X32745761Y-5015706D01*
X32717743Y-4989396D01*
X32714901Y-4986641D01*
X32694333Y-4966073D01*
X32690826Y-4963353D01*
X32681804Y-4955647D01*
X32653913Y-4929456D01*
X32648133Y-4924028D01*
X32641181Y-4920206D01*
X32629342Y-4913697D01*
X32612818Y-4902843D01*
X32602132Y-4894555D01*
X32595868Y-4889696D01*
X32588596Y-4886549D01*
X32588594Y-4886548D01*
X32553465Y-4871346D01*
X32542805Y-4866124D01*
X32509284Y-4847695D01*
X32509282Y-4847694D01*
X32502337Y-4843876D01*
X32481559Y-4838541D01*
X32462869Y-4832142D01*
X32443176Y-4823620D01*
X32397552Y-4816394D01*
X32385929Y-4813987D01*
X32357928Y-4806798D01*
X32341188Y-4802500D01*
X32319741Y-4802500D01*
X32300031Y-4800949D01*
X32286677Y-4798834D01*
X32278848Y-4797594D01*
X32232859Y-4801941D01*
X32221004Y-4802500D01*
X28490988Y-4802500D01*
X28422867Y-4782498D01*
X28395763Y-4757824D01*
X28395639Y-4757619D01*
X28274381Y-4636361D01*
X28267882Y-4632425D01*
X28265751Y-4630754D01*
X28224488Y-4572980D01*
X28217500Y-4531602D01*
X28217500Y-3245950D01*
X28237502Y-3177829D01*
X28254405Y-3156855D01*
X29318854Y-2092405D01*
X29381166Y-2058380D01*
X29407949Y-2055500D01*
X32925446Y-2055500D01*
X32993567Y-2075502D01*
G37*
%TD.AperFunction*%
%TA.AperFunction,Conductor*%
G36*
X32001171Y-6139502D02*
G01*
X32022145Y-6156405D01*
X33120084Y-7254344D01*
X33154110Y-7316656D01*
X33156989Y-7343439D01*
X33156989Y-16409804D01*
X33136987Y-16477925D01*
X33083331Y-16524418D01*
X33013057Y-16534522D01*
X32988929Y-16528577D01*
X32877959Y-16489280D01*
X32867988Y-16486646D01*
X32796837Y-16473972D01*
X32783540Y-16475432D01*
X32779000Y-16489989D01*
X32779000Y-17532885D01*
X32783475Y-17548124D01*
X32784865Y-17549329D01*
X32792548Y-17551000D01*
X33030989Y-17551000D01*
X33099110Y-17571002D01*
X33145603Y-17624658D01*
X33156989Y-17677000D01*
X33156989Y-17933000D01*
X33136987Y-18001121D01*
X33083331Y-18047614D01*
X33030989Y-18059000D01*
X26939011Y-18059000D01*
X26870890Y-18038998D01*
X26824397Y-17985342D01*
X26813011Y-17933000D01*
X26813011Y-17677000D01*
X26833013Y-17608879D01*
X26886669Y-17562386D01*
X26939011Y-17551000D01*
X27172885Y-17551000D01*
X27188124Y-17546525D01*
X27189329Y-17545135D01*
X27191000Y-17537452D01*
X27191000Y-17532885D01*
X27699000Y-17532885D01*
X27703475Y-17548124D01*
X27704865Y-17549329D01*
X27712548Y-17551000D01*
X29712885Y-17551000D01*
X29728124Y-17546525D01*
X29729329Y-17545135D01*
X29731000Y-17537452D01*
X29731000Y-17532885D01*
X30239000Y-17532885D01*
X30243475Y-17548124D01*
X30244865Y-17549329D01*
X30252548Y-17551000D01*
X32252885Y-17551000D01*
X32268124Y-17546525D01*
X32269329Y-17545135D01*
X32271000Y-17537452D01*
X32271000Y-16488102D01*
X32267082Y-16474758D01*
X32252806Y-16472771D01*
X32214324Y-16478660D01*
X32204288Y-16481051D01*
X32001868Y-16547212D01*
X31992359Y-16551209D01*
X31803463Y-16649542D01*
X31794738Y-16655036D01*
X31624433Y-16782905D01*
X31616726Y-16789748D01*
X31469590Y-16943717D01*
X31463104Y-16951727D01*
X31358193Y-17105521D01*
X31303282Y-17150524D01*
X31232757Y-17158695D01*
X31169010Y-17127441D01*
X31148313Y-17102957D01*
X31067427Y-16977926D01*
X31061136Y-16969757D01*
X30917806Y-16812240D01*
X30910273Y-16805215D01*
X30743139Y-16673222D01*
X30734552Y-16667517D01*
X30548117Y-16564599D01*
X30538705Y-16560369D01*
X30337959Y-16489280D01*
X30327988Y-16486646D01*
X30256837Y-16473972D01*
X30243540Y-16475432D01*
X30239000Y-16489989D01*
X30239000Y-17532885D01*
X29731000Y-17532885D01*
X29731000Y-16488102D01*
X29727082Y-16474758D01*
X29712806Y-16472771D01*
X29674324Y-16478660D01*
X29664288Y-16481051D01*
X29461868Y-16547212D01*
X29452359Y-16551209D01*
X29263463Y-16649542D01*
X29254738Y-16655036D01*
X29084433Y-16782905D01*
X29076726Y-16789748D01*
X28929590Y-16943717D01*
X28923104Y-16951727D01*
X28818193Y-17105521D01*
X28763282Y-17150524D01*
X28692757Y-17158695D01*
X28629010Y-17127441D01*
X28608313Y-17102957D01*
X28527427Y-16977926D01*
X28521136Y-16969757D01*
X28377806Y-16812240D01*
X28370273Y-16805215D01*
X28203139Y-16673222D01*
X28194552Y-16667517D01*
X28008117Y-16564599D01*
X27998705Y-16560369D01*
X27797959Y-16489280D01*
X27787988Y-16486646D01*
X27716837Y-16473972D01*
X27703540Y-16475432D01*
X27699000Y-16489989D01*
X27699000Y-17532885D01*
X27191000Y-17532885D01*
X27191000Y-16488102D01*
X27187082Y-16474758D01*
X27172806Y-16472771D01*
X27134324Y-16478660D01*
X27124288Y-16481051D01*
X26978156Y-16528814D01*
X26907192Y-16530965D01*
X26846330Y-16494409D01*
X26814894Y-16430751D01*
X26813011Y-16409049D01*
X26813011Y-9790567D01*
X26813570Y-9778711D01*
X26813570Y-9778708D01*
X26815299Y-9770974D01*
X26813073Y-9700142D01*
X26813011Y-9696184D01*
X26813011Y-9667079D01*
X26812455Y-9662679D01*
X26811523Y-9650841D01*
X26810322Y-9612605D01*
X26810073Y-9604680D01*
X26804091Y-9584090D01*
X26800081Y-9564727D01*
X26798386Y-9551307D01*
X26798386Y-9551306D01*
X26797393Y-9543447D01*
X26794477Y-9536082D01*
X26794476Y-9536078D01*
X26780387Y-9500493D01*
X26776542Y-9489264D01*
X26765867Y-9452521D01*
X26763656Y-9444910D01*
X26752741Y-9426454D01*
X26744042Y-9408698D01*
X26739806Y-9398000D01*
X26736146Y-9388755D01*
X26708991Y-9351379D01*
X26702476Y-9341460D01*
X26683003Y-9308534D01*
X26683000Y-9308530D01*
X26678963Y-9301704D01*
X26663802Y-9286543D01*
X26650960Y-9271508D01*
X26638352Y-9254154D01*
X26602753Y-9224704D01*
X26593974Y-9216715D01*
X26154404Y-8777145D01*
X26120378Y-8714833D01*
X26117499Y-8688050D01*
X26117499Y-8431366D01*
X26110753Y-8357938D01*
X26059472Y-8194301D01*
X26046433Y-8172771D01*
X26028254Y-8104142D01*
X26050064Y-8036578D01*
X26104940Y-7991532D01*
X26154209Y-7981500D01*
X26356502Y-7981500D01*
X26358950Y-7981307D01*
X26358958Y-7981307D01*
X26387421Y-7979067D01*
X26387426Y-7979066D01*
X26393831Y-7978562D01*
X26400007Y-7976768D01*
X26400011Y-7976767D01*
X26538602Y-7936503D01*
X26573754Y-7931500D01*
X27076413Y-7931500D01*
X27114092Y-7937266D01*
X27153938Y-7949753D01*
X27227365Y-7956500D01*
X27230263Y-7956500D01*
X27559860Y-7956499D01*
X27890634Y-7956499D01*
X27893492Y-7956236D01*
X27893501Y-7956236D01*
X27929004Y-7952974D01*
X27964062Y-7949753D01*
X28011557Y-7934869D01*
X28120450Y-7900744D01*
X28120452Y-7900743D01*
X28127699Y-7898472D01*
X28274381Y-7809639D01*
X28395639Y-7688381D01*
X28484472Y-7541699D01*
X28499734Y-7493000D01*
X28518534Y-7433008D01*
X28535753Y-7378062D01*
X28542500Y-7304635D01*
X28542499Y-6791366D01*
X28541559Y-6781126D01*
X28537452Y-6736431D01*
X28535753Y-6717938D01*
X28533754Y-6711559D01*
X28486744Y-6561550D01*
X28486743Y-6561548D01*
X28484472Y-6554301D01*
X28395639Y-6407619D01*
X28322615Y-6334595D01*
X28288589Y-6272283D01*
X28293654Y-6201468D01*
X28336201Y-6144632D01*
X28402721Y-6119821D01*
X28411710Y-6119500D01*
X31933050Y-6119500D01*
X32001171Y-6139502D01*
G37*
%TD.AperFunction*%
%TA.AperFunction,Conductor*%
G36*
X28949277Y-528502D02*
G01*
X28995770Y-582158D01*
X29005874Y-652432D01*
X28976380Y-717012D01*
X28917635Y-753359D01*
X28917935Y-754118D01*
X28913695Y-755797D01*
X28910566Y-757036D01*
X28874982Y-771124D01*
X28863752Y-774969D01*
X28819399Y-787855D01*
X28812575Y-791891D01*
X28800943Y-798770D01*
X28783187Y-807469D01*
X28763244Y-815365D01*
X28737224Y-834270D01*
X28725868Y-842520D01*
X28715949Y-849035D01*
X28683023Y-868508D01*
X28683019Y-868511D01*
X28676193Y-872548D01*
X28661032Y-887709D01*
X28646000Y-900548D01*
X28628643Y-913159D01*
X28623593Y-919263D01*
X28623591Y-919265D01*
X28599188Y-948763D01*
X28591199Y-957541D01*
X27172099Y-2376642D01*
X27109787Y-2410667D01*
X27038972Y-2405603D01*
X26982136Y-2363056D01*
X26957483Y-2298529D01*
X26956293Y-2284930D01*
X26947543Y-2184913D01*
X26933746Y-2133423D01*
X26889707Y-1969067D01*
X26889706Y-1969065D01*
X26888284Y-1963757D01*
X26812885Y-1802062D01*
X26793849Y-1761238D01*
X26793846Y-1761233D01*
X26791523Y-1756251D01*
X26660198Y-1568700D01*
X26498300Y-1406802D01*
X26493792Y-1403645D01*
X26493789Y-1403643D01*
X26415611Y-1348902D01*
X26310749Y-1275477D01*
X26305767Y-1273154D01*
X26305762Y-1273151D01*
X26108225Y-1181039D01*
X26108224Y-1181039D01*
X26103243Y-1178716D01*
X26097935Y-1177294D01*
X26097933Y-1177293D01*
X25887402Y-1120881D01*
X25887400Y-1120881D01*
X25882087Y-1119457D01*
X25654000Y-1099502D01*
X25425913Y-1119457D01*
X25420600Y-1120881D01*
X25420598Y-1120881D01*
X25210067Y-1177293D01*
X25210065Y-1177294D01*
X25204757Y-1178716D01*
X25199776Y-1181039D01*
X25199775Y-1181039D01*
X25002238Y-1273151D01*
X25002233Y-1273154D01*
X24997251Y-1275477D01*
X24892389Y-1348902D01*
X24814211Y-1403643D01*
X24814208Y-1403645D01*
X24809700Y-1406802D01*
X24647802Y-1568700D01*
X24516477Y-1756251D01*
X24514154Y-1761233D01*
X24514151Y-1761238D01*
X24495115Y-1802062D01*
X24419716Y-1963757D01*
X24418294Y-1969065D01*
X24418293Y-1969067D01*
X24374254Y-2133423D01*
X24360457Y-2184913D01*
X24340502Y-2413000D01*
X24360457Y-2641087D01*
X24361881Y-2646400D01*
X24361881Y-2646402D01*
X24388742Y-2746646D01*
X24419716Y-2862243D01*
X24422039Y-2867224D01*
X24422039Y-2867225D01*
X24514151Y-3064762D01*
X24514154Y-3064767D01*
X24516477Y-3069749D01*
X24580859Y-3161696D01*
X24639855Y-3245950D01*
X24647802Y-3257300D01*
X24809700Y-3419198D01*
X24814208Y-3422355D01*
X24814211Y-3422357D01*
X24892389Y-3477098D01*
X24997251Y-3550523D01*
X25002233Y-3552846D01*
X25002238Y-3552849D01*
X25183835Y-3637528D01*
X25204757Y-3647284D01*
X25210065Y-3648706D01*
X25210067Y-3648707D01*
X25420598Y-3705119D01*
X25420600Y-3705119D01*
X25425913Y-3706543D01*
X25654000Y-3726498D01*
X25882087Y-3706543D01*
X25887400Y-3705119D01*
X25887402Y-3705119D01*
X26097933Y-3648707D01*
X26097935Y-3648706D01*
X26103243Y-3647284D01*
X26124165Y-3637528D01*
X26305762Y-3552849D01*
X26305767Y-3552846D01*
X26310749Y-3550523D01*
X26415611Y-3477098D01*
X26493789Y-3422357D01*
X26493792Y-3422355D01*
X26498300Y-3419198D01*
X26660198Y-3257300D01*
X26671287Y-3241463D01*
X26726743Y-3197135D01*
X26797362Y-3189826D01*
X26860723Y-3221856D01*
X26896708Y-3283057D01*
X26900500Y-3313734D01*
X26900500Y-4501245D01*
X26880498Y-4569366D01*
X26826842Y-4615859D01*
X26756568Y-4625963D01*
X26697270Y-4600802D01*
X26689673Y-4594909D01*
X26560221Y-4518352D01*
X26545790Y-4512107D01*
X26399935Y-4469731D01*
X26387333Y-4467430D01*
X26358916Y-4465193D01*
X26353986Y-4465000D01*
X25974615Y-4465000D01*
X25959376Y-4469475D01*
X25958171Y-4470865D01*
X25956500Y-4478548D01*
X25956500Y-6062884D01*
X25960975Y-6078123D01*
X25962365Y-6079328D01*
X25970048Y-6080999D01*
X26353984Y-6080999D01*
X26358920Y-6080805D01*
X26387336Y-6078570D01*
X26399931Y-6076270D01*
X26545793Y-6033892D01*
X26560220Y-6027649D01*
X26571242Y-6021131D01*
X26640059Y-6003674D01*
X26707389Y-6026194D01*
X26724472Y-6040492D01*
X26817885Y-6133905D01*
X26851911Y-6196217D01*
X26846846Y-6267032D01*
X26817885Y-6312095D01*
X26752385Y-6377595D01*
X26690073Y-6411621D01*
X26663290Y-6414500D01*
X26573754Y-6414500D01*
X26538602Y-6409497D01*
X26400011Y-6369233D01*
X26400007Y-6369232D01*
X26393831Y-6367438D01*
X26387426Y-6366934D01*
X26387421Y-6366933D01*
X26358958Y-6364693D01*
X26358950Y-6364693D01*
X26356502Y-6364500D01*
X25199500Y-6364500D01*
X25131379Y-6344498D01*
X25084886Y-6290842D01*
X25073500Y-6238500D01*
X25073500Y-6207000D01*
X25093502Y-6138879D01*
X25147158Y-6092386D01*
X25199500Y-6081000D01*
X25430385Y-6081000D01*
X25445624Y-6076525D01*
X25446829Y-6075135D01*
X25448500Y-6067452D01*
X25448500Y-5545115D01*
X25444025Y-5529876D01*
X25442635Y-5528671D01*
X25434952Y-5527000D01*
X24819842Y-5527000D01*
X24755703Y-5509453D01*
X24685427Y-5467892D01*
X24685428Y-5467892D01*
X24678601Y-5463855D01*
X24670990Y-5461644D01*
X24670988Y-5461643D01*
X24585734Y-5436875D01*
X24518831Y-5417438D01*
X24512426Y-5416934D01*
X24512421Y-5416933D01*
X24483958Y-5414693D01*
X24483950Y-5414693D01*
X24481502Y-5414500D01*
X23173498Y-5414500D01*
X23171050Y-5414693D01*
X23171042Y-5414693D01*
X23142579Y-5416933D01*
X23142574Y-5416934D01*
X23136169Y-5417438D01*
X23129993Y-5419232D01*
X23129989Y-5419233D01*
X22991398Y-5459497D01*
X22956246Y-5464500D01*
X22736418Y-5464500D01*
X22685087Y-5451367D01*
X22684705Y-5452385D01*
X22548316Y-5401255D01*
X22486134Y-5394500D01*
X20389866Y-5394500D01*
X20327684Y-5401255D01*
X20191295Y-5452385D01*
X20074739Y-5539739D01*
X19987385Y-5656295D01*
X19936255Y-5792684D01*
X19929500Y-5854866D01*
X19929500Y-6591134D01*
X19936255Y-6653316D01*
X19987385Y-6789705D01*
X20074739Y-6906261D01*
X20191295Y-6993615D01*
X20327684Y-7044745D01*
X20389866Y-7051500D01*
X22486134Y-7051500D01*
X22548316Y-7044745D01*
X22684705Y-6993615D01*
X22685087Y-6994633D01*
X22736418Y-6981500D01*
X22956246Y-6981500D01*
X22991398Y-6986503D01*
X23129989Y-7026767D01*
X23129993Y-7026768D01*
X23136169Y-7028562D01*
X23142574Y-7029066D01*
X23142579Y-7029067D01*
X23171042Y-7031307D01*
X23171050Y-7031307D01*
X23173498Y-7031500D01*
X24330500Y-7031500D01*
X24398621Y-7051502D01*
X24445114Y-7105158D01*
X24456500Y-7157500D01*
X24456500Y-7389502D01*
X24459438Y-7426831D01*
X24505855Y-7586601D01*
X24509892Y-7593427D01*
X24586509Y-7722980D01*
X24586511Y-7722983D01*
X24590547Y-7729807D01*
X24596155Y-7735415D01*
X24601011Y-7741675D01*
X24598422Y-7743683D01*
X24625229Y-7792775D01*
X24620164Y-7863590D01*
X24579854Y-7918712D01*
X24575120Y-7922424D01*
X24568619Y-7926361D01*
X24473095Y-8021885D01*
X24410783Y-8055911D01*
X24339968Y-8050846D01*
X24294905Y-8021885D01*
X24199381Y-7926361D01*
X24052699Y-7837528D01*
X24045452Y-7835257D01*
X24045450Y-7835256D01*
X23976268Y-7813576D01*
X23889062Y-7786247D01*
X23815635Y-7779500D01*
X23812737Y-7779500D01*
X23558335Y-7779501D01*
X23302366Y-7779501D01*
X23299508Y-7779764D01*
X23299499Y-7779764D01*
X23263996Y-7783026D01*
X23228938Y-7786247D01*
X23222560Y-7788246D01*
X23222559Y-7788246D01*
X23072550Y-7835256D01*
X23072548Y-7835257D01*
X23065301Y-7837528D01*
X22918619Y-7926361D01*
X22877385Y-7967595D01*
X22815073Y-8001621D01*
X22788290Y-8004500D01*
X22736418Y-8004500D01*
X22685087Y-7991367D01*
X22684705Y-7992385D01*
X22548316Y-7941255D01*
X22486134Y-7934500D01*
X20389866Y-7934500D01*
X20327684Y-7941255D01*
X20191295Y-7992385D01*
X20074739Y-8079739D01*
X19987385Y-8196295D01*
X19936255Y-8332684D01*
X19929500Y-8394866D01*
X19929500Y-9131134D01*
X19936255Y-9193316D01*
X19987385Y-9329705D01*
X20074739Y-9446261D01*
X20191295Y-9533615D01*
X20327684Y-9584745D01*
X20389866Y-9591500D01*
X22486134Y-9591500D01*
X22548316Y-9584745D01*
X22684705Y-9533615D01*
X22685087Y-9534633D01*
X22736418Y-9521500D01*
X22788290Y-9521500D01*
X22856411Y-9541502D01*
X22877385Y-9558405D01*
X22918619Y-9599639D01*
X23065301Y-9688472D01*
X23072548Y-9690743D01*
X23072550Y-9690744D01*
X23128907Y-9708405D01*
X23228938Y-9739753D01*
X23302365Y-9746500D01*
X23305263Y-9746500D01*
X23559665Y-9746499D01*
X23815634Y-9746499D01*
X23818492Y-9746236D01*
X23818501Y-9746236D01*
X23854004Y-9742974D01*
X23889062Y-9739753D01*
X23916198Y-9731249D01*
X24045450Y-9690744D01*
X24045452Y-9690743D01*
X24052699Y-9688472D01*
X24199381Y-9599639D01*
X24294905Y-9504115D01*
X24357217Y-9470089D01*
X24428032Y-9475154D01*
X24473095Y-9504115D01*
X24568619Y-9599639D01*
X24715301Y-9688472D01*
X24722548Y-9690743D01*
X24722550Y-9690744D01*
X24778907Y-9708405D01*
X24878938Y-9739753D01*
X24952365Y-9746500D01*
X24968614Y-9746500D01*
X25209051Y-9746499D01*
X25277170Y-9766501D01*
X25298145Y-9783404D01*
X25459106Y-9944365D01*
X25493132Y-10006677D01*
X25496011Y-10033460D01*
X25496011Y-16395293D01*
X25476009Y-16463414D01*
X25422353Y-16509907D01*
X25352079Y-16520011D01*
X25327951Y-16514066D01*
X25257959Y-16489280D01*
X25247988Y-16486646D01*
X25176837Y-16473972D01*
X25163540Y-16475432D01*
X25159000Y-16489989D01*
X25159000Y-17532885D01*
X25163475Y-17548124D01*
X25164865Y-17549329D01*
X25172548Y-17551000D01*
X25370011Y-17551000D01*
X25438132Y-17571002D01*
X25484625Y-17624658D01*
X25496011Y-17677000D01*
X25496011Y-17933000D01*
X25476009Y-18001121D01*
X25422353Y-18047614D01*
X25370011Y-18059000D01*
X22237000Y-18059000D01*
X22168879Y-18038998D01*
X22122386Y-17985342D01*
X22111000Y-17933000D01*
X22111000Y-17677000D01*
X22131002Y-17608879D01*
X22184658Y-17562386D01*
X22237000Y-17551000D01*
X24632885Y-17551000D01*
X24648124Y-17546525D01*
X24649329Y-17545135D01*
X24651000Y-17537452D01*
X24651000Y-16488102D01*
X24647082Y-16474758D01*
X24632806Y-16472771D01*
X24594324Y-16478660D01*
X24584288Y-16481051D01*
X24381868Y-16547212D01*
X24372359Y-16551209D01*
X24183463Y-16649542D01*
X24174738Y-16655036D01*
X24004433Y-16782905D01*
X23996726Y-16789748D01*
X23849590Y-16943717D01*
X23843104Y-16951727D01*
X23738193Y-17105521D01*
X23683282Y-17150524D01*
X23612757Y-17158695D01*
X23549010Y-17127441D01*
X23528313Y-17102957D01*
X23447427Y-16977926D01*
X23441136Y-16969757D01*
X23297806Y-16812240D01*
X23290273Y-16805215D01*
X23123139Y-16673222D01*
X23114552Y-16667517D01*
X22928117Y-16564599D01*
X22918705Y-16560369D01*
X22766624Y-16506514D01*
X22709088Y-16464920D01*
X22683172Y-16398822D01*
X22697106Y-16329206D01*
X22719589Y-16298646D01*
X23227830Y-15790405D01*
X23290142Y-15756379D01*
X23316925Y-15753500D01*
X23748742Y-15753500D01*
X23782329Y-15752400D01*
X23783391Y-15752330D01*
X23783399Y-15752330D01*
X23797728Y-15751391D01*
X23797750Y-15751389D01*
X23798775Y-15751322D01*
X23820588Y-15749174D01*
X23831160Y-15748133D01*
X23831172Y-15748132D01*
X23832214Y-15748029D01*
X23936989Y-15734235D01*
X23938995Y-15733836D01*
X23939001Y-15733835D01*
X24000836Y-15721535D01*
X24002862Y-15721132D01*
X24004842Y-15720602D01*
X24004857Y-15720598D01*
X24020877Y-15716305D01*
X24034634Y-15712619D01*
X24098243Y-15691027D01*
X24100152Y-15690236D01*
X24100158Y-15690234D01*
X24126763Y-15679214D01*
X24188182Y-15653773D01*
X24248431Y-15624061D01*
X24250211Y-15623033D01*
X24250219Y-15623029D01*
X24275133Y-15608644D01*
X24275132Y-15608644D01*
X24276917Y-15607614D01*
X24278611Y-15606482D01*
X24278624Y-15606474D01*
X24331056Y-15571439D01*
X24331058Y-15571438D01*
X24332759Y-15570301D01*
X24401928Y-15517226D01*
X24408362Y-15512289D01*
X24408367Y-15512285D01*
X24409992Y-15511038D01*
X24460492Y-15466750D01*
X24483750Y-15443492D01*
X24496245Y-15429245D01*
X24526684Y-15394536D01*
X24526685Y-15394535D01*
X24528038Y-15392992D01*
X24587301Y-15315759D01*
X24588439Y-15314056D01*
X24623474Y-15261624D01*
X24623482Y-15261611D01*
X24624614Y-15259917D01*
X24641061Y-15231431D01*
X24670773Y-15171182D01*
X24708027Y-15081243D01*
X24729619Y-15017634D01*
X24733305Y-15003877D01*
X24737598Y-14987857D01*
X24737602Y-14987842D01*
X24738132Y-14985862D01*
X24738535Y-14983836D01*
X24750835Y-14922001D01*
X24750836Y-14921995D01*
X24751235Y-14919989D01*
X24765029Y-14815214D01*
X24768322Y-14781775D01*
X24768859Y-14773592D01*
X24769330Y-14766399D01*
X24769330Y-14766391D01*
X24769400Y-14765329D01*
X24770500Y-14731742D01*
X24770500Y-13716258D01*
X24769400Y-13682671D01*
X24769161Y-13679018D01*
X24768391Y-13667272D01*
X24768389Y-13667250D01*
X24768322Y-13666225D01*
X24765029Y-13632786D01*
X24751235Y-13528011D01*
X24747603Y-13509749D01*
X24738535Y-13464164D01*
X24738132Y-13462138D01*
X24737602Y-13460158D01*
X24737598Y-13460143D01*
X24733305Y-13444123D01*
X24729619Y-13430366D01*
X24708027Y-13366757D01*
X24704494Y-13358226D01*
X24687858Y-13318065D01*
X24670773Y-13276818D01*
X24641061Y-13216569D01*
X24624614Y-13188083D01*
X24623482Y-13186389D01*
X24623474Y-13186376D01*
X24588439Y-13133944D01*
X24588438Y-13133942D01*
X24587301Y-13132241D01*
X24528038Y-13055008D01*
X24483750Y-13004508D01*
X24460492Y-12981250D01*
X24447927Y-12970230D01*
X24411536Y-12938316D01*
X24411535Y-12938315D01*
X24409992Y-12936962D01*
X24395519Y-12925856D01*
X24354400Y-12894305D01*
X24332759Y-12877699D01*
X24331056Y-12876561D01*
X24278624Y-12841526D01*
X24278611Y-12841518D01*
X24276917Y-12840386D01*
X24273084Y-12838173D01*
X24250219Y-12824971D01*
X24250211Y-12824967D01*
X24248431Y-12823939D01*
X24188182Y-12794227D01*
X24126763Y-12768786D01*
X24100158Y-12757766D01*
X24100152Y-12757764D01*
X24098243Y-12756973D01*
X24034634Y-12735381D01*
X24020877Y-12731695D01*
X24004857Y-12727402D01*
X24004842Y-12727398D01*
X24002862Y-12726868D01*
X24000836Y-12726465D01*
X23939001Y-12714165D01*
X23938995Y-12714164D01*
X23936989Y-12713765D01*
X23832214Y-12699971D01*
X23831172Y-12699868D01*
X23831160Y-12699867D01*
X23820588Y-12698826D01*
X23798775Y-12696678D01*
X23797750Y-12696611D01*
X23797728Y-12696609D01*
X23783399Y-12695670D01*
X23783391Y-12695670D01*
X23782329Y-12695600D01*
X23748742Y-12694500D01*
X22860258Y-12694500D01*
X22826671Y-12695600D01*
X22825609Y-12695670D01*
X22825601Y-12695670D01*
X22811272Y-12696609D01*
X22811250Y-12696611D01*
X22810225Y-12696678D01*
X22788412Y-12698826D01*
X22777840Y-12699867D01*
X22777828Y-12699868D01*
X22776786Y-12699971D01*
X22672011Y-12713765D01*
X22670005Y-12714164D01*
X22669999Y-12714165D01*
X22608164Y-12726465D01*
X22606138Y-12726868D01*
X22604158Y-12727398D01*
X22604143Y-12727402D01*
X22588123Y-12731695D01*
X22574366Y-12735381D01*
X22510757Y-12756973D01*
X22508848Y-12757764D01*
X22508842Y-12757766D01*
X22482237Y-12768786D01*
X22420818Y-12794227D01*
X22360569Y-12823939D01*
X22358789Y-12824967D01*
X22358781Y-12824971D01*
X22335916Y-12838173D01*
X22332083Y-12840386D01*
X22330389Y-12841518D01*
X22330376Y-12841526D01*
X22277944Y-12876561D01*
X22276241Y-12877699D01*
X22254600Y-12894305D01*
X22213482Y-12925856D01*
X22199008Y-12936962D01*
X22197465Y-12938315D01*
X22197464Y-12938316D01*
X22161074Y-12970230D01*
X22148508Y-12981250D01*
X22125250Y-13004508D01*
X22080962Y-13055008D01*
X22021699Y-13132241D01*
X22020562Y-13133942D01*
X22020561Y-13133944D01*
X21985526Y-13186376D01*
X21985518Y-13186389D01*
X21984386Y-13188083D01*
X21967939Y-13216569D01*
X21938227Y-13276818D01*
X21921142Y-13318065D01*
X21904507Y-13358226D01*
X21900973Y-13366757D01*
X21879381Y-13430366D01*
X21875695Y-13444123D01*
X21871402Y-13460143D01*
X21871398Y-13460158D01*
X21870868Y-13462138D01*
X21870465Y-13464164D01*
X21861398Y-13509749D01*
X21857765Y-13528011D01*
X21843971Y-13632786D01*
X21840678Y-13666225D01*
X21840611Y-13667250D01*
X21840609Y-13667272D01*
X21839839Y-13679018D01*
X21839600Y-13682671D01*
X21838500Y-13716258D01*
X21838500Y-14275076D01*
X21818498Y-14343197D01*
X21801595Y-14364171D01*
X19498221Y-16667545D01*
X19488078Y-16676647D01*
X19458575Y-16700368D01*
X19444867Y-16716705D01*
X19426309Y-16738821D01*
X19423128Y-16742469D01*
X19421485Y-16744281D01*
X19419291Y-16746475D01*
X19391958Y-16779749D01*
X19391296Y-16780547D01*
X19331446Y-16851874D01*
X19328878Y-16856544D01*
X19325497Y-16860661D01*
X19321560Y-16868004D01*
X19281623Y-16942486D01*
X19280994Y-16943645D01*
X19239138Y-17019781D01*
X19239135Y-17019789D01*
X19236167Y-17025187D01*
X19234555Y-17030269D01*
X19232038Y-17034963D01*
X19204838Y-17123931D01*
X19204518Y-17124959D01*
X19176365Y-17213706D01*
X19175771Y-17219002D01*
X19174213Y-17224098D01*
X19165240Y-17312436D01*
X19164818Y-17316587D01*
X19164677Y-17317904D01*
X19163714Y-17326486D01*
X19136241Y-17391952D01*
X19077735Y-17432172D01*
X19006773Y-17434376D01*
X18945884Y-17397865D01*
X18914399Y-17334232D01*
X18912500Y-17312436D01*
X18912500Y-16020500D01*
X18932502Y-15952379D01*
X18986158Y-15905886D01*
X19038500Y-15894500D01*
X19196287Y-15894500D01*
X19202739Y-15893128D01*
X19202744Y-15893128D01*
X19289687Y-15874647D01*
X19383088Y-15854794D01*
X19403105Y-15845882D01*
X19551522Y-15779803D01*
X19551524Y-15779802D01*
X19557552Y-15777118D01*
X19590108Y-15753465D01*
X19640291Y-15717004D01*
X19712053Y-15664866D01*
X19722041Y-15653773D01*
X19835421Y-15527852D01*
X19835422Y-15527851D01*
X19839840Y-15522944D01*
X19935327Y-15357556D01*
X19994342Y-15175928D01*
X20002104Y-15102074D01*
X20015198Y-15057944D01*
X20019769Y-15048992D01*
X20021509Y-15041880D01*
X20023608Y-15036237D01*
X20025523Y-15030479D01*
X20028622Y-15023850D01*
X20036524Y-14985862D01*
X20043486Y-14952388D01*
X20044457Y-14948099D01*
X20051335Y-14919989D01*
X20061808Y-14877190D01*
X20062500Y-14866036D01*
X20062536Y-14866038D01*
X20062775Y-14862045D01*
X20063149Y-14857853D01*
X20064640Y-14850685D01*
X20062546Y-14773279D01*
X20062500Y-14769872D01*
X20062500Y-14179247D01*
X20082502Y-14111126D01*
X20095084Y-14094692D01*
X20100646Y-14088547D01*
X20103654Y-14085224D01*
X20118527Y-14063174D01*
X20182599Y-13968183D01*
X20182602Y-13968178D01*
X20185107Y-13964464D01*
X20190295Y-13953757D01*
X20245596Y-13839613D01*
X20247554Y-13835572D01*
X20291838Y-13696812D01*
X20315600Y-13555574D01*
X20322682Y-13476627D01*
X20322833Y-13464285D01*
X20317995Y-13389964D01*
X20317729Y-13381779D01*
X20317729Y-13037481D01*
X20318233Y-13026223D01*
X20322464Y-12979053D01*
X20322682Y-12976627D01*
X20322833Y-12964285D01*
X20317683Y-12885171D01*
X20308914Y-12823939D01*
X20298016Y-12747839D01*
X20298015Y-12747833D01*
X20297379Y-12743394D01*
X20294881Y-12734849D01*
X20257755Y-12607892D01*
X20256497Y-12603590D01*
X20223798Y-12531674D01*
X20212500Y-12479524D01*
X20212500Y-11003417D01*
X20214051Y-10983705D01*
X20215220Y-10976325D01*
X20216252Y-10969810D01*
X20212673Y-10901519D01*
X20212500Y-10894925D01*
X20212500Y-10874390D01*
X20211430Y-10864206D01*
X20210353Y-10853960D01*
X20209836Y-10847385D01*
X20206603Y-10785696D01*
X20206603Y-10785695D01*
X20206257Y-10779096D01*
X20202616Y-10765508D01*
X20199012Y-10746061D01*
X20198233Y-10738644D01*
X20198232Y-10738640D01*
X20197542Y-10732072D01*
X20176402Y-10667009D01*
X20174529Y-10660685D01*
X20158539Y-10601010D01*
X20158538Y-10601006D01*
X20156829Y-10594630D01*
X20150440Y-10582092D01*
X20142875Y-10563826D01*
X20140569Y-10556728D01*
X20140568Y-10556726D01*
X20138527Y-10550444D01*
X20104331Y-10491215D01*
X20101185Y-10485421D01*
X20100785Y-10484635D01*
X20070129Y-10424470D01*
X20061273Y-10413533D01*
X20050073Y-10397237D01*
X20046343Y-10390776D01*
X20046340Y-10390772D01*
X20043040Y-10385056D01*
X20038623Y-10380150D01*
X20038619Y-10380145D01*
X19997278Y-10334231D01*
X19992994Y-10329216D01*
X19982148Y-10315823D01*
X19980072Y-10313259D01*
X19965557Y-10298744D01*
X19961016Y-10293959D01*
X19915253Y-10243134D01*
X19903865Y-10234860D01*
X19888832Y-10222019D01*
X17844981Y-8178168D01*
X17832140Y-8163135D01*
X17827746Y-8157087D01*
X17827745Y-8157086D01*
X17823866Y-8151747D01*
X17809451Y-8138767D01*
X17772212Y-8078321D01*
X17773565Y-8007337D01*
X17784644Y-7982133D01*
X17849223Y-7870279D01*
X17849224Y-7870278D01*
X17852527Y-7864556D01*
X17911542Y-7682928D01*
X17927148Y-7534450D01*
X17930814Y-7499565D01*
X17931504Y-7493000D01*
X17925199Y-7433008D01*
X17912232Y-7309635D01*
X17912232Y-7309633D01*
X17911542Y-7303072D01*
X17852527Y-7121444D01*
X17805491Y-7039975D01*
X17788753Y-6970980D01*
X17811974Y-6903888D01*
X17867781Y-6860001D01*
X17888413Y-6853728D01*
X17967606Y-6836895D01*
X18006308Y-6819664D01*
X18136040Y-6761904D01*
X18136042Y-6761903D01*
X18142070Y-6759219D01*
X18187162Y-6726458D01*
X18223112Y-6700338D01*
X18296571Y-6646967D01*
X18322192Y-6618512D01*
X18419939Y-6509953D01*
X18419940Y-6509952D01*
X18424358Y-6505045D01*
X18489815Y-6391671D01*
X18516541Y-6345380D01*
X18516542Y-6345379D01*
X18519845Y-6339657D01*
X18578860Y-6158029D01*
X18582281Y-6125486D01*
X18598132Y-5974666D01*
X18598822Y-5968101D01*
X18586791Y-5853632D01*
X18579550Y-5784736D01*
X18579550Y-5784734D01*
X18578860Y-5778173D01*
X18519845Y-5596545D01*
X18424358Y-5431157D01*
X18412006Y-5417438D01*
X18300993Y-5294146D01*
X18300992Y-5294145D01*
X18296571Y-5289235D01*
X18142070Y-5176983D01*
X18136042Y-5174299D01*
X18136040Y-5174298D01*
X17973637Y-5101992D01*
X17973636Y-5101992D01*
X17967606Y-5099307D01*
X17874206Y-5079454D01*
X17787262Y-5060973D01*
X17787257Y-5060973D01*
X17780805Y-5059601D01*
X17589831Y-5059601D01*
X17583379Y-5060973D01*
X17583374Y-5060973D01*
X17496430Y-5079454D01*
X17403030Y-5099307D01*
X17397000Y-5101992D01*
X17396999Y-5101992D01*
X17234596Y-5174298D01*
X17234594Y-5174299D01*
X17228566Y-5176983D01*
X17074065Y-5289235D01*
X17069644Y-5294145D01*
X17069643Y-5294146D01*
X16958631Y-5417438D01*
X16946278Y-5431157D01*
X16908210Y-5497093D01*
X16905665Y-5501501D01*
X16854282Y-5550494D01*
X16796546Y-5564500D01*
X16576275Y-5564500D01*
X16508154Y-5544498D01*
X16500710Y-5539326D01*
X16480118Y-5523893D01*
X16384705Y-5452385D01*
X16248316Y-5401255D01*
X16186134Y-5394500D01*
X14089866Y-5394500D01*
X14027684Y-5401255D01*
X13891295Y-5452385D01*
X13774739Y-5539739D01*
X13687385Y-5656295D01*
X13636255Y-5792684D01*
X13629500Y-5854866D01*
X13629500Y-6582928D01*
X13609498Y-6651049D01*
X13555842Y-6697542D01*
X13485568Y-6707646D01*
X13452410Y-6697987D01*
X13446699Y-6694528D01*
X13283062Y-6643247D01*
X13209635Y-6636500D01*
X13200695Y-6636500D01*
X12937979Y-6636501D01*
X12869860Y-6616499D01*
X12823367Y-6562844D01*
X12811980Y-6510501D01*
X12811980Y-5001605D01*
X24465061Y-5001605D01*
X24465101Y-5015706D01*
X24472370Y-5019000D01*
X25430385Y-5019000D01*
X25445624Y-5014525D01*
X25446829Y-5013135D01*
X25448500Y-5005452D01*
X25448500Y-4483116D01*
X25444025Y-4467877D01*
X25442635Y-4466672D01*
X25434952Y-4465001D01*
X25051017Y-4465001D01*
X25046080Y-4465195D01*
X25017664Y-4467430D01*
X25005069Y-4469730D01*
X24859210Y-4512107D01*
X24844779Y-4518352D01*
X24715322Y-4594911D01*
X24702896Y-4604551D01*
X24596551Y-4710896D01*
X24586911Y-4723322D01*
X24510352Y-4852779D01*
X24504107Y-4867210D01*
X24465061Y-5001605D01*
X12811980Y-5001605D01*
X12811980Y-3851578D01*
X12831982Y-3783457D01*
X12885638Y-3736964D01*
X12943018Y-3727082D01*
X12943018Y-3726019D01*
X12948525Y-3726019D01*
X12954000Y-3726498D01*
X13182087Y-3706543D01*
X13187400Y-3705119D01*
X13187402Y-3705119D01*
X13397933Y-3648707D01*
X13397935Y-3648706D01*
X13403243Y-3647284D01*
X13424165Y-3637528D01*
X13605762Y-3552849D01*
X13605767Y-3552846D01*
X13610749Y-3550523D01*
X13715611Y-3477098D01*
X13793789Y-3422357D01*
X13793792Y-3422355D01*
X13798300Y-3419198D01*
X13960198Y-3257300D01*
X13968146Y-3245950D01*
X14027141Y-3161696D01*
X14091523Y-3069749D01*
X14093846Y-3064767D01*
X14093849Y-3064762D01*
X14185961Y-2867225D01*
X14185961Y-2867224D01*
X14188284Y-2862243D01*
X14219259Y-2746646D01*
X14246119Y-2646402D01*
X14246119Y-2646400D01*
X14247543Y-2641087D01*
X14267498Y-2413000D01*
X14247543Y-2184913D01*
X14233746Y-2133423D01*
X14189707Y-1969067D01*
X14189706Y-1969065D01*
X14188284Y-1963757D01*
X14112885Y-1802062D01*
X14093849Y-1761238D01*
X14093846Y-1761233D01*
X14091523Y-1756251D01*
X13960198Y-1568700D01*
X13798300Y-1406802D01*
X13793792Y-1403645D01*
X13793789Y-1403643D01*
X13715611Y-1348902D01*
X13610749Y-1275477D01*
X13605767Y-1273154D01*
X13605762Y-1273151D01*
X13408225Y-1181039D01*
X13408224Y-1181039D01*
X13403243Y-1178716D01*
X13397935Y-1177294D01*
X13397933Y-1177293D01*
X13187402Y-1120881D01*
X13187400Y-1120881D01*
X13182087Y-1119457D01*
X12954000Y-1099502D01*
X12725913Y-1119457D01*
X12720600Y-1120881D01*
X12720598Y-1120881D01*
X12510067Y-1177293D01*
X12510065Y-1177294D01*
X12504757Y-1178716D01*
X12499776Y-1181039D01*
X12499775Y-1181039D01*
X12302238Y-1273151D01*
X12302233Y-1273154D01*
X12297251Y-1275477D01*
X12192389Y-1348902D01*
X12114211Y-1403643D01*
X12114208Y-1403645D01*
X12109700Y-1406802D01*
X11947802Y-1568700D01*
X11816477Y-1756251D01*
X11814154Y-1761233D01*
X11814151Y-1761238D01*
X11795115Y-1802062D01*
X11719716Y-1963757D01*
X11718294Y-1969065D01*
X11718293Y-1969067D01*
X11674254Y-2133423D01*
X11660457Y-2184913D01*
X11659978Y-2190388D01*
X11659975Y-2190405D01*
X11657490Y-2218812D01*
X11631627Y-2284930D01*
X11574123Y-2326570D01*
X11503236Y-2330510D01*
X11441472Y-2295500D01*
X11422851Y-2270830D01*
X11407650Y-2244500D01*
X11356240Y-2155456D01*
X11336402Y-2133423D01*
X11268531Y-2058045D01*
X11237813Y-1994038D01*
X11246578Y-1923584D01*
X11255036Y-1908773D01*
X11254640Y-1908544D01*
X11346823Y-1748879D01*
X11346824Y-1748878D01*
X11350127Y-1743156D01*
X11409142Y-1561528D01*
X11429104Y-1371600D01*
X11418757Y-1273151D01*
X11409832Y-1188235D01*
X11409832Y-1188233D01*
X11409142Y-1181672D01*
X11350127Y-1000044D01*
X11254640Y-834656D01*
X11210510Y-785644D01*
X11150332Y-718810D01*
X11119614Y-654803D01*
X11128379Y-584349D01*
X11173842Y-529818D01*
X11243968Y-508500D01*
X28881156Y-508500D01*
X28949277Y-528502D01*
G37*
%TD.AperFunction*%
%TA.AperFunction,Conductor*%
G36*
X1657121Y-1163002D02*
G01*
X1703614Y-1216658D01*
X1715000Y-1269000D01*
X1715000Y-3176000D01*
X1694998Y-3244121D01*
X1641342Y-3290614D01*
X1589000Y-3302000D01*
X1333000Y-3302000D01*
X1264879Y-3281998D01*
X1218386Y-3228342D01*
X1207000Y-3176000D01*
X1207000Y-1269000D01*
X1227002Y-1200879D01*
X1280658Y-1154386D01*
X1333000Y-1143000D01*
X1589000Y-1143000D01*
X1657121Y-1163002D01*
G37*
%TD.AperFunction*%
%TD*%
%TA.AperFunction,Conductor*%
%TO.N,GND*%
G36*
X23765188Y-13209078D02*
G01*
X23869963Y-13222872D01*
X23901735Y-13231385D01*
X23991674Y-13268639D01*
X24020160Y-13285086D01*
X24097393Y-13344349D01*
X24120651Y-13367607D01*
X24179914Y-13444840D01*
X24196361Y-13473326D01*
X24233615Y-13563265D01*
X24242128Y-13595037D01*
X24255922Y-13699812D01*
X24257000Y-13716258D01*
X24257000Y-14731742D01*
X24255922Y-14748188D01*
X24242128Y-14852963D01*
X24233615Y-14884735D01*
X24196361Y-14974674D01*
X24179914Y-15003160D01*
X24120651Y-15080393D01*
X24097393Y-15103651D01*
X24020160Y-15162914D01*
X23991674Y-15179361D01*
X23901735Y-15216615D01*
X23869963Y-15225128D01*
X23765188Y-15238922D01*
X23748742Y-15240000D01*
X22860258Y-15240000D01*
X22843812Y-15238922D01*
X22739037Y-15225128D01*
X22707265Y-15216615D01*
X22617326Y-15179361D01*
X22588840Y-15162914D01*
X22511607Y-15103651D01*
X22488349Y-15080393D01*
X22429086Y-15003160D01*
X22412639Y-14974674D01*
X22375385Y-14884735D01*
X22366872Y-14852963D01*
X22353078Y-14748188D01*
X22352000Y-14731742D01*
X22352000Y-13716258D01*
X22353078Y-13699812D01*
X22366872Y-13595037D01*
X22375385Y-13563265D01*
X22412639Y-13473326D01*
X22429086Y-13444840D01*
X22488349Y-13367607D01*
X22511607Y-13344349D01*
X22588840Y-13285086D01*
X22617326Y-13268639D01*
X22707265Y-13231385D01*
X22739037Y-13222872D01*
X22843812Y-13209078D01*
X22860258Y-13208000D01*
X23748742Y-13208000D01*
X23765188Y-13209078D01*
G37*
%TD.AperFunction*%
%TD*%
M02*
