%TF.GenerationSoftware,KiCad,Pcbnew,(6.0.9)*%
%TF.CreationDate,2022-11-10T15:00:12+05:30*%
%TF.ProjectId,Gate Driver TLP152,47617465-2044-4726-9976-657220544c50,rev?*%
%TF.SameCoordinates,Original*%
%TF.FileFunction,Paste,Top*%
%TF.FilePolarity,Positive*%
%FSLAX46Y46*%
G04 Gerber Fmt 4.6, Leading zero omitted, Abs format (unit mm)*
G04 Created by KiCad (PCBNEW (6.0.9)) date 2022-11-10 15:00:12*
%MOMM*%
%LPD*%
G01*
G04 APERTURE LIST*
G04 Aperture macros list*
%AMRoundRect*
0 Rectangle with rounded corners*
0 $1 Rounding radius*
0 $2 $3 $4 $5 $6 $7 $8 $9 X,Y pos of 4 corners*
0 Add a 4 corners polygon primitive as box body*
4,1,4,$2,$3,$4,$5,$6,$7,$8,$9,$2,$3,0*
0 Add four circle primitives for the rounded corners*
1,1,$1+$1,$2,$3*
1,1,$1+$1,$4,$5*
1,1,$1+$1,$6,$7*
1,1,$1+$1,$8,$9*
0 Add four rect primitives between the rounded corners*
20,1,$1+$1,$2,$3,$4,$5,0*
20,1,$1+$1,$4,$5,$6,$7,0*
20,1,$1+$1,$6,$7,$8,$9,0*
20,1,$1+$1,$8,$9,$2,$3,0*%
G04 Aperture macros list end*
%ADD10RoundRect,0.200000X-0.200000X-0.275000X0.200000X-0.275000X0.200000X0.275000X-0.200000X0.275000X0*%
%ADD11RoundRect,0.200000X0.200000X0.275000X-0.200000X0.275000X-0.200000X-0.275000X0.200000X-0.275000X0*%
%ADD12RoundRect,0.218750X-0.218750X-0.256250X0.218750X-0.256250X0.218750X0.256250X-0.218750X0.256250X0*%
%ADD13R,1.100000X1.100000*%
%ADD14R,2.000000X0.640000*%
%ADD15RoundRect,0.200000X0.275000X-0.200000X0.275000X0.200000X-0.275000X0.200000X-0.275000X-0.200000X0*%
%ADD16R,1.300000X1.700000*%
%ADD17RoundRect,0.150000X0.587500X0.150000X-0.587500X0.150000X-0.587500X-0.150000X0.587500X-0.150000X0*%
G04 APERTURE END LIST*
D10*
%TO.C,R5*%
X23559000Y-8763000D03*
X25209000Y-8763000D03*
%TD*%
D11*
%TO.C,R4*%
X3111000Y-3048000D03*
X1461000Y-3048000D03*
%TD*%
D12*
%TO.C,D1*%
X33819500Y-1397000D03*
X35394500Y-1397000D03*
%TD*%
D10*
%TO.C,R6*%
X11519000Y-12700000D03*
X13169000Y-12700000D03*
%TD*%
D13*
%TO.C,D7*%
X12830000Y-9652000D03*
X10030000Y-9652000D03*
%TD*%
D14*
%TO.C,IC1*%
X21438000Y-8763000D03*
X21438000Y-6223000D03*
X15138000Y-6223000D03*
X15138000Y-7493000D03*
X15138000Y-8763000D03*
%TD*%
D15*
%TO.C,R19*%
X27559000Y-7048000D03*
X27559000Y-5398000D03*
%TD*%
D12*
%TO.C,D2*%
X33819500Y-3048000D03*
X35394500Y-3048000D03*
%TD*%
D10*
%TO.C,R2*%
X36830000Y-3048000D03*
X38480000Y-3048000D03*
%TD*%
D16*
%TO.C,D9*%
X6576000Y-17145000D03*
X3076000Y-17145000D03*
%TD*%
D10*
%TO.C,R14*%
X4001000Y-15113000D03*
X5651000Y-15113000D03*
%TD*%
D12*
%TO.C,D3*%
X4673500Y-1397000D03*
X6248500Y-1397000D03*
%TD*%
%TO.C,D8*%
X4673500Y-4699000D03*
X6248500Y-4699000D03*
%TD*%
D16*
%TO.C,D6*%
X10569000Y-14605000D03*
X14069000Y-14605000D03*
%TD*%
D11*
%TO.C,R3*%
X3111000Y-1397000D03*
X1461000Y-1397000D03*
%TD*%
%TO.C,R13*%
X12953000Y-7620000D03*
X11303000Y-7620000D03*
%TD*%
D10*
%TO.C,R1*%
X36830000Y-1397000D03*
X38480000Y-1397000D03*
%TD*%
D16*
%TO.C,D5*%
X10569000Y-16904000D03*
X14069000Y-16904000D03*
%TD*%
D12*
%TO.C,D4*%
X4673500Y-3048000D03*
X6248500Y-3048000D03*
%TD*%
D17*
%TO.C,Q1*%
X25702500Y-7173000D03*
X25702500Y-5273000D03*
X23827500Y-6223000D03*
%TD*%
D11*
%TO.C,R11*%
X3111000Y-4699000D03*
X1461000Y-4699000D03*
%TD*%
M02*
